<svg width="64" height="64" viewBox="0 0 64 64" fill="none" xmlns="http://www.w3.org/2000/svg"
  class="styles_icon__1tWs6">
  <path fill-rule="evenodd" clip-rule="evenodd"
    d="M24.3244 32.8644L25.4027 31.18L22.0338 29.0234L20.9555 30.7079L16.4759 37.706C15.7069 37.5027 14.8994 37.3943 14.0667 37.3943C8.87371 37.3943 4.66675 41.6049 4.66675 46.7943C4.66675 51.9869 8.87418 56.1943 14.0667 56.1943C19.261 56.1943 23.4634 51.9829 23.4667 46.7956L21.4667 46.7943H23.4667C23.4667 43.875 22.1361 41.2673 20.049 39.5435L24.3244 32.8644ZM16.1507 41.8112L17.7127 42.8111C18.7906 43.7983 19.4667 45.2172 19.4667 46.7943C19.4641 49.7772 17.0481 52.1943 14.0667 52.1943C11.0833 52.1943 8.66675 49.7778 8.66675 46.7943C8.66675 43.8131 11.0838 41.3943 14.0667 41.3943C14.8053 41.3943 15.5094 41.5427 16.1507 41.8112Z"
    fill="url(#group0)"></path>
  <path fill-rule="evenodd" clip-rule="evenodd"
    d="M26.6 17.2047C26.6 14.2235 29.017 11.8047 32 11.8047C34.9812 11.8047 37.4 14.2217 37.4 17.2047C37.4 18.97 36.5525 20.5381 35.2418 21.5236L34.5562 21.9624C33.7957 22.372 32.9256 22.6045 32.0012 22.6047C29.0149 22.6 26.6 20.1809 26.6 17.2047ZM35.2897 26.0129C34.2659 26.3955 33.1574 26.6047 32 26.6047L31.9974 26.6047L31.9954 26.6047C26.8072 26.5969 22.6 22.3927 22.6 17.2047C22.6 12.0153 26.8069 7.80469 32 7.80469C37.1894 7.80469 41.4 12.0116 41.4 17.2047C41.4 19.797 40.3501 22.1451 38.652 23.8461L43.0445 30.708L44.1227 32.3924L40.7538 34.5489L39.6756 32.8645L35.2897 26.0129Z"
    fill="#E1E1E6"></path>
  <path fill-rule="evenodd" clip-rule="evenodd"
    d="M44.536 46.7945C44.536 43.8133 46.953 41.3945 49.936 41.3945C52.9172 41.3945 55.336 43.8116 55.336 46.7945C55.336 49.7758 52.9189 52.1945 49.936 52.1945C46.9504 52.1945 44.536 49.7784 44.536 46.7945ZM40.75 48.7992C41.6676 53.0279 45.4288 56.1945 49.936 56.1945C55.129 56.1945 59.336 51.984 59.336 46.7945C59.336 41.6015 55.1254 37.3945 49.936 37.3945C45.428 37.3945 41.6632 40.5674 40.7483 44.7992H32H30V48.7992H32H40.75Z"
    fill="url(#group1)"></path>
  <defs>
    <linearGradient id="group0" x1="7.83904" y1="56.4123" x2="20.2608" y2="27.1761" gradientUnits="userSpaceOnUse">
      <stop stop-color="#8257E5"></stop>
      <stop offset="1" stop-color="#8257E5" stop-opacity="0.25"></stop>
    </linearGradient>
    <linearGradient id="group1" x1="59.6074" y1="46.3825" x2="30" y2="46.3825" gradientUnits="userSpaceOnUse">
      <stop stop-color="#04D361"></stop>
      <stop offset="1" stop-color="#04D361" stop-opacity="0.25"></stop>
    </linearGradient>
  </defs>
</svg>
