<svg width="120" height="135" viewBox="0 0 120 135" fill="none" xmlns="http://www.w3.org/2000/svg"
  class="styles_icon__3I5e0">
  <path
    d="M54.1615 2.21437L53.7915 1.562L54.1615 2.21436C57.6414 0.240536 61.8964 0.263721 65.3552 2.27516L112.271 29.5607L112.648 28.9124L112.271 29.5607C115.811 31.6193 117.973 35.4445 117.924 39.5666L117.268 93.865C117.219 97.8384 115.121 101.497 111.734 103.523L65.3799 131.245C61.8659 133.346 57.5003 133.374 53.9614 131.316L7.04551 104.03L6.66845 104.678L7.04548 104.03C3.58615 102.018 1.43533 98.3143 1.39222 94.2858L0.80242 39.2625C0.757832 35.1019 2.96702 31.2503 6.56173 29.2114L54.1615 2.21437Z"
    fill="#121214" stroke="url(#dart)" stroke-width="1.5"></path>
  <path
    d="M99.3267 39.2946L64.14 19.5126C61.373 17.9571 57.9684 17.9392 55.1844 19.4656L19.4846 39.0385C16.6093 40.6149 14.8445 43.5914 14.8802 46.8043L15.3225 86.6962C15.357 89.8071 17.0752 92.6693 19.8422 94.2247L55.0291 114.007C57.8603 115.599 61.3534 115.577 64.1645 113.952L98.9299 93.8541C101.639 92.2877 103.315 89.4603 103.354 86.3919L103.846 47.0255C103.886 43.8424 102.158 40.8863 99.3267 39.2946Z"
    fill="url(#dart1)"></path>
  <path
    d="M71.0718 48.6564L64.8167 42.4473C63.3701 41.0142 61.4016 40.5682 60.4503 41.4592L44.209 52.2094L69.3578 52.2061L70.604 52.2491C71.168 52.2668 71.7903 52.3693 72.4391 52.5351L71.0718 48.6564Z"
    fill="#2CB7F6"></path>
  <path
    d="M47.6992 55.7015L44.209 52.2113L44.2237 77.4394L44.2655 78.6186C44.2828 79.1733 44.3857 79.7994 44.5575 80.4482L72.2122 90.1999L79.125 87.1371L79.1276 87.1286L47.6992 55.7015Z"
    fill="#2CB7F6"></path>
  <path
    d="M44.5586 80.4481L44.5603 80.4498C44.5586 80.4384 44.5527 80.4258 44.5527 80.4139C44.5527 80.4258 44.5544 80.4367 44.5586 80.4481ZM79.1262 87.1369L72.2134 90.1998L44.5603 80.4498C45.0885 82.4765 46.258 84.7546 47.5164 86.0004L56.5412 94.9737L76.6076 94.9998L79.1288 87.1285L79.1262 87.1369Z"
    fill="#2CB7F6"></path>
  <path
    d="M33.4614 68.4463C32.5679 69.4002 33.0117 71.3678 34.4503 72.8174L40.6557 79.0742L44.558 80.4482C44.3863 79.7994 44.2834 79.1733 44.2661 78.6186L44.2243 77.4394L44.2095 52.2113L33.4614 68.4463Z"
    fill="#04599C"></path>
  <path
    d="M72.4392 52.5352C71.7903 52.3694 71.1681 52.2669 70.604 52.2492L69.3578 52.2062L44.209 52.2096L79.131 87.1286H79.1339L82.201 80.209L72.4392 52.5352Z"
    fill="#04599C"></path>
  <path
    d="M72.4082 52.5284C72.4217 52.5314 72.4323 52.5352 72.4411 52.5365L72.4398 52.5352C72.4323 52.5314 72.4217 52.5314 72.4082 52.5284ZM77.9871 55.498C76.7198 54.2202 74.4716 53.0587 72.4411 52.5365L82.2016 80.2089L79.1346 87.1285H79.1316L86.6266 84.7348L86.6427 64.1861L77.9871 55.498Z"
    fill="#02579B"></path>
  <defs>
    <linearGradient id="dart" x1="30.5312" y1="14.1941" x2="91.8771" y2="117.004" gradientUnits="userSpaceOnUse">
      <stop stop-color="#3C3C42"></stop>
      <stop offset="1" stop-color="#323238" stop-opacity="0"></stop>
    </linearGradient>
    <linearGradient id="dart1" x1="14.9001" y1="18.5962" x2="111.316" y2="107.192" gradientUnits="userSpaceOnUse">
      <stop stop-color="#29292E"></stop>
      <stop offset="1" stop-color="#121214"></stop>
    </linearGradient>
  </defs>
</svg>
