<svg width="120" height="135" viewBox="0 0 120 135" fill="none" xmlns="http://www.w3.org/2000/svg"
  class="styles_icon__3I5e0">
  <path
    d="M54.1615 2.21437L53.7915 1.562L54.1615 2.21436C57.6414 0.240536 61.8964 0.263721 65.3552 2.27516L112.271 29.5607L112.648 28.9124L112.271 29.5607C115.811 31.6193 117.973 35.4445 117.924 39.5666L117.268 93.865C117.219 97.8384 115.121 101.497 111.734 103.523L65.3799 131.245C61.8659 133.346 57.5003 133.374 53.9614 131.316L7.04551 104.03L6.66845 104.678L7.04548 104.03C3.58615 102.018 1.43533 98.3143 1.39222 94.2858L0.80242 39.2625C0.757832 35.1019 2.96702 31.2503 6.56173 29.2114L54.1615 2.21437Z"
    fill="#121214" stroke="url(#elixir0)" stroke-width="1.5"></path>
  <path
    d="M99.3267 39.2946L64.14 19.5126C61.373 17.9571 57.9684 17.9392 55.1844 19.4656L19.4846 39.0385C16.6093 40.6149 14.8445 43.5914 14.8802 46.8043L15.3225 86.6962C15.357 89.8071 17.0752 92.6693 19.8422 94.2247L55.0291 114.007C57.8603 115.599 61.3534 115.577 64.1645 113.952L98.9299 93.8541C101.639 92.2877 103.315 89.4603 103.354 86.3919L103.846 47.0255C103.886 43.8424 102.158 40.8863 99.3267 39.2946Z"
    fill="url(#elixir1)"></path>
  <path
    d="M60.7859 95.3991C49.8585 95.3991 41 85.9594 41 74.3153C41 64.776 48.8518 53.1202 54.9151 46.0213C57.7858 42.6603 63.2109 40 63.2109 40C63.2109 40 60.4307 53.5845 67.9726 58.9798C74.6671 63.769 79.5932 69.9996 79.5932 75.4808C79.5932 86.4565 71.7137 95.3993 60.7862 95.3993L60.7859 95.3991Z"
    fill="#B13AF0"></path>
  <defs>
    <linearGradient id="elixir0" x1="30.5312" y1="14.1941" x2="91.8771" y2="117.004" gradientUnits="userSpaceOnUse">
      <stop stop-color="#3C3C42"></stop>
      <stop offset="1" stop-color="#323238" stop-opacity="0"></stop>
    </linearGradient>
    <linearGradient id="elixir1" x1="14.9001" y1="18.5962" x2="111.316" y2="107.192" gradientUnits="userSpaceOnUse">
      <stop stop-color="#29292E"></stop>
      <stop offset="1" stop-color="#121214"></stop>
    </linearGradient>
  </defs>
</svg>
