<svg width="120" height="135" viewBox="0 0 120 135" fill="none" xmlns="http://www.w3.org/2000/svg"
  class="styles_icon__3I5e0">
  <path
    d="M54.1615 2.21437L53.7915 1.562L54.1615 2.21436C57.6414 0.240536 61.8964 0.263721 65.3552 2.27516L112.271 29.5607L112.648 28.9124L112.271 29.5607C115.811 31.6193 117.973 35.4445 117.924 39.5666L117.268 93.865C117.219 97.8384 115.121 101.497 111.734 103.523L65.3799 131.245C61.8659 133.346 57.5003 133.374 53.9614 131.316L7.04551 104.03L6.66845 104.678L7.04548 104.03C3.58615 102.018 1.43533 98.3143 1.39222 94.2858L0.80242 39.2625C0.757832 35.1019 2.96702 31.2503 6.56173 29.2114L54.1615 2.21437Z"
    fill="#121214" stroke="url(#paint0_linear)" stroke-width="1.5"></path>
  <path
    d="M99.3267 39.2946L64.14 19.5126C61.373 17.9571 57.9684 17.9392 55.1844 19.4656L19.4846 39.0385C16.6093 40.6149 14.8445 43.5914 14.8802 46.8043L15.3225 86.6962C15.357 89.8071 17.0752 92.6693 19.8422 94.2247L55.0291 114.007C57.8603 115.599 61.3534 115.577 64.1645 113.952L98.9299 93.8541C101.639 92.2877 103.315 89.4603 103.354 86.3919L103.846 47.0255C103.886 43.8424 102.158 40.8863 99.3267 39.2946Z"
    fill="url(#paint1_linear)"></path>
  <path
    d="M26.4425 72.1099V64.4048H35.8913V63.9541H26.4425V56.9249H36.4887V56.4744H26V72.5604H36.5772V72.1099H26.4427H26.4425ZM45.0967 60.9802L41.1801 66.2296L37.3518 60.9803H36.7764L40.9144 66.5677L36.378 72.5603H36.9091L41.1798 66.9053L45.4727 72.5603H46.0259L41.4675 66.5674L45.6276 60.9801H45.0966L45.0967 60.9802ZM47.3537 76.5256V69.3163H47.398C47.6636 70.3677 48.1873 71.2125 48.9691 71.8509C49.751 72.4892 50.7467 72.8084 51.9563 72.8084C52.7382 72.8084 53.4316 72.647 54.0365 72.3241C54.6413 72.0011 55.1465 71.5618 55.5522 71.0061C55.9579 70.4503 56.2677 69.8045 56.4817 69.0685C56.6955 68.3326 56.8025 67.559 56.8025 66.7481C56.8025 65.8768 56.6918 65.0732 56.4705 64.3373C56.2492 63.6013 55.9284 62.963 55.508 62.4223C55.0875 61.8816 54.5786 61.4609 53.9811 61.1607C53.3837 60.8603 52.7087 60.71 51.9563 60.71C51.381 60.71 50.8463 60.7964 50.3521 60.9691C49.8579 61.1419 49.4191 61.3859 49.0355 61.7013C48.6497 62.0192 48.3139 62.3953 48.0397 62.8165C47.7595 63.2446 47.5455 63.714 47.398 64.2247H47.3537V60.9802H46.9112V76.5256H47.3537ZM51.9563 72.3802C50.5698 72.3802 49.4559 71.8958 48.615 70.9271C47.7742 69.9584 47.3537 68.5652 47.3537 66.7478C47.3537 65.9968 47.4571 65.2834 47.6636 64.6075C47.8701 63.9317 48.1688 63.3383 48.5597 62.8277C48.9507 62.317 49.4338 61.9115 50.009 61.6112C50.5844 61.3107 51.2336 61.1605 51.9563 61.1605C52.694 61.1605 53.3395 61.3107 53.8926 61.6112C54.4458 61.9115 54.9032 62.3208 55.2646 62.839C55.626 63.3571 55.8989 63.9505 56.0834 64.6187C56.2677 65.2871 56.3599 65.9968 56.3599 66.7478C56.3599 67.4238 56.2751 68.096 56.1054 68.7642C55.9358 69.4326 55.6739 70.0334 55.3198 70.5667C54.9659 71.0998 54.5123 71.5353 53.959 71.8734C53.4057 72.2113 52.7382 72.3802 51.9563 72.3802ZM59.2366 72.5604V66.0044C59.2366 65.3735 59.325 64.7576 59.5022 64.157C59.6791 63.5562 59.9521 63.0266 60.3209 62.5687C60.6897 62.1105 61.158 61.75 61.726 61.4872C62.2939 61.2243 62.9689 61.1154 63.7508 61.1605V60.7099C63.0721 60.695 62.4784 60.7699 61.9695 60.9352C61.4604 61.1004 61.0216 61.3257 60.6528 61.6112C60.284 61.8965 59.989 62.2306 59.7677 62.6137C59.5466 62.9962 59.3825 63.4099 59.2808 63.8415H59.2366V60.9802H58.7941V72.5606H59.2366V72.5604ZM64.3039 66.8604H73.819C73.8486 66.0644 73.7712 65.2985 73.5867 64.5625C73.4024 63.8265 73.1073 63.1731 72.7017 62.6025C72.2959 62.0317 71.7722 61.5736 71.1305 61.2281C70.4887 60.8826 69.7253 60.7099 68.8403 60.7099C68.2058 60.7099 67.5863 60.8451 66.9814 61.1156C66.3766 61.3859 65.8455 61.78 65.3882 62.2982C64.9309 62.8164 64.5621 63.451 64.2819 64.2021C64.0016 64.953 63.8614 65.8091 63.8614 66.7704C63.8614 67.6265 63.9573 68.4263 64.1491 69.1697C64.3408 69.9132 64.6358 70.5591 65.0341 71.1073C65.4326 71.6555 65.9452 72.0798 66.5721 72.3802C67.199 72.6806 67.9551 72.8233 68.8403 72.8083C70.1384 72.8083 71.2301 72.4364 72.1152 71.6931C73.0004 70.9495 73.524 69.902 73.6863 68.5502H73.2438C73.052 69.8269 72.5614 70.7844 71.7722 71.4227C70.9829 72.061 69.991 72.3802 68.7959 72.3802C67.9846 72.3802 67.2986 72.2375 66.738 71.9522C66.1775 71.6669 65.7201 71.2762 65.366 70.7806C65.0121 70.2849 64.7502 69.7029 64.5806 69.0345C64.4108 68.3663 64.3187 67.6415 64.3039 66.8604ZM73.3765 66.4099H64.3041C64.3482 65.5988 64.4957 64.8704 64.7465 64.2246C64.9973 63.5786 65.3255 63.0266 65.7313 62.5687C66.1369 62.1105 66.609 61.7614 67.1474 61.521C67.6859 61.2807 68.2649 61.1605 68.8845 61.1605C69.6221 61.1605 70.2711 61.2995 70.8318 61.5773C71.3923 61.8552 71.8607 62.2345 72.2369 62.7151C72.6131 63.1957 72.897 63.7552 73.0888 64.3935C73.2806 65.0318 73.3765 65.704 73.3765 66.4099ZM83.0023 64.4048H83.4449C83.4449 63.1131 83.076 62.1743 82.3385 61.5886C81.6008 61.0028 80.5976 60.7099 79.329 60.7099C78.6208 60.7099 78.0235 60.8001 77.5366 60.9803C77.0498 61.1605 76.6515 61.3933 76.3416 61.6786C76.0319 61.9639 75.8107 62.2794 75.6779 62.6249C75.545 62.9704 75.4786 63.3009 75.4786 63.6162C75.4786 64.247 75.5893 64.7502 75.8107 65.1257C76.0319 65.5012 76.3786 65.7941 76.8506 66.0044C77.1752 66.1544 77.5439 66.2897 77.957 66.41C78.3701 66.5301 78.8495 66.6577 79.3954 66.7928C79.8822 66.9132 80.3616 67.0333 80.8338 67.1533C81.3058 67.2735 81.7225 67.435 82.0839 67.6377C82.4454 67.8405 82.7404 68.0996 82.9691 68.4151C83.1977 68.7304 83.312 69.1435 83.312 69.6541C83.312 70.1498 83.1978 70.5704 82.9691 70.9157C82.7424 71.2594 82.4439 71.5479 82.0951 71.7607C81.741 71.9784 81.3463 72.1361 80.9112 72.2337C80.476 72.3314 80.0519 72.3802 79.6389 72.3802C78.2964 72.3802 77.2674 72.0761 76.5519 71.4678C75.8364 70.8595 75.4788 69.902 75.4788 68.5952H75.0361C75.0361 70.0522 75.4234 71.1186 76.1978 71.7945C76.9724 72.4704 78.1193 72.8083 79.6389 72.8083C80.1256 72.8083 80.6161 72.7519 81.1104 72.6393C81.6045 72.5266 82.0471 72.3427 82.438 72.0873C82.8256 71.8355 83.1511 71.4964 83.3895 71.0961C83.6329 70.6904 83.7547 70.1949 83.7547 69.6091C83.7547 69.0533 83.6477 68.6028 83.4338 68.2573C83.2199 67.9119 82.9396 67.6265 82.5929 67.4012C82.2462 67.1759 81.8554 66.9994 81.4201 66.8718C80.9825 66.7434 80.5435 66.6194 80.1034 66.4999C79.5618 66.3553 79.0197 66.2126 78.477 66.072C78.0124 65.9518 77.5809 65.8091 77.1826 65.6439C76.7991 65.4786 76.4929 65.2421 76.2642 64.9342C76.0355 64.6263 75.9213 64.187 75.9213 63.6162C75.9213 63.5111 75.9508 63.3233 76.0098 63.053C76.0687 62.7826 76.209 62.5085 76.4302 62.2306C76.6515 61.9529 76.9907 61.705 77.4481 61.4872C77.9054 61.2694 78.5324 61.1605 79.329 61.1605C79.8749 61.1605 80.3726 61.2206 80.8226 61.3407C81.2726 61.4609 81.6599 61.6524 81.9843 61.9153C82.3089 62.1781 82.5597 62.5123 82.7367 62.9178C82.9137 63.3235 83.0023 63.819 83.0023 64.4048ZM93.2476 64.4048H93.6901C93.6901 63.1131 93.3215 62.1743 92.5838 61.5886C91.8462 61.0028 90.843 60.7099 89.5743 60.7099C88.8663 60.7099 88.2687 60.8001 87.782 60.9803C87.2951 61.1605 86.8968 61.3933 86.5871 61.6786C86.2772 61.9639 86.056 62.2794 85.9231 62.6249C85.7903 62.9704 85.7241 63.3009 85.7241 63.6162C85.7241 64.247 85.8347 64.7502 86.0561 65.1257C86.2772 65.5012 86.624 65.7941 87.096 66.0044C87.4206 66.1544 87.7893 66.2897 88.2023 66.41C88.6154 66.5301 89.0948 66.6577 89.6407 66.7928C90.1276 66.9132 90.607 67.0333 91.0791 67.1533C91.5512 67.2735 91.9678 67.435 92.3294 67.6377C92.6907 67.8405 92.9858 68.0996 93.2144 68.4151C93.4431 68.7304 93.5575 69.1435 93.5575 69.6541C93.5575 70.1498 93.4431 70.5704 93.2144 70.9157C92.9877 71.2594 92.6893 71.5479 92.3405 71.7607C91.9863 71.9784 91.5917 72.1361 91.1565 72.2337C90.7214 72.3314 90.2972 72.3802 89.8841 72.3802C88.5417 72.3802 87.5128 72.0761 86.7973 71.4678C86.0817 70.8595 85.7241 69.902 85.7241 68.5952H85.2815C85.2815 70.0522 85.6687 71.1186 86.4432 71.7945C87.2177 72.4704 88.3646 72.8083 89.8841 72.8083C90.371 72.8083 90.8615 72.7519 91.3557 72.6393C91.8498 72.5266 92.2924 72.3427 92.6834 72.0873C93.071 71.8355 93.3965 71.4964 93.6349 71.0961C93.8783 70.6904 94 70.1949 94 69.6091C94 69.0533 93.8931 68.6028 93.6791 68.2573C93.4653 67.9119 93.1851 67.6265 92.8383 67.4012C92.4916 67.1759 92.1006 66.9994 91.6656 66.8718C91.2279 66.7434 90.789 66.6194 90.3489 66.4999C89.8072 66.3553 89.2651 66.2126 88.7224 66.072C88.2577 65.9518 87.8262 65.8091 87.4279 65.6439C87.0443 65.4786 86.7382 65.2421 86.5096 64.9342C86.2809 64.6263 86.1666 64.187 86.1666 63.6162C86.1666 63.5111 86.1961 63.3233 86.2552 63.053C86.3141 62.7826 86.4544 62.5085 86.6755 62.2306C86.8968 61.9529 87.2361 61.705 87.6934 61.4872C88.1508 61.2694 88.7777 61.1605 89.5744 61.1605C90.1203 61.1605 90.6181 61.2206 91.068 61.3407C91.518 61.4609 91.9052 61.6524 92.2297 61.9153C92.5543 62.1781 92.8051 62.5123 92.9821 62.9178C93.1592 63.3235 93.2477 63.819 93.2477 64.4048H93.2476Z"
    fill="#E1E1E6"></path>
  <defs>
    <linearGradient id="paint0_linear" x1="30.5312" y1="14.1941" x2="91.8771" y2="117.004"
      gradientUnits="userSpaceOnUse">
      <stop stop-color="#3C3C42"></stop>
      <stop offset="1" stop-color="#323238" stop-opacity="0"></stop>
    </linearGradient>
    <linearGradient id="paint1_linear" x1="14.9001" y1="18.5962" x2="111.316" y2="107.192"
      gradientUnits="userSpaceOnUse">
      <stop stop-color="#29292E"></stop>
      <stop offset="1" stop-color="#121214"></stop>
    </linearGradient>
  </defs>
</svg>
