<svg width="120" height="135" viewBox="0 0 120 135" fill="none" xmlns="http://www.w3.org/2000/svg"
  class="styles_icon__3I5e0">
  <path
    d="M54.1615 2.21437L53.7915 1.562L54.1615 2.21436C57.6414 0.240536 61.8964 0.263721 65.3552 2.27516L112.271 29.5607L112.648 28.9124L112.271 29.5607C115.811 31.6193 117.973 35.4445 117.924 39.5666L117.268 93.865C117.219 97.8384 115.121 101.497 111.734 103.523L65.3799 131.245C61.8659 133.346 57.5003 133.374 53.9614 131.316L7.04551 104.03L6.66845 104.678L7.04548 104.03C3.58615 102.018 1.43533 98.3143 1.39222 94.2858L0.80242 39.2625C0.757832 35.1019 2.96702 31.2503 6.56173 29.2114L54.1615 2.21437Z"
    fill="#121214" stroke="url(#javascript0)" stroke-width="1.5"></path>
  <path
    d="M99.3267 39.2946L64.14 19.5126C61.373 17.9571 57.9684 17.9392 55.1844 19.4656L19.4846 39.0385C16.6093 40.6149 14.8445 43.5914 14.8802 46.8043L15.3225 86.6962C15.357 89.8071 17.0752 92.6693 19.8422 94.2247L55.0291 114.007C57.8603 115.599 61.3534 115.577 64.1645 113.952L98.9299 93.8541C101.639 92.2877 103.315 89.4603 103.354 86.3919L103.846 47.0255C103.886 43.8424 102.158 40.8863 99.3267 39.2946Z"
    fill="url(#javascript1)"></path>
  <path
    d="M35 78.1777L40.7149 74.7649C41.8173 76.6946 42.821 78.3265 45.2269 78.3265C47.5322 78.3265 48.9865 77.4406 48.9865 73.9729V50.4237H56.0049V74.0703C56.0049 81.2432 51.7443 84.5089 45.5285 84.5089C43.331 84.6263 41.1491 84.084 39.27 82.9535C37.3909 81.8231 35.9029 80.1574 35.0018 78.1759L35 78.1777ZM59.8184 77.4335L65.5333 74.1678C66.1688 75.44 67.155 76.5095 68.3787 77.2533C69.6025 77.9971 71.014 78.3851 72.4512 78.3726C75.3598 78.3726 77.2127 76.9374 77.2127 74.9581C77.2127 72.5837 75.3077 71.742 72.0993 70.351L70.3505 69.6174C65.2873 67.4911 61.9281 64.819 61.9281 59.1789C61.9281 53.9835 65.9391 50.0268 72.2052 50.0268C74.2355 49.8815 76.2643 50.3296 78.0383 51.3149C79.8123 52.3003 81.253 53.7794 82.1807 55.5676L76.7153 59.0318C76.3566 58.1441 75.7331 57.3849 74.9273 56.8549C74.1216 56.3248 73.1716 56.049 72.2034 56.0638C71.7813 56.0217 71.3549 56.0668 70.9515 56.1964C70.5481 56.326 70.1765 56.5372 69.8604 56.8165C69.5443 57.0958 69.2906 57.437 69.1157 57.8184C68.9407 58.1999 68.8482 58.6131 68.8441 59.0318C68.8441 61.1103 70.1476 61.9502 73.1532 63.2366L74.9073 63.9791C80.8736 66.5023 84.2311 69.0752 84.2311 74.8624C84.2311 81.0961 79.2685 84.5107 72.602 84.5107C66.0845 84.5107 61.8742 81.4434 59.8184 77.4353"
    fill="#FDE635"></path>
  <defs>
    <linearGradient id="javascript0" x1="30.5312" y1="14.1941" x2="91.8771" y2="117.004" gradientUnits="userSpaceOnUse">
      <stop stop-color="#3C3C42"></stop>
      <stop offset="1" stop-color="#323238" stop-opacity="0"></stop>
    </linearGradient>
    <linearGradient id="javascript1" x1="14.9001" y1="18.5962" x2="111.316" y2="107.192" gradientUnits="userSpaceOnUse">
      <stop stop-color="#29292E"></stop>
      <stop offset="1" stop-color="#121214"></stop>
    </linearGradient>
  </defs>
</svg>
