<svg width="120" height="135" viewBox="0 0 120 135" fill="none" xmlns="http://www.w3.org/2000/svg"
  class="styles_icon__3I5e0">
  <path
    d="M54.1615 2.21437L53.7915 1.562L54.1615 2.21436C57.6414 0.240536 61.8964 0.263721 65.3552 2.27516L112.271 29.5607L112.648 28.9124L112.271 29.5607C115.811 31.6193 117.973 35.4445 117.924 39.5666L117.268 93.865C117.219 97.8384 115.121 101.497 111.734 103.523L65.3799 131.245C61.8659 133.346 57.5003 133.374 53.9614 131.316L7.04551 104.03L6.66845 104.678L7.04548 104.03C3.58615 102.018 1.43533 98.3143 1.39222 94.2858L0.80242 39.2625C0.757832 35.1019 2.96702 31.2503 6.56173 29.2114L54.1615 2.21437Z"
    fill="#121214" stroke="url(#next)" stroke-width="1.5"></path>
  <path
    d="M100.448 38.9614L65.2611 19.1794C62.4941 17.6239 59.0895 17.6059 56.3055 19.1324L20.6057 38.7052C17.7304 40.2817 15.9656 43.2582 16.0013 46.471L16.4436 86.3629C16.4781 89.4738 18.1963 92.3361 20.9633 93.8915L56.1502 113.674C58.9813 115.265 62.4745 115.244 65.2856 113.619L100.051 93.5209C102.76 91.9545 104.436 89.127 104.475 86.0587L104.967 46.6923C105.007 43.5092 103.279 40.5531 100.448 38.9614Z"
    fill="url(#next1)"></path>
  <path
    d="M43.1067 58.0355H55.1822V58.9917H44.2138V66.1878H54.528V67.144H44.2138V75.0446H55.3079V76.0009H43.1067V58.0355ZM56.2638 58.0355H57.547L63.2325 65.9361L69.0438 58.0355L76.948 48L63.9621 66.7665L70.6539 76.0009H69.3204L63.2325 67.5969L57.1196 76.0009H55.8112L62.5532 66.7665L56.2642 58.0355H56.2638ZM71.132 58.9917V58.0355H84.8926V58.9917H78.5533V76.0004H77.4461V58.9917H71.1324H71.132ZM28 58.0355H29.3838L48.4631 86.478L40.5784 76.0009L29.157 59.3942L29.1068 76.0009H28V58.0355ZM84.7816 74.7559C84.5549 74.7559 84.3854 74.5814 84.3854 74.356C84.3854 74.1302 84.5549 73.9557 84.7812 73.9557C85.0101 73.9557 85.177 74.1302 85.177 74.356C85.177 74.5814 85.0101 74.7559 84.7812 74.7559H84.7816ZM85.8689 73.7032H86.4615C86.4697 74.0229 86.7043 74.2375 87.0485 74.2375C87.4334 74.2375 87.6515 74.007 87.6515 73.5743V70.8353H88.2545V73.5769C88.2545 74.356 87.8023 74.8046 87.0537 74.8046C86.3514 74.8046 85.8693 74.3694 85.8693 73.7032H85.8689ZM89.0431 73.6687H89.6409C89.692 74.0363 90.0527 74.2698 90.5725 74.2698C91.0567 74.2698 91.4122 74.0199 91.4122 73.6764C91.4122 73.3812 91.1864 73.2037 90.6718 73.083L90.1711 72.9624C89.4688 72.7986 89.148 72.4599 89.148 71.8907C89.148 71.2003 89.7133 70.7409 90.5612 70.7409C91.3502 70.7409 91.9268 71.2003 91.9615 71.8527H91.3745C91.3181 71.4959 91.006 71.2727 90.5534 71.2727C90.0766 71.2727 89.7592 71.5011 89.7592 71.8502C89.7592 72.1268 89.9638 72.2854 90.4702 72.4035L90.8981 72.5082C91.6949 72.6935 92.0235 73.0158 92.0235 73.5984C92.0235 74.3396 91.4469 74.8046 90.5265 74.8046C89.6652 74.8046 89.086 74.3612 89.0431 73.6682V73.6687Z"
    fill="white"></path>
  <defs>
    <linearGradient id="next" x1="30.5312" y1="14.1941" x2="91.8771" y2="117.004" gradientUnits="userSpaceOnUse">
      <stop stop-color="#3C3C42"></stop>
      <stop offset="1" stop-color="#323238" stop-opacity="0"></stop>
    </linearGradient>
    <linearGradient id="next1" x1="16.0212" y1="18.2629" x2="112.438" y2="106.859" gradientUnits="userSpaceOnUse">
      <stop stop-color="#29292E"></stop>
      <stop offset="1" stop-color="#121214"></stop>
    </linearGradient>
  </defs>
</svg>
