<svg width="120" height="135" viewBox="0 0 120 135" fill="none" xmlns="http://www.w3.org/2000/svg"
  class="styles_icon__3I5e0">
  <path
    d="M54.1615 2.21437L53.7915 1.562L54.1615 2.21436C57.6414 0.240536 61.8964 0.263721 65.3552 2.27516L112.271 29.5607L112.648 28.9124L112.271 29.5607C115.811 31.6193 117.973 35.4445 117.924 39.5666L117.268 93.865C117.219 97.8384 115.121 101.497 111.734 103.523L65.3799 131.245C61.8659 133.346 57.5003 133.374 53.9614 131.316L7.04551 104.03L6.66845 104.678L7.04548 104.03C3.58615 102.018 1.43533 98.3143 1.39222 94.2858L0.80242 39.2625C0.757832 35.1019 2.96702 31.2503 6.56173 29.2114L54.1615 2.21437Z"
    fill="#121214" stroke="url(#nodejs)" stroke-width="1.5"></path>
  <path
    d="M99.3267 39.2946L64.14 19.5126C61.373 17.9571 57.9684 17.9392 55.1844 19.4656L19.4846 39.0385C16.6093 40.6149 14.8445 43.5914 14.8802 46.8043L15.3225 86.6962C15.357 89.8071 17.0752 92.6693 19.8422 94.2247L55.0291 114.007C57.8603 115.599 61.3534 115.577 64.1645 113.952L98.9299 93.8541C101.639 92.2877 103.315 89.4603 103.354 86.3919L103.846 47.0255C103.886 43.8424 102.158 40.8863 99.3267 39.2946Z"
    fill="url(#nodejs1)"></path>
  <path
    d="M57.9531 39.6105C58.6787 39.2102 59.4962 39 60.3274 39C61.1587 39 61.9762 39.2102 62.7018 39.6105C69.9318 43.642 77.1625 47.6728 84.3938 51.703C85.0739 52.0852 85.6402 52.637 86.0361 53.3033C86.4319 53.9695 86.6435 54.7266 86.6494 55.4989V79.7632C86.6353 80.5639 86.4027 81.3461 85.9762 82.0274C85.5497 82.7087 84.9451 83.264 84.2258 83.6348C77.0189 87.6446 69.8137 91.6562 62.6104 95.6696C61.8712 96.0732 61.0359 96.2738 60.1914 96.2506C59.347 96.2275 58.5243 95.9814 57.8089 95.538C55.6488 94.3016 53.487 93.0681 51.3233 91.8377C50.8485 91.6253 50.4227 91.3192 50.0723 90.9383C50.348 90.5778 50.8412 90.5255 51.2411 90.3651C52.1288 90.0516 52.9848 89.657 53.7981 89.1863C53.9006 89.1266 54.0188 89.0985 54.1376 89.1056C54.2563 89.1126 54.3703 89.1546 54.4647 89.2259C56.313 90.2714 58.1431 91.3474 59.9969 92.382C60.3932 92.6073 60.7932 92.3081 61.1311 92.1224C68.2029 88.1775 75.2771 84.2374 82.3537 80.3021C82.48 80.24 82.5842 80.1417 82.653 80.0202C82.7217 79.8986 82.7517 79.7595 82.7391 79.6208C82.7391 71.6192 82.7391 63.6165 82.7391 55.6125C82.752 55.4568 82.7153 55.301 82.634 55.1669C82.5528 55.0328 82.4312 54.927 82.2862 54.8645C75.1024 50.8727 67.9222 46.8791 60.7457 42.8837C60.6212 42.7997 60.4738 42.7547 60.3229 42.7547C60.172 42.7547 60.0246 42.7997 59.9001 42.8837C52.7163 46.8779 45.5367 50.8733 38.3614 54.8699C38.2158 54.9309 38.0934 55.0357 38.0118 55.1693C37.9301 55.303 37.8933 55.4587 37.9067 55.6143C37.9067 63.6159 37.9067 71.6186 37.9067 79.6226C37.8942 79.7609 37.925 79.8997 37.9949 80.0202C38.0648 80.1407 38.1704 80.2372 38.2975 80.2967C40.214 81.3686 42.1311 82.4374 44.0488 83.5032C44.5806 83.8277 45.1758 84.0377 45.7955 84.1197C46.4151 84.2017 47.0454 84.1538 47.645 83.9791C48.1646 83.7858 48.612 83.4406 48.9276 82.9897C49.2432 82.5389 49.4119 82.0037 49.4111 81.4557C49.4202 73.4998 49.4111 65.5439 49.4111 57.5897C49.4089 57.5053 49.4249 57.4214 49.4579 57.3436C49.491 57.2657 49.5404 57.1956 49.6028 57.1379C49.6652 57.0802 49.7394 57.0361 49.8203 57.0087C49.9012 56.9813 49.9871 56.9711 50.0723 56.9787C50.9855 56.9787 51.9151 56.9661 52.8356 56.9787C52.9246 56.9828 53.0118 57.0053 53.0915 57.0447C53.1712 57.0841 53.2417 57.1396 53.2983 57.2075C53.3549 57.2754 53.3965 57.3544 53.4203 57.4391C53.4441 57.5239 53.4496 57.6127 53.4365 57.6997C53.4365 65.7061 53.4456 73.7125 53.4365 81.717C53.4977 82.8046 53.2623 83.8884 52.7547 84.8556C52.2472 85.8228 51.4861 86.638 50.5508 87.2162C49.3007 87.7912 47.9322 88.0711 46.5536 88.0338C45.175 87.9966 43.8241 87.6433 42.6078 87.0018C40.5001 85.9636 38.4893 84.7397 36.42 83.6276C35.7017 83.2578 35.0978 82.7037 34.6719 82.0236C34.246 81.3435 34.0139 80.5626 34 79.7632V55.4989C34.0062 54.7105 34.2263 53.938 34.6374 53.2619C35.0486 52.5858 35.6357 52.0307 36.3378 51.6544C43.5459 47.6421 50.7511 43.6275 57.9531 39.6105Z"
    fill="#8CC84B"></path>
  <path
    d="M64.2366 56.4154C67.4205 56.0086 70.6562 56.4972 73.5713 57.8249C74.6276 58.4468 75.501 59.3303 76.1049 60.3878C76.7088 61.4454 77.0222 62.6403 77.014 63.8542C76.9729 64.0061 76.8777 64.1381 76.7458 64.2262C76.614 64.3143 76.4543 64.3525 76.2962 64.3337C75.383 64.3337 74.4698 64.3463 73.5567 64.3337C73.3814 64.3225 73.2167 64.2473 73.0948 64.1226C72.9728 63.9979 72.9024 63.8328 72.8973 63.6596C72.794 63.0717 72.5623 62.5131 72.2182 62.0225C71.8741 61.532 71.4259 61.1212 70.9047 60.8188C69.1705 60.1392 67.2979 59.8749 65.4402 60.0474C64.0713 60.0051 62.7172 60.3376 61.528 61.0081C61.1185 61.3214 60.8188 61.7536 60.6711 62.2437C60.5233 62.7339 60.535 63.2574 60.7043 63.7407C60.9966 64.4274 61.8002 64.6419 62.4577 64.8528C66.2456 65.8298 70.2582 65.7324 73.9731 67.0158C74.7708 67.2343 75.5073 67.6303 76.1259 68.1734C76.7445 68.7164 77.2289 69.3921 77.5418 70.1485C77.9144 71.2219 78.0044 72.371 77.8034 73.4881C77.6025 74.6052 77.1172 75.6536 76.393 76.5347C75.0832 77.8766 73.3816 78.7814 71.5257 79.1231C69.1083 79.6076 66.6285 79.7116 64.1781 79.4314C61.8265 79.2991 59.5717 78.4621 57.7145 77.0322C56.9777 76.3659 56.3992 75.5471 56.0203 74.6345C55.6414 73.7218 55.4715 72.7377 55.5229 71.7527C55.5395 71.5935 55.6193 71.4472 55.7449 71.3458C55.8705 71.2445 56.0317 71.1964 56.1931 71.212C57.1063 71.212 58.0287 71.203 58.9473 71.212C59.0324 71.2101 59.117 71.2248 59.1962 71.2554C59.2754 71.286 59.3477 71.3318 59.4088 71.3901C59.47 71.4485 59.5188 71.5182 59.5524 71.5953C59.5861 71.6724 59.6039 71.7553 59.6049 71.8393C59.6507 72.399 59.8121 72.9436 60.0791 73.4396C60.346 73.9356 60.713 74.3724 61.1573 74.7233C63.1237 75.6781 65.321 76.0726 67.5022 75.8624C69.3278 75.9979 71.1497 75.5559 72.7037 74.6007C73.061 74.256 73.321 73.8253 73.4581 73.3512C73.5952 72.877 73.6046 72.3758 73.4854 71.8969C73.2626 71.0966 72.4133 70.7235 71.6846 70.4802C67.946 69.3122 63.8877 69.7358 60.1783 68.4163C59.4016 68.1921 58.6835 67.8043 58.0734 67.2796C57.4632 66.755 56.9757 66.1059 56.6443 65.3773C56.2188 64.2897 56.1113 63.106 56.3341 61.961C56.5569 60.816 57.101 59.7558 57.9045 58.901C59.6549 57.3761 61.8837 56.492 64.2165 56.3973L64.2366 56.4154Z"
    fill="#8CC84B"></path>
  <defs>
    <linearGradient id="nodejs" x1="30.5312" y1="14.1941" x2="91.8771" y2="117.004" gradientUnits="userSpaceOnUse">
      <stop stop-color="#3C3C42"></stop>
      <stop offset="1" stop-color="#323238" stop-opacity="0"></stop>
    </linearGradient>
    <linearGradient id="nodejs1" x1="14.9001" y1="18.5962" x2="111.316" y2="107.192" gradientUnits="userSpaceOnUse">
      <stop stop-color="#29292E"></stop>
      <stop offset="1" stop-color="#121214"></stop>
    </linearGradient>
  </defs>
</svg>
