<svg width="120" height="135" viewBox="0 0 120 135" fill="none" xmlns="http://www.w3.org/2000/svg"
  class="styles_icon__3I5e0">
  <path
    d="M54.1615 2.21437L53.7915 1.562L54.1615 2.21436C57.6414 0.240536 61.8964 0.263721 65.3552 2.27516L112.271 29.5607L112.648 28.9124L112.271 29.5607C115.811 31.6193 117.973 35.4445 117.924 39.5666L117.268 93.865C117.219 97.8384 115.121 101.497 111.734 103.523L65.3799 131.245C61.8659 133.346 57.5003 133.374 53.9614 131.316L7.04551 104.03L6.66845 104.678L7.04548 104.03C3.58615 102.018 1.43533 98.3143 1.39222 94.2858L0.80242 39.2625C0.757832 35.1019 2.96702 31.2503 6.56173 29.2114L54.1615 2.21437Z"
    fill="#121214" stroke="url(#andMore)" stroke-width="1.5"></path>
  <path
    d="M99.4468 38.9614L64.2601 19.1794C61.4931 17.6239 58.0885 17.6059 55.3045 19.1324L19.6047 38.7052C16.7294 40.2817 14.9647 43.2582 15.0003 46.471L15.4426 86.3629C15.4771 89.4738 17.1953 92.3361 19.9623 93.8915L55.1492 113.674C57.9804 115.265 61.4735 115.244 64.2846 113.619L99.05 93.5209C101.759 91.9545 103.435 89.127 103.474 86.0587L103.966 46.6923C104.006 43.5092 102.278 40.5531 99.4468 38.9614Z"
    fill="url(#andMore1)"></path>
  <path
    d="M47 66.0746C47 65.4819 47.1729 64.9879 47.5187 64.5928C47.8768 64.1976 48.4078 64 49.1117 64C49.8156 64 50.3466 64.1976 50.7047 64.5928C51.0752 64.9879 51.2604 65.4819 51.2604 66.0746C51.2604 66.6427 51.0752 67.1181 50.7047 67.501C50.3466 67.8838 49.8156 68.0752 49.1117 68.0752C48.4078 68.0752 47.8768 67.8838 47.5187 67.501C47.1729 67.1181 47 66.6427 47 66.0746Z"
    fill="#A8A8B3"></path>
  <path
    d="M57.0028 66.0746C57.0028 65.4819 57.1756 64.9879 57.5214 64.5928C57.8795 64.1976 58.4105 64 59.1144 64C59.8183 64 60.3494 64.1976 60.7075 64.5928C61.0779 64.9879 61.2632 65.4819 61.2632 66.0746C61.2632 66.6427 61.0779 67.1181 60.7075 67.501C60.3494 67.8838 59.8183 68.0752 59.1144 68.0752C58.4105 68.0752 57.8795 67.8838 57.5214 67.501C57.1756 67.1181 57.0028 66.6427 57.0028 66.0746Z"
    fill="#A8A8B3"></path>
  <path
    d="M67.0055 66.0746C67.0055 65.4819 67.1784 64.9879 67.5242 64.5928C67.8823 64.1976 68.4133 64 69.1172 64C69.8211 64 70.3521 64.1976 70.7102 64.5928C71.0807 64.9879 71.2659 65.4819 71.2659 66.0746C71.2659 66.6427 71.0807 67.1181 70.7102 67.501C70.3521 67.8838 69.8211 68.0752 69.1172 68.0752C68.4133 68.0752 67.8823 67.8838 67.5242 67.501C67.1784 67.1181 67.0055 66.6427 67.0055 66.0746Z"
    fill="#A8A8B3"></path>
  <defs>
    <linearGradient id="andMore" x1="30.5312" y1="14.1941" x2="91.8771" y2="117.004" gradientUnits="userSpaceOnUse">
      <stop stop-color="#3C3C42"></stop>
      <stop offset="1" stop-color="#323238" stop-opacity="0"></stop>
    </linearGradient>
    <linearGradient id="andMore1" x1="15.0202" y1="18.2629" x2="111.437" y2="106.859" gradientUnits="userSpaceOnUse">
      <stop stop-color="#29292E"></stop>
      <stop offset="1" stop-color="#121214"></stop>
    </linearGradient>
  </defs>
</svg>
