<svg width="120" height="135" viewBox="0 0 120 135" fill="none" xmlns="http://www.w3.org/2000/svg"
  class="styles_icon__3I5e0">
  <path
    d="M54.1615 2.21437L53.7915 1.562L54.1615 2.21436C57.6414 0.240536 61.8964 0.263721 65.3552 2.27516L112.271 29.5607L112.648 28.9124L112.271 29.5607C115.811 31.6193 117.973 35.4445 117.924 39.5666L117.268 93.865C117.219 97.8384 115.121 101.497 111.734 103.523L65.3799 131.245C61.8659 133.346 57.5003 133.374 53.9614 131.316L7.04551 104.03L6.66845 104.678L7.04548 104.03C3.58615 102.018 1.43533 98.3143 1.39222 94.2858L0.80242 39.2625C0.757832 35.1019 2.96702 31.2503 6.56173 29.2114L54.1615 2.21437Z"
    fill="#121214" stroke="url(#phoenix)" stroke-width="1.5"></path>
  <path
    d="M99.3267 39.2946L64.14 19.5126C61.373 17.9571 57.9684 17.9392 55.1844 19.4656L19.4846 39.0385C16.6093 40.6149 14.8445 43.5914 14.8802 46.8043L15.3225 86.6962C15.357 89.8071 17.0752 92.6693 19.8422 94.2247L55.0291 114.007C57.8603 115.599 61.3534 115.577 64.1645 113.952L98.9299 93.8541C101.639 92.2877 103.315 89.4603 103.354 86.3919L103.846 47.0255C103.886 43.8424 102.158 40.8863 99.3267 39.2946Z"
    fill="url(#paint1_linear)"></path>
  <mask id="phoenix1" fill="white">
    <path
      d="M52.7806 75.8971C52.525 75.8507 52.4249 75.8331 52.3247 75.8144C49.0876 75.207 47.0413 73.2306 46.0716 70.1235C45.4671 68.1869 46.5655 66.7607 48.5788 66.6667C50.2272 66.5897 51.3555 67.5457 52.3533 68.658C53.6395 70.0922 54.8185 71.6235 56.0818 73.0792C57.9007 75.1747 60.0437 76.5241 62.9759 76.1076C65.6052 75.7341 67.8964 74.6696 69.8901 72.9174C70.1899 72.654 70.5186 72.4245 70.8342 72.1793C70.7678 72.1004 70.7017 72.0215 70.6353 71.9427C68.9617 72.4671 67.2548 72.6433 65.5107 72.5548C62.8717 72.4209 60.3571 71.8649 58.1071 70.4031C56.054 69.069 54.5398 67.2814 53.8201 64.8938C53.2387 62.9649 54.4286 61.6155 56.4097 61.8944C57.1929 62.0046 57.8522 62.3605 58.444 62.8652C58.9259 63.2758 59.3881 63.711 59.8795 64.1092C62.1918 65.9839 65.4228 66.0882 68.3579 64.0528C63.5326 64.0306 60.2497 61.3526 57.3662 57.9587C56.2377 56.6303 55.1359 55.2782 53.9841 53.9709C51.7554 51.441 49.2829 49.2122 45.8974 48.4519C41.5728 47.4806 37.3977 48.1155 33.3902 49.9673C32.5911 50.3365 31.8238 50.7658 31 51.4575C31.4078 51.4575 31.6303 51.4625 31.8523 51.4568C33.8728 51.4042 35.3869 52.3101 36.479 53.9777C37.2737 55.1913 37.6483 56.5638 37.9337 57.9758C38.3574 60.0713 38.1381 62.2078 38.3828 64.3129C39.0117 69.7248 41.7531 73.5014 46.8576 75.4353C48.7294 76.1447 50.6493 76.3808 52.7806 75.8971ZM39.8803 51.2097C39.0738 51.415 38.4292 51.0865 37.7649 50.4082C38.9025 50.1223 39.9057 50.0114 40.9837 49.9687C40.8956 50.6748 40.4828 51.0565 39.8803 51.2097ZM66.3107 82.813C66.2404 82.292 65.7993 82.0625 65.4525 81.79C63.9182 80.5851 62.1238 80.1585 60.2214 80.1231C59.086 80.1021 57.9625 80.0166 56.8918 79.6149C56.4011 79.4309 55.8521 79.1946 55.8646 78.5547C55.877 77.9055 56.4369 77.722 56.9464 77.5683C57.3635 77.4426 57.794 77.3624 58.2688 77.2504C57.0626 76.4704 55.8843 76.3623 54.3142 76.9994C51.8426 78.002 49.4059 77.8831 46.9421 76.9854C45.551 76.4789 44.3164 75.6836 43.0311 74.9793L42.996 75.0038C43.0128 74.9921 43.0305 74.9798 43.0293 74.9804C42.9976 74.8826 42.9401 74.8801 42.8662 74.9347C42.9 74.9644 42.9335 74.9942 42.967 75.0239C44.033 76.7866 45.473 78.2048 47.0998 79.4168C50.2327 81.7507 53.6547 83.1426 57.6587 82.5249C58.9519 82.3254 60.2549 82.1706 61.5592 82.0646C63.1945 81.9313 64.7526 82.3956 66.3107 82.813ZM58.7618 57.5262C58.6753 57.4629 58.5921 57.304 58.4154 57.4684C59.8559 59.4343 61.7065 60.8835 63.9347 61.7959C67.5309 63.2682 71.1809 63.5201 74.9139 62.2208C77.8121 61.2123 79.8963 62.1977 80.9786 65.0369C81.1351 61.7415 79.2136 59.3403 76.153 58.8696C74.4311 58.6049 72.8413 59.1812 71.2284 59.6532C66.74 60.9663 62.569 60.318 58.7618 57.5262ZM81.1319 70.3795C81.7169 70.4291 82.3015 70.4826 82.8862 70.5343C81.5649 69.3632 79.9545 69.2704 78.3253 69.3639C75.8444 69.5061 74.0571 70.9497 72.4276 72.6744C70.9919 74.1945 69.6946 75.8998 67.552 76.5106C67.5878 76.5756 67.5971 76.608 67.6071 76.608C67.8953 76.6124 68.1841 76.6261 68.4716 76.6128C71.5835 76.4706 74.5149 75.8084 76.847 73.5298C77.5812 72.8122 78.2385 72.0151 78.9474 71.2704C79.5387 70.6493 80.2558 70.305 81.1319 70.3795ZM73.903 66.4884C71.5807 66.6932 69.5634 67.6625 67.6687 68.9405C66.2103 69.9242 64.6507 70.3896 62.898 70.0819C62.5896 70.0277 62.279 69.9873 61.9695 69.9404C61.9659 69.9841 61.9625 70.0275 61.9589 70.0712C62.0703 70.129 62.1779 70.1967 62.2939 70.2431C62.586 70.3597 62.8737 70.5 63.1769 70.5727C66.5495 71.3817 69.778 70.9673 72.6889 69.0702C74.5236 67.8744 76.4228 67.6479 78.4814 67.9567C78.6894 67.988 78.8964 68.0262 79.1053 68.0458C79.2988 68.0643 79.5009 68.2584 79.7621 68.0483C77.9626 66.7367 76.0241 66.3014 73.903 66.4884ZM65.6031 58.535C66.8213 58.5775 68.0341 58.4166 69.3083 57.6528C68.9352 57.6862 68.7768 57.6855 68.625 57.7161C66.8696 58.0691 65.2939 57.6828 63.8903 56.5631C63.3753 56.1521 62.8517 55.7521 62.3302 55.3495C60.2626 53.7539 57.8916 53.2202 55.2981 53.2654C55.3401 53.3941 55.3426 53.4824 55.3876 53.5281C58.2095 56.4079 61.4754 58.3914 65.6031 58.535ZM86.0259 73.3108C84.2796 71.5632 81.936 71.338 79.7673 72.8632C81.2029 72.9284 82.2804 73.3903 83.1542 74.3034C83.4635 74.6264 83.7841 74.9434 84.13 75.225C85.4514 76.3003 87.6914 76.352 89 75.3544C87.4628 74.7491 87.4628 74.7491 86.0259 73.3108ZM68.6334 86.6938C67.0987 83.8115 64.5192 83.1611 61.5395 83.3545C62.4204 83.6009 63.243 83.9802 63.9979 84.5119C64.6914 85.0004 65.2751 85.6052 65.8503 86.2247C66.9901 87.452 68.7691 88.2053 69.9479 87.9506C69.4067 87.6063 68.9259 87.2429 68.6334 86.6938ZM82.9138 70.5937C82.9143 70.5754 82.9148 70.5569 82.9159 70.5377C82.9159 70.5375 82.9136 70.54 82.9114 70.5425L82.9163 70.537C82.9064 70.5361 82.8962 70.5352 82.8862 70.5343C82.8921 70.5398 82.8984 70.5441 82.9043 70.5496C82.9075 70.5642 82.9107 70.5791 82.9138 70.5937ZM66.3959 82.8809C66.3757 82.8692 66.3555 82.8578 66.3354 82.8463C66.3381 82.8594 66.3413 82.8722 66.3481 82.8827C66.3521 82.8895 66.3793 82.8818 66.3959 82.8809ZM66.3354 82.8463C66.3336 82.837 66.332 82.8274 66.3295 82.818C66.3295 82.818 66.3261 82.8223 66.3225 82.8267L66.3295 82.8182C66.3234 82.8164 66.317 82.8148 66.3107 82.813C66.3118 82.8207 66.3145 82.8271 66.3154 82.8351C66.3222 82.8388 66.3288 82.8427 66.3354 82.8463Z">
    </path>
  </mask>
  <path
    d="M52.7806 75.8971C52.525 75.8507 52.4249 75.8331 52.3247 75.8144C49.0876 75.207 47.0413 73.2306 46.0716 70.1235C45.4671 68.1869 46.5655 66.7607 48.5788 66.6667C50.2272 66.5897 51.3555 67.5457 52.3533 68.658C53.6395 70.0922 54.8185 71.6235 56.0818 73.0792C57.9007 75.1747 60.0437 76.5241 62.9759 76.1076C65.6052 75.7341 67.8964 74.6696 69.8901 72.9174C70.1899 72.654 70.5186 72.4245 70.8342 72.1793C70.7678 72.1004 70.7017 72.0215 70.6353 71.9427C68.9617 72.4671 67.2548 72.6433 65.5107 72.5548C62.8717 72.4209 60.3571 71.8649 58.1071 70.4031C56.054 69.069 54.5398 67.2814 53.8201 64.8938C53.2387 62.9649 54.4286 61.6155 56.4097 61.8944C57.1929 62.0046 57.8522 62.3605 58.444 62.8652C58.9259 63.2758 59.3881 63.711 59.8795 64.1092C62.1918 65.9839 65.4228 66.0882 68.3579 64.0528C63.5326 64.0306 60.2497 61.3526 57.3662 57.9587C56.2377 56.6303 55.1359 55.2782 53.9841 53.9709C51.7554 51.441 49.2829 49.2122 45.8974 48.4519C41.5728 47.4806 37.3977 48.1155 33.3902 49.9673C32.5911 50.3365 31.8238 50.7658 31 51.4575C31.4078 51.4575 31.6303 51.4625 31.8523 51.4568C33.8728 51.4042 35.3869 52.3101 36.479 53.9777C37.2737 55.1913 37.6483 56.5638 37.9337 57.9758C38.3574 60.0713 38.1381 62.2078 38.3828 64.3129C39.0117 69.7248 41.7531 73.5014 46.8576 75.4353C48.7294 76.1447 50.6493 76.3808 52.7806 75.8971ZM39.8803 51.2097C39.0738 51.415 38.4292 51.0865 37.7649 50.4082C38.9025 50.1223 39.9057 50.0114 40.9837 49.9687C40.8956 50.6748 40.4828 51.0565 39.8803 51.2097ZM66.3107 82.813C66.2404 82.292 65.7993 82.0625 65.4525 81.79C63.9182 80.5851 62.1238 80.1585 60.2214 80.1231C59.086 80.1021 57.9625 80.0166 56.8918 79.6149C56.4011 79.4309 55.8521 79.1946 55.8646 78.5547C55.877 77.9055 56.4369 77.722 56.9464 77.5683C57.3635 77.4426 57.794 77.3624 58.2688 77.2504C57.0626 76.4704 55.8843 76.3623 54.3142 76.9994C51.8426 78.002 49.4059 77.8831 46.9421 76.9854C45.551 76.4789 44.3164 75.6836 43.0311 74.9793L42.996 75.0038C43.0128 74.9921 43.0305 74.9798 43.0293 74.9804C42.9976 74.8826 42.9401 74.8801 42.8662 74.9347C42.9 74.9644 42.9335 74.9942 42.967 75.0239C44.033 76.7866 45.473 78.2048 47.0998 79.4168C50.2327 81.7507 53.6547 83.1426 57.6587 82.5249C58.9519 82.3254 60.2549 82.1706 61.5592 82.0646C63.1945 81.9313 64.7526 82.3956 66.3107 82.813ZM58.7618 57.5262C58.6753 57.4629 58.5921 57.304 58.4154 57.4684C59.8559 59.4343 61.7065 60.8835 63.9347 61.7959C67.5309 63.2682 71.1809 63.5201 74.9139 62.2208C77.8121 61.2123 79.8963 62.1977 80.9786 65.0369C81.1351 61.7415 79.2136 59.3403 76.153 58.8696C74.4311 58.6049 72.8413 59.1812 71.2284 59.6532C66.74 60.9663 62.569 60.318 58.7618 57.5262ZM81.1319 70.3795C81.7169 70.4291 82.3015 70.4826 82.8862 70.5343C81.5649 69.3632 79.9545 69.2704 78.3253 69.3639C75.8444 69.5061 74.0571 70.9497 72.4276 72.6744C70.9919 74.1945 69.6946 75.8998 67.552 76.5106C67.5878 76.5756 67.5971 76.608 67.6071 76.608C67.8953 76.6124 68.1841 76.6261 68.4716 76.6128C71.5835 76.4706 74.5149 75.8084 76.847 73.5298C77.5812 72.8122 78.2385 72.0151 78.9474 71.2704C79.5387 70.6493 80.2558 70.305 81.1319 70.3795ZM73.903 66.4884C71.5807 66.6932 69.5634 67.6625 67.6687 68.9405C66.2103 69.9242 64.6507 70.3896 62.898 70.0819C62.5896 70.0277 62.279 69.9873 61.9695 69.9404C61.9659 69.9841 61.9625 70.0275 61.9589 70.0712C62.0703 70.129 62.1779 70.1967 62.2939 70.2431C62.586 70.3597 62.8737 70.5 63.1769 70.5727C66.5495 71.3817 69.778 70.9673 72.6889 69.0702C74.5236 67.8744 76.4228 67.6479 78.4814 67.9567C78.6894 67.988 78.8964 68.0262 79.1053 68.0458C79.2988 68.0643 79.5009 68.2584 79.7621 68.0483C77.9626 66.7367 76.0241 66.3014 73.903 66.4884ZM65.6031 58.535C66.8213 58.5775 68.0341 58.4166 69.3083 57.6528C68.9352 57.6862 68.7768 57.6855 68.625 57.7161C66.8696 58.0691 65.2939 57.6828 63.8903 56.5631C63.3753 56.1521 62.8517 55.7521 62.3302 55.3495C60.2626 53.7539 57.8916 53.2202 55.2981 53.2654C55.3401 53.3941 55.3426 53.4824 55.3876 53.5281C58.2095 56.4079 61.4754 58.3914 65.6031 58.535ZM86.0259 73.3108C84.2796 71.5632 81.936 71.338 79.7673 72.8632C81.2029 72.9284 82.2804 73.3903 83.1542 74.3034C83.4635 74.6264 83.7841 74.9434 84.13 75.225C85.4514 76.3003 87.6914 76.352 89 75.3544C87.4628 74.7491 87.4628 74.7491 86.0259 73.3108ZM68.6334 86.6938C67.0987 83.8115 64.5192 83.1611 61.5395 83.3545C62.4204 83.6009 63.243 83.9802 63.9979 84.5119C64.6914 85.0004 65.2751 85.6052 65.8503 86.2247C66.9901 87.452 68.7691 88.2053 69.9479 87.9506C69.4067 87.6063 68.9259 87.2429 68.6334 86.6938ZM82.9138 70.5937C82.9143 70.5754 82.9148 70.5569 82.9159 70.5377C82.9159 70.5375 82.9136 70.54 82.9114 70.5425L82.9163 70.537C82.9064 70.5361 82.8962 70.5352 82.8862 70.5343C82.8921 70.5398 82.8984 70.5441 82.9043 70.5496C82.9075 70.5642 82.9107 70.5791 82.9138 70.5937ZM66.3959 82.8809C66.3757 82.8692 66.3555 82.8578 66.3354 82.8463C66.3381 82.8594 66.3413 82.8722 66.3481 82.8827C66.3521 82.8895 66.3793 82.8818 66.3959 82.8809ZM66.3354 82.8463C66.3336 82.837 66.332 82.8274 66.3295 82.818C66.3295 82.818 66.3261 82.8223 66.3225 82.8267L66.3295 82.8182C66.3234 82.8164 66.317 82.8148 66.3107 82.813C66.3118 82.8207 66.3145 82.8271 66.3154 82.8351C66.3222 82.8388 66.3288 82.8427 66.3354 82.8463Z"
    stroke="#E95222" stroke-width="6" mask="url(#phoenix1)"></path>
  <defs>
    <linearGradient id="phoenix" x1="30.5312" y1="14.1941" x2="91.8771" y2="117.004" gradientUnits="userSpaceOnUse">
      <stop stop-color="#3C3C42"></stop>
      <stop offset="1" stop-color="#323238" stop-opacity="0"></stop>
    </linearGradient>
    <linearGradient id="paint1_linear" x1="14.9001" y1="18.5962" x2="111.316" y2="107.192"
      gradientUnits="userSpaceOnUse">
      <stop stop-color="#29292E"></stop>
      <stop offset="1" stop-color="#121214"></stop>
    </linearGradient>
  </defs>
</svg>
