<svg width="120" height="135" viewBox="0 0 120 135" fill="none" xmlns="http://www.w3.org/2000/svg"
  class="styles_icon__3I5e0">
  <path
    d="M54.1615 2.21437L53.7915 1.562L54.1615 2.21436C57.6414 0.240536 61.8964 0.263721 65.3552 2.27516L112.271 29.5607L112.648 28.9124L112.271 29.5607C115.811 31.6193 117.973 35.4445 117.924 39.5666L117.268 93.865C117.219 97.8384 115.121 101.497 111.734 103.523L65.3799 131.245C61.8659 133.346 57.5003 133.374 53.9614 131.316L7.04551 104.03L6.66845 104.678L7.04548 104.03C3.58615 102.018 1.43533 98.3143 1.39222 94.2858L0.80242 39.2625C0.757832 35.1019 2.96702 31.2503 6.56173 29.2114L54.1615 2.21437Z"
    fill="#121214" stroke="url(#react)" stroke-width="1.5"></path>
  <path
    d="M99.3267 39.2946L64.14 19.5126C61.373 17.9571 57.9684 17.9392 55.1844 19.4656L19.4846 39.0385C16.6093 40.6149 14.8445 43.5914 14.8802 46.8043L15.3225 86.6962C15.357 89.8071 17.0752 92.6693 19.8422 94.2247L55.0291 114.007C57.8603 115.599 61.3534 115.577 64.1645 113.952L98.9299 93.8541C101.639 92.2877 103.315 89.4603 103.354 86.3919L103.846 47.0255C103.886 43.8424 102.158 40.8863 99.3267 39.2946Z"
    fill="url(#react1)"></path>
  <path
    d="M61.6684 88.8857C61.1529 88.4026 60.615 87.9179 60.1011 87.3809C59.6904 87.7832 59.3055 88.1602 58.8982 88.5356C53.8131 93.181 48.5717 95.1148 45.4646 93.2348C42.459 91.4356 41.5121 86.1203 42.715 79.4333C42.8434 78.7084 42.9975 77.9836 43.1773 77.2587C42.6377 77.0904 42.1239 76.9356 41.61 76.7538C35.2121 74.4395 31 70.6811 31 66.921C31 63.2973 34.9302 59.7796 41.0687 57.5242C41.7561 57.2818 42.4813 57.0412 43.2272 56.8257C43.0553 56.1272 42.9195 55.4557 42.7907 54.806C41.5052 48.018 42.404 42.595 45.4354 40.7688C48.594 38.8349 53.8355 40.9035 59.0993 45.7626C59.4069 46.0572 59.7162 46.3803 60.0496 46.7018C60.5376 46.2188 60.9999 45.7357 61.488 45.3065C66.4716 40.7621 71.4278 38.8619 74.4592 40.688C77.6179 42.5664 78.5441 48.3664 77.1315 55.5365C77.0542 55.9943 76.9597 56.4235 76.8497 56.8829C77.4924 57.0715 78.1334 57.2852 78.7246 57.5007C84.992 59.756 89.0511 63.2737 88.9995 66.9783C88.9995 70.7636 84.6586 74.4967 78.0011 76.806C77.6419 76.9137 77.2828 77.0483 76.9219 77.1544C77.0765 77.6913 77.1779 78.2282 77.281 78.7651C78.6163 85.7197 77.5886 91.412 74.4816 93.292C73.6656 93.7732 72.7272 94.0182 71.7749 93.9989C68.9274 93.9939 65.3117 92.1576 61.6684 88.8857ZM66.7036 79.031C65.2282 81.279 63.6066 83.4316 61.8489 85.4757C62.3369 85.9806 62.825 86.4435 63.313 86.8726C67.5509 90.6849 71.4553 92.1088 73.2804 91.0081C73.8377 90.5379 74.2931 89.9631 74.6196 89.3175C74.946 88.6719 75.137 87.9688 75.181 87.2497C75.5518 84.5851 75.4472 81.8776 74.8717 79.2481C74.7944 78.7651 74.6998 78.282 74.5641 77.7721C71.976 78.3653 69.3498 78.7859 66.7036 79.031ZM45.1777 79.8911C44.1259 85.6137 44.8958 89.8787 46.7243 90.9811C47.3721 91.2463 48.0715 91.3686 48.773 91.3396C49.4745 91.3105 50.1608 91.1306 50.7834 90.8128C53.2055 89.8158 55.4114 88.3758 57.2828 86.5697C57.6677 86.2465 58.0269 85.8712 58.4136 85.4959C56.6172 83.4512 54.9528 81.2988 53.4299 79.0512C50.7938 78.8356 48.176 78.4419 45.5953 77.873C45.4354 78.5749 45.3065 79.2448 45.1777 79.8911ZM60.1286 83.6495C61.2594 82.3333 62.3885 80.8841 63.5193 79.2734C62.3885 79.3273 61.2079 79.3542 60.0255 79.3542C58.8432 79.3542 57.7399 79.3273 56.6349 79.2734C57.7898 80.8555 58.9463 82.3333 60.1269 83.6495H60.1286ZM54.7325 57.4434C53.7564 58.9195 52.8061 60.473 51.9073 62.1157C51.0085 63.7265 50.1888 65.3642 49.4413 66.9968C50.2129 68.6075 51.0343 70.2452 51.9331 71.9115C52.8319 73.5222 53.7822 75.1094 54.7583 76.609C56.4528 76.7167 58.2263 76.7773 60.0238 76.7773C61.8214 76.7773 63.6189 76.7235 65.3409 76.5905C66.2654 75.1144 67.2158 73.5289 68.1162 71.8913C69.0167 70.2536 69.8623 68.589 70.6081 66.9783C69.8623 65.3945 69.015 63.7568 68.1162 62.1174C67.2175 60.4781 66.2671 58.9195 65.3168 57.4451C63.5983 57.3105 61.8231 57.2297 60.0255 57.2297C58.228 57.2297 56.4545 57.3088 54.7325 57.4434ZM46.2569 75.4056C48.0193 75.7999 49.8031 76.096 51.5997 76.2926C50.9828 75.2726 50.3675 74.251 49.7764 73.1772C49.211 72.1303 48.6456 71.0834 48.1318 70.0365C47.3877 71.861 46.7707 73.6636 46.2569 75.4056ZM70.273 73.1502C69.6818 74.2241 69.0906 75.244 68.5012 76.2387C70.3247 76.015 72.1342 75.6924 73.9214 75.2726C73.3634 73.4601 72.7118 71.6766 71.9691 69.9288C71.4295 71.0026 70.8641 72.0764 70.273 73.1502ZM41.8644 59.9933C36.6247 61.9272 33.4661 64.7431 33.4661 66.948C33.5659 67.6573 33.8079 68.3403 34.178 68.9579C34.5481 69.5754 35.0391 70.1153 35.6228 70.5465C37.6275 72.1976 39.9265 73.4718 42.404 74.3048C42.8663 74.4732 43.3543 74.6011 43.8424 74.7627C44.6314 72.1216 45.5835 69.5298 46.6934 67.0018C45.5814 64.5171 44.6376 61.9633 43.8682 59.3571C43.175 59.5389 42.5071 59.751 41.8644 59.9933ZM73.3818 66.948C74.5216 69.4439 75.4974 72.0085 76.3032 74.6263C76.6383 74.5186 76.9717 74.4109 77.2793 74.3032C83.0071 72.3171 86.5592 69.2824 86.5781 66.9194C86.5781 64.7178 83.2906 61.87 77.922 59.9378C77.3824 59.751 76.793 59.5625 76.2035 59.374C75.4253 61.9539 74.4829 64.4835 73.3818 66.948ZM70.2489 60.7726C70.8401 61.8464 71.4055 62.895 71.9176 63.9419C72.6312 62.231 73.2485 60.4829 73.7667 58.7058C72.022 58.2906 70.2557 57.9681 68.4754 57.7397C69.0924 58.731 69.6818 59.7257 70.2472 60.7726H70.2489ZM46.2827 58.6839C46.7982 60.4023 47.4134 62.1477 48.1318 63.9453C48.6473 62.8984 49.211 61.8515 49.7764 60.8046C50.3418 59.7577 50.9312 58.7377 51.5482 57.743C49.699 57.9803 47.953 58.3018 46.2827 58.6839ZM63.1068 47.2724C62.6703 47.6746 62.2338 48.1038 61.7956 48.5347C63.5793 50.5536 65.2186 52.6906 66.7019 54.9305C69.3159 55.1777 71.9084 55.6085 74.4592 56.2198C74.5624 55.8175 74.6311 55.4136 74.717 55.0113C75.92 48.836 75.1793 44.1098 73.2271 42.9299C72.7986 42.6944 72.3125 42.578 71.8213 42.5933C69.7231 42.5832 66.5026 44.1839 63.1068 47.2673V47.2724ZM46.6676 42.9973C44.8443 44.098 44.1242 48.501 45.2034 54.3011C45.3323 54.9188 45.4612 55.5348 45.6142 56.1794C48.1685 55.5906 50.76 55.1689 53.3715 54.9171C54.8601 52.6743 56.5082 50.5371 58.3036 48.5212C58.0218 48.225 57.7124 47.9574 57.4306 47.6881C53.8561 44.3774 50.4191 42.6304 48.1747 42.6304C47.6473 42.6127 47.1253 42.7398 46.6676 42.9973ZM63.466 54.7033C62.4067 53.2022 61.2639 51.7593 60.0427 50.3811C58.8879 51.6956 57.7313 53.1464 56.6057 54.7033C57.7365 54.6495 58.8655 54.6225 60.0221 54.6225C61.1786 54.6225 62.3369 54.6444 63.4677 54.7033H63.466ZM54.8872 67.0557C54.8631 66.3656 54.9783 65.6776 55.2262 65.0312C55.4741 64.3848 55.8498 63.7927 56.3317 63.2887C56.8137 62.7848 57.3925 62.379 58.0349 62.0945C58.6773 61.81 59.3707 61.6525 60.0754 61.631C61.4972 61.6785 62.8418 62.2761 63.8143 63.293C64.7869 64.3099 65.308 65.663 65.2635 67.0557C65.3094 68.4495 64.7886 69.8041 63.8156 70.8222C62.8425 71.8402 61.4967 72.4384 60.0737 72.4854C59.3686 72.4639 58.6748 72.3062 58.0322 72.0214C57.3895 71.7366 56.8106 71.3303 56.3287 70.8258C55.8468 70.3213 55.4714 69.7285 55.224 69.0815C54.9767 68.4346 54.8622 67.7461 54.8872 67.0557Z"
    fill="#4DBCD6"></path>
  <defs>
    <linearGradient id="react" x1="30.5312" y1="14.1941" x2="91.8771" y2="117.004" gradientUnits="userSpaceOnUse">
      <stop stop-color="#3C3C42"></stop>
      <stop offset="1" stop-color="#323238" stop-opacity="0"></stop>
    </linearGradient>
    <linearGradient id="react1" x1="14.9001" y1="18.5962" x2="111.316" y2="107.192" gradientUnits="userSpaceOnUse">
      <stop stop-color="#29292E"></stop>
      <stop offset="1" stop-color="#121214"></stop>
    </linearGradient>
  </defs>
</svg>
