<svg width="120" height="135" viewBox="0 0 120 135" fill="none" xmlns="http://www.w3.org/2000/svg"
  class="styles_icon__3I5e0">
  <path
    d="M54.1615 2.21437L53.7915 1.562L54.1615 2.21436C57.6414 0.240536 61.8964 0.263721 65.3552 2.27516L112.271 29.5607L112.648 28.9124L112.271 29.5607C115.811 31.6193 117.973 35.4445 117.924 39.5666L117.268 93.865C117.219 97.8384 115.121 101.497 111.734 103.523L65.3799 131.245C61.8659 133.346 57.5003 133.374 53.9614 131.316L7.04551 104.03L6.66845 104.678L7.04548 104.03C3.58615 102.018 1.43533 98.3143 1.39222 94.2858L0.80242 39.2625C0.757832 35.1019 2.96702 31.2503 6.56173 29.2114L54.1615 2.21437Z"
    fill="#121214" stroke="url(#typescript)" stroke-width="1.5"></path>
  <path
    d="M99.3267 39.2946L64.14 19.5126C61.373 17.9571 57.9684 17.9392 55.1844 19.4656L19.4846 39.0385C16.6093 40.6149 14.8445 43.5914 14.8802 46.8043L15.3225 86.6962C15.357 89.8071 17.0752 92.6693 19.8422 94.2247L55.0291 114.007C57.8603 115.599 61.3534 115.577 64.1645 113.952L98.9299 93.8541C101.639 92.2877 103.315 89.4603 103.354 86.3919L103.846 47.0255C103.886 43.8424 102.158 40.8863 99.3267 39.2946Z"
    fill="url(#typescript1)"></path>
  <path
    d="M73.2256 54.0905C72.7062 54.0342 72.0158 54.002 71.4082 54.0001C71.0437 53.999 70.7085 54.0085 70.4584 54.0322C68.5027 54.2021 66.6762 55.0562 65.4259 56.3852C64.7995 57.051 64.232 58.0057 63.9548 58.8604C63.831 59.2421 63.7578 59.4662 63.7146 59.6959C63.6512 60.033 63.6524 60.3822 63.6534 61.2599C63.6549 63.145 63.7506 63.6117 64.3919 64.8654C65.0367 66.126 66.0192 67.1559 67.4368 68.0568C68.0579 68.4516 69.649 69.245 70.9481 69.8077C73.7762 71.0328 74.6708 71.5982 75.0859 72.4223L75.2573 72.7623V73.475C75.2573 74.1626 75.2546 74.198 75.1147 74.4814C74.7958 75.1374 74.043 75.6744 73.0787 75.934C72.7141 76.0319 72.5469 76.0456 71.732 76.0459C70.9344 76.0459 70.7408 76.0297 70.3753 75.9385C69.737 75.7772 69.1995 75.5536 68.779 75.2752C68.2644 74.9343 67.252 73.9126 66.8403 73.3182C66.6586 73.0557 66.4763 72.8408 66.4354 72.8408C66.3677 72.8408 62.8778 74.8358 62.2689 75.2227C62.0635 75.3532 62.0117 75.4126 62.0117 75.5172C62.0117 75.734 62.8271 76.966 63.4657 77.7146C64.7668 79.2397 67.3761 80.5848 69.6875 80.9214C70.601 81.0544 72.119 81.0975 73.1794 81.0194C73.8741 80.9685 74.5763 80.8363 75.331 80.6151C78.0612 79.8144 79.9239 78.1131 80.6141 75.7898C80.8956 74.842 81.0092 73.6763 80.9162 72.6927C80.7257 70.6749 80.1054 69.2482 78.8811 68.0127C77.7442 66.8653 76.1831 65.9408 73.1027 64.5901C70.4318 63.4189 69.7349 62.9641 69.3499 62.1414C69.0176 61.4313 69.0807 60.4537 69.4988 59.8464C69.988 59.1354 70.9868 58.7844 72.1003 58.9319C73.1358 59.0687 73.8055 59.479 74.4615 60.378C74.8022 60.845 75.0384 61.0881 75.1519 61.0881C75.2637 61.0881 75.7455 60.7908 77.2407 59.7981C78.7629 58.7876 79.2417 58.4447 79.2745 58.3413C79.3253 58.1811 79.0866 57.8065 78.3888 56.9504C76.9876 55.2317 75.3405 54.3193 73.2256 54.0905Z"
    fill="#0288D1"></path>
  <path
    d="M60.5412 54.3283C60.5065 54.3065 58.3469 54.2935 54.5805 54.2916C53.325 54.2908 51.8911 54.2915 50.2976 54.2931C42.0331 54.3013 40.1151 54.315 40.0634 54.3683C40.0131 54.4187 40 54.9252 40 56.8167V59.2016L47.5165 59.2286L47.5175 69.8668C47.5178 75.7178 47.5311 80.5546 47.5493 80.6152L47.5775 80.7256H50.3088C52.7542 80.7256 53.0432 80.7201 53.0698 80.6483C53.0861 80.6056 53.098 75.7689 53.098 69.8999V59.2292L60.6146 59.2019V56.7884C60.6146 54.6964 60.6064 54.3687 60.5412 54.3283Z"
    fill="#0288D1"></path>
  <defs>
    <linearGradient id="typescript" x1="30.5312" y1="14.1941" x2="91.8771" y2="117.004" gradientUnits="userSpaceOnUse">
      <stop stop-color="#3C3C42"></stop>
      <stop offset="1" stop-color="#323238" stop-opacity="0"></stop>
    </linearGradient>
    <linearGradient id="typescript1" x1="14.9001" y1="18.5962" x2="111.316" y2="107.192" gradientUnits="userSpaceOnUse">
      <stop stop-color="#29292E"></stop>
      <stop offset="1" stop-color="#121214"></stop>
    </linearGradient>
  </defs>
</svg>
