<svg width="258" height="81" viewBox="0 0 258 81" fill="none" xmlns="http://www.w3.org/2000/svg"
  class="styles_boostingPeople__1P2We">
  <path
    d="M65.1284 1.56081L54.4687 0.016432C54.1533 -0.0453432 53.8379 0.0781997 53.7118 0.20175L49.1704 6.00861C48.855 6.37927 48.7919 6.87347 48.9181 7.3059C49.0442 7.73832 48.6658 8.10898 48.2242 8.04721L44.5028 7.24412C43.9351 7.12057 43.3044 7.30591 42.9259 7.80011L28.1663 26.3327C27.914 26.7033 27.4094 26.8269 26.9679 26.6415L21.3542 24.1705C20.8496 23.9234 20.2819 23.9852 19.8404 24.2941L17.002 26.2091C16.5605 26.518 15.9297 26.5798 15.4251 26.3327L14.0374 25.6531C13.1544 25.2207 12.0821 25.7149 11.8298 26.6415L10.8206 31.0276C10.5683 32.0777 11.0098 33.1279 11.956 33.6839L14.1005 34.9812L20.9757 39.1201L24.3187 41.1587C25.2648 41.7147 26.4633 41.5911 27.2832 40.9116L32.8969 36.0931C33.3385 35.7225 34.0323 35.5989 34.5369 35.9078L36.2399 36.7727C36.8076 37.0815 37.5014 36.958 37.943 36.5256L40.7814 33.931C41.2229 33.4986 41.9167 33.4368 42.4213 33.6839L46.6474 35.5989C47.2781 35.9078 48.035 35.7225 48.4765 35.1665L50.4319 32.6955L65.2545 14.1012C65.9484 13.2363 65.5068 11.939 64.3715 11.6919L61.0916 10.9506C60.3978 10.8271 60.0824 9.96223 60.587 9.46803L65.6961 3.22873C66.2007 2.48743 65.8853 1.68436 65.1284 1.56081Z"
    fill="#8257E6"></path>
  <path
    d="M16.2444 38.9954C15.929 38.8101 15.6136 39.1189 15.7398 39.4278L17.3167 43.505C17.4428 43.8139 17.4428 44.1227 17.3797 44.4316L15.9921 49.7443C15.929 50.1149 16.0552 50.4856 16.3075 50.6709L20.2812 53.6979C20.6597 53.945 21.1642 53.945 21.4796 53.6361L25.6426 50.0531C25.8949 49.8678 26.2103 49.7443 26.4626 49.6825L31.1932 49.1883C31.5086 49.1265 31.6347 48.6941 31.3194 48.5088L16.2444 38.9954Z"
    fill="#8257E6"></path>
  <path
    d="M14.8571 52.7093C14.6048 52.524 14.2263 52.4622 13.9109 52.5858L10.568 54.1919C10.3787 54.2537 10.2526 54.439 10.1264 54.6243L2.99892 71.8596C2.99892 71.9214 2.99892 71.9214 2.99892 71.9832C3.062 72.0449 3.12507 72.1067 3.25122 72.1067L4.89118 71.489C4.95426 71.489 5.01732 71.489 5.0804 71.489C5.14348 71.5507 5.20655 71.6743 5.14348 71.7361L0.0343808 79.9522C-0.0917697 80.1375 0.160537 80.3228 0.286688 80.1375L18.7677 61.9756C18.957 61.7903 19.02 61.6049 19.0831 61.3578L19.4616 56.6629C19.4616 56.354 19.3354 56.1069 19.1462 55.9216L14.8571 52.7093Z"
    fill="#8257E6"></path>
  <path
    d="M102.368 32.5903V4.07708H112.249C115.672 4.07708 118.268 4.74291 120.037 6.07457C121.807 7.39318 122.691 9.33193 122.691 11.8908C122.691 13.2877 122.336 14.5215 121.626 15.592C120.915 16.6495 119.927 17.4263 118.662 17.9225C120.108 18.288 121.245 19.0256 122.071 20.1354C122.911 21.2451 123.331 22.6029 123.331 24.2087C123.331 26.9503 122.465 29.0262 120.735 30.4362C119.004 31.8462 116.537 32.5642 113.334 32.5903H102.368ZM108.18 20.1745V27.8708H113.159C114.528 27.8708 115.594 27.5444 116.356 26.8916C117.131 26.2258 117.519 25.3119 117.519 24.1499C117.519 21.5388 116.182 20.2137 113.508 20.1745H108.18ZM108.18 16.0229H112.481C115.413 15.9707 116.879 14.7891 116.879 12.4783C116.879 11.1858 116.505 10.2589 115.755 9.69748C115.019 9.12304 113.85 8.83582 112.249 8.83582H108.18V16.0229Z"
    fill="#E1E1E6"></path>
  <path
    d="M126.469 21.7999C126.469 19.698 126.87 17.8245 127.67 16.1795C128.471 14.5345 129.621 13.2616 131.119 12.3608C132.63 11.46 134.38 11.0096 136.369 11.0096C139.198 11.0096 141.503 11.8843 143.286 13.6337C145.081 15.3832 146.082 17.7593 146.289 20.762L146.328 22.2112C146.328 25.462 145.43 28.0731 143.635 30.0445C141.839 32.0028 139.43 32.982 136.408 32.982C133.386 32.982 130.97 32.0028 129.162 30.0445C127.367 28.0862 126.469 25.4228 126.469 22.0545V21.7999ZM132.068 22.2112C132.068 24.2217 132.443 25.7623 133.192 26.8328C133.941 27.8903 135.013 28.4191 136.408 28.4191C137.764 28.4191 138.823 27.8969 139.585 26.8524C140.347 25.7949 140.728 24.1108 140.728 21.7999C140.728 19.8286 140.347 18.3011 139.585 17.2175C138.823 16.1338 137.751 15.592 136.369 15.592C135 15.592 133.941 16.1338 133.192 17.2175C132.443 18.288 132.068 19.9526 132.068 22.2112Z"
    fill="#E1E1E6"></path>
  <path
    d="M148.904 21.7999C148.904 19.698 149.305 17.8245 150.105 16.1795C150.906 14.5345 152.056 13.2616 153.554 12.3608C155.065 11.46 156.815 11.0096 158.804 11.0096C161.633 11.0096 163.938 11.8843 165.721 13.6337C167.516 15.3832 168.517 17.7593 168.724 20.762L168.763 22.2112C168.763 25.462 167.865 28.0731 166.07 30.0445C164.274 32.0028 161.865 32.982 158.843 32.982C155.821 32.982 153.406 32.0028 151.597 30.0445C149.802 28.0862 148.904 25.4228 148.904 22.0545V21.7999ZM154.503 22.2112C154.503 24.2217 154.878 25.7623 155.627 26.8328C156.376 27.8903 157.448 28.4191 158.843 28.4191C160.199 28.4191 161.258 27.8969 162.02 26.8524C162.782 25.7949 163.164 24.1108 163.164 21.7999C163.164 19.8286 162.782 18.3011 162.02 17.2175C161.258 16.1338 160.186 15.592 158.804 15.592C157.435 15.592 156.376 16.1338 155.627 17.2175C154.878 18.288 154.503 19.9526 154.503 22.2112Z"
    fill="#E1E1E6"></path>
  <path
    d="M183.564 26.7349C183.564 26.043 183.222 25.5012 182.537 25.1095C181.866 24.7048 180.781 24.3458 179.283 24.0324C174.297 22.9749 171.804 20.8338 171.804 17.6091C171.804 15.7291 172.573 14.1625 174.11 12.9091C175.66 11.6428 177.681 11.0096 180.174 11.0096C182.835 11.0096 184.959 11.6428 186.548 12.9091C188.149 14.1755 188.95 15.8205 188.95 17.8441H183.351C183.351 17.0347 183.093 16.3688 182.576 15.8466C182.06 15.3114 181.252 15.0437 180.154 15.0437C179.212 15.0437 178.482 15.2591 177.965 15.69C177.449 16.1208 177.19 16.6691 177.19 17.335C177.19 17.9616 177.481 18.4708 178.062 18.8625C178.656 19.2411 179.651 19.574 181.046 19.8612C182.441 20.1354 183.616 20.4487 184.572 20.8012C187.529 21.8979 189.008 23.7974 189.008 26.4999C189.008 28.4321 188.188 29.9988 186.548 31.1999C184.908 32.388 182.789 32.982 180.193 32.982C178.437 32.982 176.874 32.6687 175.505 32.042C174.149 31.4023 173.083 30.5341 172.308 29.4374C171.533 28.3277 171.146 27.1331 171.146 25.8537H176.454C176.506 26.859 176.874 27.6292 177.558 28.1645C178.243 28.6998 179.16 28.9674 180.309 28.9674C181.381 28.9674 182.189 28.7651 182.731 28.3603C183.287 27.9426 183.564 27.4008 183.564 26.7349Z"
    fill="#E1E1E6"></path>
  <path
    d="M199.335 6.19207V11.4012H202.919V15.5529H199.335V26.1278C199.335 26.9112 199.483 27.4726 199.78 27.812C200.077 28.1515 200.646 28.3212 201.485 28.3212C202.105 28.3212 202.654 28.2755 203.132 28.1841V32.4728C202.034 32.8123 200.904 32.982 199.742 32.982C195.815 32.982 193.813 30.978 193.736 26.9699V15.5529H190.675V11.4012H193.736V6.19207H199.335Z"
    fill="#E1E1E6"></path>
  <path
    d="M211.947 32.5903H206.329V11.4012H211.947V32.5903ZM205.999 5.91791C205.999 5.0693 206.277 4.37083 206.832 3.8225C207.401 3.27417 208.169 3 209.138 3C210.094 3 210.856 3.27417 211.424 3.8225C211.992 4.37083 212.276 5.0693 212.276 5.91791C212.276 6.77957 211.986 7.48457 211.405 8.0329C210.836 8.58123 210.081 8.8554 209.138 8.8554C208.195 8.8554 207.433 8.58123 206.852 8.0329C206.283 7.48457 205.999 6.77957 205.999 5.91791Z"
    fill="#E1E1E6"></path>
  <path
    d="M221.731 11.4012L221.905 13.8491C223.404 11.9561 225.412 11.0096 227.931 11.0096C230.152 11.0096 231.805 11.6689 232.89 12.9875C233.975 14.3061 234.531 16.2775 234.556 18.9016V32.5903H228.957V19.0387C228.957 17.8376 228.699 16.9694 228.182 16.4341C227.666 15.8858 226.807 15.6116 225.606 15.6116C224.03 15.6116 222.848 16.2905 222.06 17.6483V32.5903H216.461V11.4012H221.731Z"
    fill="#E1E1E6"></path>
  <path
    d="M238.005 21.8391C238.005 18.5883 238.767 15.9707 240.291 13.9862C241.828 12.0018 243.895 11.0096 246.491 11.0096C248.79 11.0096 250.579 11.8059 251.857 13.3987L252.09 11.4012H257.166V31.8853C257.166 33.7392 256.746 35.3516 255.907 36.7224C255.08 38.0932 253.911 39.1377 252.4 39.8557C250.889 40.5738 249.119 40.9328 247.091 40.9328C245.554 40.9328 244.056 40.6195 242.597 39.9928C241.137 39.3792 240.033 38.5828 239.284 37.6036L241.764 34.157C243.158 35.7367 244.85 36.5266 246.84 36.5266C248.325 36.5266 249.481 36.1218 250.307 35.3124C251.134 34.516 251.547 33.3802 251.547 31.9049V30.7691C250.256 32.2444 248.557 32.982 246.452 32.982C243.933 32.982 241.893 31.9898 240.33 30.0053C238.78 28.0078 238.005 25.3641 238.005 22.0741V21.8391ZM243.604 22.2504C243.604 24.1695 243.985 25.6774 244.747 26.7741C245.509 27.8577 246.555 28.3995 247.886 28.3995C249.591 28.3995 250.811 27.7533 251.547 26.4608V17.5504C250.798 16.2579 249.591 15.6116 247.924 15.6116C246.581 15.6116 245.522 16.1665 244.747 17.2762C243.985 18.3859 243.604 20.044 243.604 22.2504Z"
    fill="#E1E1E6"></path>
  <path
    d="M120.87 62.2982C120.87 65.562 120.134 68.1797 118.662 70.151C117.202 72.1094 115.226 73.0885 112.733 73.0885C110.615 73.0885 108.904 72.3444 107.599 70.856V80.8435H102V51.5078H107.192L107.386 53.5836C108.742 51.9386 110.512 51.1161 112.694 51.1161C115.278 51.1161 117.286 52.0822 118.72 54.0144C120.153 55.9466 120.87 58.61 120.87 62.0044V62.2982ZM115.271 61.8869C115.271 59.9155 114.922 58.3946 114.225 57.324C113.54 56.2534 112.539 55.7182 111.222 55.7182C109.465 55.7182 108.258 56.3971 107.599 57.7548V66.4302C108.284 67.8272 109.504 68.5256 111.261 68.5256C113.934 68.5256 115.271 66.3127 115.271 61.8869Z"
    fill="#E1E1E6"></path>
  <path
    d="M134.006 73.0885C130.932 73.0885 128.426 72.1355 126.489 70.2294C124.564 68.3233 123.602 65.784 123.602 62.6115V62.0632C123.602 59.9351 124.009 58.0355 124.822 56.3644C125.636 54.6803 126.786 53.3878 128.271 52.4869C129.769 51.573 131.474 51.1161 133.386 51.1161C136.253 51.1161 138.507 52.03 140.147 53.8578C141.801 55.6855 142.627 58.2771 142.627 61.6323V63.9431H129.279C129.459 65.327 130.002 66.4367 130.906 67.2723C131.823 68.1079 132.979 68.5256 134.374 68.5256C136.531 68.5256 138.216 67.7358 139.43 66.1561L142.182 69.2698C141.342 70.4709 140.205 71.4109 138.772 72.0898C137.338 72.7556 135.749 73.0885 134.006 73.0885ZM133.366 55.6986C132.256 55.6986 131.352 56.0772 130.654 56.8344C129.97 57.5916 129.53 58.6752 129.337 60.0852H137.125V59.6348C137.099 58.3815 136.763 57.4154 136.118 56.7365C135.472 56.0446 134.555 55.6986 133.366 55.6986Z"
    fill="#E1E1E6"></path>
  <path
    d="M144.952 61.9065C144.952 59.8046 145.352 57.9311 146.153 56.2861C146.954 54.6411 148.104 53.3682 149.602 52.4674C151.113 51.5665 152.863 51.1161 154.852 51.1161C157.681 51.1161 159.986 51.9908 161.769 53.7403C163.564 55.4897 164.565 57.8658 164.772 60.8686L164.81 62.3177C164.81 65.5686 163.913 68.1797 162.117 70.151C160.322 72.1094 157.913 73.0885 154.891 73.0885C151.869 73.0885 149.453 72.1094 147.645 70.151C145.85 68.1927 144.952 65.5294 144.952 62.1611V61.9065ZM150.551 62.3177C150.551 64.3283 150.926 65.8688 151.675 66.9394C152.424 67.9969 153.496 68.5256 154.891 68.5256C156.247 68.5256 157.306 68.0034 158.068 66.959C158.83 65.9015 159.211 64.2173 159.211 61.9065C159.211 59.9351 158.83 58.4076 158.068 57.324C157.306 56.2404 156.234 55.6986 154.852 55.6986C153.483 55.6986 152.424 56.2404 151.675 57.324C150.926 58.3946 150.551 60.0591 150.551 62.3177Z"
    fill="#E1E1E6"></path>
  <path
    d="M187.129 62.2982C187.129 65.562 186.393 68.1797 184.92 70.151C183.461 72.1094 181.485 73.0885 178.992 73.0885C176.874 73.0885 175.162 72.3444 173.858 70.856V80.8435H168.259V51.5078H173.451L173.645 53.5836C175.001 51.9386 176.77 51.1161 178.953 51.1161C181.536 51.1161 183.545 52.0822 184.979 54.0144C186.412 55.9466 187.129 58.61 187.129 62.0044V62.2982ZM181.53 61.8869C181.53 59.9155 181.181 58.3946 180.484 57.324C179.799 56.2534 178.798 55.7182 177.481 55.7182C175.724 55.7182 174.517 56.3971 173.858 57.7548V66.4302C174.542 67.8272 175.763 68.5256 177.52 68.5256C180.193 68.5256 181.53 66.3127 181.53 61.8869Z"
    fill="#E1E1E6"></path>
  <path d="M196.525 72.6969H190.907V42.617H196.525V72.6969Z" fill="#E1E1E6"></path>
  <path
    d="M210.804 73.0885C207.73 73.0885 205.224 72.1355 203.287 70.2294C201.362 68.3233 200.4 65.784 200.4 62.6115V62.0632C200.4 59.9351 200.807 58.0355 201.621 56.3644C202.434 54.6803 203.584 53.3878 205.069 52.4869C206.568 51.573 208.272 51.1161 210.184 51.1161C213.051 51.1161 215.305 52.03 216.946 53.8578C218.599 55.6855 219.425 58.2771 219.425 61.6323V63.9431H206.077C206.258 65.327 206.8 66.4367 207.704 67.2723C208.621 68.1079 209.777 68.5256 211.172 68.5256C213.329 68.5256 215.015 67.7358 216.229 66.1561L218.98 69.2698C218.14 70.4709 217.004 71.4109 215.57 72.0898C214.136 72.7556 212.548 73.0885 210.804 73.0885ZM210.165 55.6986C209.054 55.6986 208.15 56.0772 207.452 56.8344C206.768 57.5916 206.329 58.6752 206.135 60.0852H213.923V59.6348C213.897 58.3815 213.562 57.4154 212.916 56.7365C212.27 56.0446 211.353 55.6986 210.165 55.6986Z"
    fill="#E1E1E6"></path>
  <path
    d="M222 70.0354C222 69.1346 222.297 68.4035 222.891 67.8421C223.498 67.2807 224.254 67 225.158 67C226.075 67 226.831 67.2807 227.425 67.8421C228.032 68.4035 228.335 69.1346 228.335 70.0354C228.335 70.9232 228.038 71.6478 227.444 72.2092C226.85 72.7575 226.088 73.0316 225.158 73.0316C224.241 73.0316 223.485 72.7575 222.891 72.2092C222.297 71.6478 222 70.9232 222 70.0354Z"
    fill="#04D361"></path>
</svg>
