<svg width="180" height="34" viewBox="0 0 180 34" fill="none" xmlns="http://www.w3.org/2000/svg">
  <path
    d="M37.5038 9.9834C35.9894 9.9834 34.7406 11.1879 34.7406 12.7065V18.467V24.2274H37.5038V18.467V12.7065H40.7985H44.0931V9.9834H40.7985H37.5038Z"
    fill="#E1E1E6"></path>
  <path
    d="M60.5663 17.079V12.6802C60.5663 11.1877 59.3441 9.95703 57.8031 9.95703H53.3394H48.8757C47.3612 9.95703 46.1124 11.1615 46.1124 12.6802V17.079V21.4779C46.1124 22.9704 47.3346 24.2011 48.8757 24.2011H53.3394H57.8031C59.3175 24.2011 60.5663 22.9966 60.5663 21.4779V17.079ZM57.8031 17.079V21.4779H53.3394H48.8757V17.079V12.6802H53.3394H57.8031V17.079Z"
    fill="#E1E1E6"></path>
  <path
    d="M66.0927 9.9834C64.5782 9.9834 63.3295 11.1879 63.3295 12.7065V17.1054V21.5043C63.3295 22.9968 64.5517 24.2274 66.0927 24.2274L75.8172 24.0965V21.5043H66.0927V17.1054V12.7065H75.8172V10.1143L66.0927 9.9834Z"
    fill="#E1E1E6"></path>
  <path
    d="M91.6551 9.9834H87.9088L82.4355 15.7177H81.3461V9.9834H78.5829V17.0792V24.2012H81.3461V18.4408H82.7277H82.9403L88.6262 24.2012H92.4257L85.119 16.765L91.6551 9.9834Z"
    fill="#E1E1E6"></path>
  <path
    d="M95.7708 21.4779V18.4406L107.461 18.3097V15.7175V12.6802C107.461 11.1877 106.239 9.95703 104.698 9.95703H100.234H95.7708C94.2563 9.95703 93.0076 11.1615 93.0076 12.6802V17.079V21.4779C93.0076 22.9704 94.2298 24.2011 95.7708 24.2011L107.461 24.0701V21.4779H95.7708ZM95.7708 12.6802H100.234H104.698V15.7175H101.616H95.7708V12.6802Z"
    fill="#E1E1E6"></path>
  <path
    d="M114.396 5.82031H113.333L111.633 7.88885V9.95737H109.534V12.6805L111.633 12.6543V21.4783C111.633 22.9708 112.855 24.2014 114.396 24.2014L118.86 24.0705V21.4783H114.396V12.6281L119.258 12.5496V9.95737H114.396V5.82031Z"
    fill="#E1E1E6"></path>
  <path
    d="M133.819 18.4406C133.819 16.9481 132.597 15.7175 131.056 15.7175H127.575H124.094V12.6802H133.819V10.088L124.094 9.95703C122.58 9.95703 121.331 11.1615 121.331 12.6802V15.7175C121.331 17.21 122.553 18.4406 124.094 18.4406H127.575H131.056V21.4779H121.331V24.0701L131.056 24.2011C132.57 24.2011 133.819 22.9966 133.819 21.4779V18.4406Z"
    fill="#E1E1E6"></path>
  <path
    d="M148.246 9.9834H143.782H139.318C137.804 9.9834 136.555 11.1879 136.555 12.7065V17.1054V21.5043C136.555 22.9968 137.777 24.2274 139.318 24.2274L151.009 24.0965V21.5043H139.318V18.467L151.009 18.3361V15.7439V12.7065C151.009 11.1879 149.787 9.9834 148.246 9.9834ZM148.246 15.7177H139.318V12.6803H143.782H148.246V15.7177Z"
    fill="#E1E1E6"></path>
  <path
    d="M165.463 9.9834L153.772 10.1143V12.7065H165.463V15.7439L153.772 15.8748V18.467V21.5043C153.772 22.9968 154.994 24.2274 156.535 24.2274H160.999H165.463C166.977 24.2274 168.226 23.023 168.226 21.5043V17.1054V12.7065C168.199 11.1879 166.977 9.9834 165.463 9.9834ZM165.463 21.4781H160.999H156.535V18.4408H165.463V21.4781Z"
    fill="#E1E1E6"></path>
  <path
    d="M175.138 12.6279L180 12.5494V9.95718H175.138V5.79395H174.075L172.374 7.86247V9.931H170.275V12.6541L172.374 12.6279V21.4519C172.374 22.9444 173.597 24.175 175.138 24.175L179.601 24.0441V21.4519H175.138V12.6279Z"
    fill="#E1E1E6"></path>
  <path
    d="M27.4345 0.661562L22.9442 0.00696484C22.8114 -0.019219 22.6785 0.0331455 22.6254 0.0855133L20.7124 2.5468C20.5795 2.7039 20.553 2.91337 20.6061 3.09666C20.6592 3.27995 20.4998 3.43705 20.3138 3.41087L18.7462 3.07047C18.5071 3.01811 18.2414 3.09666 18.082 3.30614L11.8647 11.1613C11.7584 11.3184 11.5459 11.3708 11.3599 11.2922L8.99517 10.2449C8.78262 10.1401 8.54349 10.1663 8.3575 10.2972L7.16187 11.1089C6.97588 11.2398 6.71019 11.266 6.49763 11.1613L5.9131 10.8733C5.54112 10.69 5.08944 10.8995 4.98316 11.2922L4.55805 13.1513C4.45177 13.5964 4.63776 14.0415 5.0363 14.2772L5.93967 14.827L8.83576 16.5814L10.2439 17.4454C10.6425 17.6811 11.1473 17.6287 11.4927 17.3407L13.8574 15.2984C14.0434 15.1412 14.3357 15.0889 14.5482 15.2198L15.2656 15.5864C15.5047 15.7173 15.797 15.6649 15.983 15.4816L17.1786 14.3819C17.3646 14.1986 17.6569 14.1724 17.8694 14.2772L19.6496 15.0889C19.9153 15.2198 20.2341 15.1412 20.4201 14.9056L21.2438 13.8582L27.4876 5.97689C27.7799 5.61031 27.5939 5.06045 27.1157 4.95572L25.734 4.64151C25.4418 4.58914 25.3089 4.22257 25.5215 4.0131L27.6736 1.36852C27.8862 1.05432 27.7533 0.71393 27.4345 0.661562Z"
    fill="#8257E6"></path>
  <path
    d="M6.84272 16.5286C6.70987 16.45 6.57702 16.581 6.63016 16.7119L7.2944 18.44C7.34754 18.5709 7.34754 18.7019 7.32097 18.8328L6.73644 21.0846C6.70987 21.2417 6.76301 21.3988 6.86929 21.4773L8.54317 22.7604C8.70259 22.8651 8.91515 22.8651 9.04799 22.7342L10.8016 21.2155C10.9079 21.137 11.0407 21.0846 11.147 21.0584L13.1397 20.8489C13.2726 20.8228 13.3257 20.6395 13.1929 20.5609L6.84272 16.5286Z"
    fill="#8257E6"></path>
  <path
    d="M6.25834 22.3423C6.15206 22.2638 5.99265 22.2376 5.8598 22.2899L4.45161 22.9707C4.3719 22.9969 4.31876 23.0755 4.26562 23.154L1.26326 30.4593C1.26326 30.4855 1.26326 30.4855 1.26326 30.5117C1.28983 30.5379 1.3164 30.564 1.36953 30.564L2.06035 30.3022C2.08692 30.3022 2.11348 30.3022 2.14005 30.3022C2.16662 30.3284 2.19319 30.3808 2.16662 30.4069L0.0144825 33.8894C-0.0386568 33.9679 0.0676241 34.0465 0.120763 33.9679L7.90566 26.2699C7.98537 26.1913 8.01194 26.1128 8.03851 26.0081L8.19793 24.0181C8.19793 23.8871 8.14479 23.7824 8.06508 23.7039L6.25834 22.3423Z"
    fill="#8257E6"></path>
</svg>
