<svg width="68" height="274" viewBox="0 0 68 274" fill="none" xmlns="http://www.w3.org/2000/svg"
  class="styles_vectorOne__2-M68">
  <g filter="url(#filter0_b)">
    <path
      d="M18.7859 0C19.9547 0 20.8394 0.497774 21.4402 1.49332C22.0519 2.47793 22.3577 3.91108 22.3577 5.79278C22.3577 7.67447 22.0519 9.11309 21.4402 10.1086C20.8394 11.1042 19.9547 11.602 18.7859 11.602C17.6281 11.602 16.7433 11.1042 16.1316 10.1086C15.5199 9.11309 15.2141 7.67447 15.2141 5.79278C15.2141 3.92202 15.5199 2.48887 16.1316 1.49332C16.7433 0.497774 17.6281 0 18.7859 0ZM16.3774 5.79278C16.3774 7.12747 16.4975 8.17225 16.7378 8.92711L20.3752 1.65742C19.9929 1.14324 19.4631 0.886148 18.7859 0.886148C18.0322 0.886148 17.4424 1.29093 17.0164 2.1005C16.5904 2.89912 16.3774 4.12988 16.3774 5.79278ZM18.7859 10.6994C19.5505 10.6994 20.1458 10.3001 20.5718 9.50147C20.9978 8.6919 21.2108 7.45567 21.2108 5.79278C21.2108 4.38151 21.0743 3.2875 20.8012 2.51075L17.1638 9.84608C17.5571 10.415 18.0978 10.6994 18.7859 10.6994Z"
      fill="url(#binary)" fill-opacity="0.7"></path>
    <path
      d="M19.769 29.3226H22.1775V30.1923H15.935V29.3226H18.7204V20.1001L16.0661 21.6919L15.6073 20.9534L18.8842 18.9185H19.769V29.3226Z"
      fill="url(#binary1)" fill-opacity="0.7"></path>
    <path
      d="M18.7859 37.5089C19.9547 37.5089 20.8394 38.0067 21.4402 39.0022C22.0519 39.9868 22.3577 41.42 22.3577 43.3017C22.3577 45.1833 22.0519 46.622 21.4402 47.6175C20.8394 48.6131 19.9547 49.1108 18.7859 49.1108C17.6281 49.1108 16.7433 48.6131 16.1316 47.6175C15.5199 46.622 15.2141 45.1833 15.2141 43.3017C15.2141 41.4309 15.5199 39.9977 16.1316 39.0022C16.7433 38.0067 17.6281 37.5089 18.7859 37.5089ZM16.3774 43.3017C16.3774 44.6363 16.4975 45.6811 16.7378 46.436L20.3752 39.1663C19.9929 38.6521 19.4631 38.395 18.7859 38.395C18.0322 38.395 17.4424 38.7998 17.0164 39.6094C16.5904 40.408 16.3774 41.6388 16.3774 43.3017ZM18.7859 48.2083C19.5505 48.2083 20.1458 47.809 20.5718 47.0103C20.9978 46.2008 21.2108 44.9646 21.2108 43.3017C21.2108 41.8904 21.0743 40.7964 20.8012 40.0196L17.1638 47.355C17.5571 47.9238 18.0978 48.2083 18.7859 48.2083Z"
      fill="url(#binary2)" fill-opacity="0.7"></path>
    <path
      d="M19.769 66.8314H22.1775V67.7012H15.935V66.8314H18.7204V57.6089L16.0661 59.2007L15.6073 58.4623L18.8842 56.4274H19.769V66.8314Z"
      fill="url(#binary3)" fill-opacity="0.7"></path>
    <path
      d="M19.769 85.5859H22.1775V86.4556H15.935V85.5859H18.7204V76.3634L16.0661 77.9552L15.6073 77.2167L18.8842 75.1819H19.769V85.5859Z"
      fill="url(#binary4)" fill-opacity="0.7"></path>
    <path
      d="M18.7859 93.7722C19.9547 93.7722 20.8394 94.27 21.4402 95.2655C22.0519 96.2501 22.3577 97.6833 22.3577 99.565C22.3577 101.447 22.0519 102.885 21.4402 103.881C20.8394 104.876 19.9547 105.374 18.7859 105.374C17.6281 105.374 16.7433 104.876 16.1316 103.881C15.5199 102.885 15.2141 101.447 15.2141 99.565C15.2141 97.6942 15.5199 96.2611 16.1316 95.2655C16.7433 94.27 17.6281 93.7722 18.7859 93.7722ZM16.3774 99.565C16.3774 100.9 16.4975 101.944 16.7378 102.699L20.3752 95.4296C19.9929 94.9154 19.4631 94.6583 18.7859 94.6583C18.0322 94.6583 17.4424 95.0631 17.0164 95.8727C16.5904 96.6713 16.3774 97.9021 16.3774 99.565ZM18.7859 104.472C19.5505 104.472 20.1458 104.072 20.5718 103.274C20.9978 102.464 21.2108 101.228 21.2108 99.565C21.2108 98.1537 21.0743 97.0597 20.8012 96.2829L17.1638 103.618C17.5571 104.187 18.0978 104.472 18.7859 104.472Z"
      fill="url(#binary4)" fill-opacity="0.7"></path>
    <path
      d="M19.769 123.095H22.1775V123.965H15.935V123.095H18.7204V113.872L16.0661 115.464L15.6073 114.726L18.8842 112.691H19.769V123.095Z"
      fill="url(#binary5)" fill-opacity="0.7"></path>
    <path
      d="M18.7859 131.281C19.9547 131.281 20.8394 131.779 21.4402 132.774C22.0519 133.759 22.3577 135.192 22.3577 137.074C22.3577 138.956 22.0519 140.394 21.4402 141.39C20.8394 142.385 19.9547 142.883 18.7859 142.883C17.6281 142.883 16.7433 142.385 16.1316 141.39C15.5199 140.394 15.2141 138.956 15.2141 137.074C15.2141 135.203 15.5199 133.77 16.1316 132.774C16.7433 131.779 17.6281 131.281 18.7859 131.281ZM16.3774 137.074C16.3774 138.409 16.4975 139.453 16.7378 140.208L20.3752 132.938C19.9929 132.424 19.4631 132.167 18.7859 132.167C18.0322 132.167 17.4424 132.572 17.0164 133.382C16.5904 134.18 16.3774 135.411 16.3774 137.074ZM18.7859 141.98C19.5505 141.98 20.1458 141.581 20.5718 140.783C20.9978 139.973 21.2108 138.737 21.2108 137.074C21.2108 135.663 21.0743 134.569 20.8012 133.792L17.1638 141.127C17.5571 141.696 18.0978 141.98 18.7859 141.98Z"
      fill="url(#binary6)" fill-opacity="0.7"></path>
    <path
      d="M18.7859 150.036C19.9547 150.036 20.8394 150.533 21.4402 151.529C22.0519 152.513 22.3577 153.947 22.3577 155.828C22.3577 157.71 22.0519 159.149 21.4402 160.144C20.8394 161.14 19.9547 161.637 18.7859 161.637C17.6281 161.637 16.7433 161.14 16.1316 160.144C15.5199 159.149 15.2141 157.71 15.2141 155.828C15.2141 153.958 15.5199 152.524 16.1316 151.529C16.7433 150.533 17.6281 150.036 18.7859 150.036ZM16.3774 155.828C16.3774 157.163 16.4975 158.208 16.7378 158.963L20.3752 151.693C19.9929 151.179 19.4631 150.922 18.7859 150.922C18.0322 150.922 17.4424 151.326 17.0164 152.136C16.5904 152.935 16.3774 154.165 16.3774 155.828ZM18.7859 160.735C19.5505 160.735 20.1458 160.336 20.5718 159.537C20.9978 158.727 21.2108 157.491 21.2108 155.828C21.2108 154.417 21.0743 153.323 20.8012 152.546L17.1638 159.882C17.5571 160.45 18.0978 160.735 18.7859 160.735Z"
      fill="url(#binary7)" fill-opacity="0.7"></path>
    <path
      d="M19.769 179.358H22.1775V180.228H15.935V179.358H18.7204V170.136L16.0661 171.727L15.6073 170.989L18.8842 168.954H19.769V179.358Z"
      fill="url(#binary8)" fill-opacity="0.7"></path>
    <path
      d="M18.7859 187.544C19.9547 187.544 20.8394 188.042 21.4402 189.038C22.0519 190.022 22.3577 191.455 22.3577 193.337C22.3577 195.219 22.0519 196.657 21.4402 197.653C20.8394 198.649 19.9547 199.146 18.7859 199.146C17.6281 199.146 16.7433 198.649 16.1316 197.653C15.5199 196.657 15.2141 195.219 15.2141 193.337C15.2141 191.466 15.5199 190.033 16.1316 189.038C16.7433 188.042 17.6281 187.544 18.7859 187.544ZM16.3774 193.337C16.3774 194.672 16.4975 195.717 16.7378 196.471L20.3752 189.202C19.9929 188.688 19.4631 188.431 18.7859 188.431C18.0322 188.431 17.4424 188.835 17.0164 189.645C16.5904 190.444 16.3774 191.674 16.3774 193.337ZM18.7859 198.244C19.5505 198.244 20.1458 197.844 20.5718 197.046C20.9978 196.236 21.2108 195 21.2108 193.337C21.2108 191.926 21.0743 190.832 20.8012 190.055L17.1638 197.39C17.5571 197.959 18.0978 198.244 18.7859 198.244Z"
      fill="url(#binary9)" fill-opacity="0.7"></path>
    <path
      d="M19.769 216.867H22.1775V217.737H15.935V216.867H18.7204V207.644L16.0661 209.236L15.6073 208.498L18.8842 206.463H19.769V216.867Z"
      fill="url(#binary10)" fill-opacity="0.7"></path>
    <path
      d="M19.769 235.621H22.1775V236.491H15.935V235.621H18.7204V226.399L16.0661 227.991L15.6073 227.252L18.8842 225.217H19.769V235.621Z"
      fill="url(#binary11)" fill-opacity="0.7"></path>
    <path
      d="M49.2141 37.5089C50.3829 37.5089 51.2676 38.0067 51.8684 39.0022C52.4801 39.9868 52.7859 41.42 52.7859 43.3017C52.7859 45.1833 52.4801 46.622 51.8684 47.6175C51.2676 48.6131 50.3829 49.1108 49.2141 49.1108C48.0563 49.1108 47.1715 48.6131 46.5598 47.6175C45.9481 46.622 45.6423 45.1833 45.6423 43.3017C45.6423 41.4309 45.9481 39.9977 46.5598 39.0022C47.1715 38.0067 48.0563 37.5089 49.2141 37.5089ZM46.8056 43.3017C46.8056 44.6363 46.9257 45.6811 47.166 46.436L50.8034 39.1663C50.4211 38.6521 49.8913 38.395 49.2141 38.395C48.4604 38.395 47.8706 38.7998 47.4446 39.6094C47.0186 40.408 46.8056 41.6388 46.8056 43.3017ZM49.2141 48.2083C49.9787 48.2083 50.574 47.809 51 47.0103C51.426 46.2008 51.639 44.9646 51.639 43.3017C51.639 41.8904 51.5025 40.7964 51.2294 40.0196L47.592 47.355C47.9853 47.9238 48.526 48.2083 49.2141 48.2083Z"
      fill="url(#binary12)" fill-opacity="0.7"></path>
    <path
      d="M50.1972 66.8314H52.6057V67.7012H46.3632V66.8314H49.1486V57.6089L46.4943 59.2007L46.0355 58.4623L49.3124 56.4274H50.1972V66.8314Z"
      fill="url(#binary13)" fill-opacity="0.7"></path>
    <path
      d="M49.2141 75.0178C50.3829 75.0178 51.2676 75.5155 51.8684 76.5111C52.4801 77.4957 52.7859 78.9288 52.7859 80.8105C52.7859 82.6922 52.4801 84.1309 51.8684 85.1264C51.2676 86.1219 50.3829 86.6197 49.2141 86.6197C48.0563 86.6197 47.1715 86.1219 46.5598 85.1264C45.9481 84.1309 45.6423 82.6922 45.6423 80.8105C45.6423 78.9398 45.9481 77.5066 46.5598 76.5111C47.1715 75.5155 48.0563 75.0178 49.2141 75.0178ZM46.8056 80.8105C46.8056 82.1452 46.9257 83.19 47.166 83.9449L50.8034 76.6752C50.4211 76.161 49.8913 75.9039 49.2141 75.9039C48.4604 75.9039 47.8706 76.3087 47.4446 77.1182C47.0186 77.9169 46.8056 79.1476 46.8056 80.8105ZM49.2141 85.7172C49.9787 85.7172 50.574 85.3179 51 84.5192C51.426 83.7097 51.639 82.4734 51.639 80.8105C51.639 79.3993 51.5025 78.3053 51.2294 77.5285L47.592 84.8638C47.9853 85.4327 48.526 85.7172 49.2141 85.7172Z"
      fill="url(#binary14)" fill-opacity="0.7"></path>
    <path
      d="M49.2141 93.7722C50.3829 93.7722 51.2676 94.27 51.8684 95.2655C52.4801 96.2501 52.7859 97.6833 52.7859 99.565C52.7859 101.447 52.4801 102.885 51.8684 103.881C51.2676 104.876 50.3829 105.374 49.2141 105.374C48.0563 105.374 47.1715 104.876 46.5598 103.881C45.9481 102.885 45.6423 101.447 45.6423 99.565C45.6423 97.6942 45.9481 96.2611 46.5598 95.2655C47.1715 94.27 48.0563 93.7722 49.2141 93.7722ZM46.8056 99.565C46.8056 100.9 46.9257 101.944 47.166 102.699L50.8034 95.4296C50.4211 94.9154 49.8913 94.6583 49.2141 94.6583C48.4604 94.6583 47.8706 95.0631 47.4446 95.8727C47.0186 96.6713 46.8056 97.9021 46.8056 99.565ZM49.2141 104.472C49.9787 104.472 50.574 104.072 51 103.274C51.426 102.464 51.639 101.228 51.639 99.565C51.639 98.1537 51.5025 97.0597 51.2294 96.2829L47.592 103.618C47.9853 104.187 48.526 104.472 49.2141 104.472Z"
      fill="url(#binary15)" fill-opacity="0.7"></path>
    <path
      d="M50.1972 123.095H52.6057V123.965H46.3632V123.095H49.1486V113.872L46.4943 115.464L46.0355 114.726L49.3124 112.691H50.1972V123.095Z"
      fill="url(#binary16)" fill-opacity="0.7"></path>
    <path
      d="M49.2141 131.281C50.3829 131.281 51.2676 131.779 51.8684 132.774C52.4801 133.759 52.7859 135.192 52.7859 137.074C52.7859 138.956 52.4801 140.394 51.8684 141.39C51.2676 142.385 50.3829 142.883 49.2141 142.883C48.0563 142.883 47.1715 142.385 46.5598 141.39C45.9481 140.394 45.6423 138.956 45.6423 137.074C45.6423 135.203 45.9481 133.77 46.5598 132.774C47.1715 131.779 48.0563 131.281 49.2141 131.281ZM46.8056 137.074C46.8056 138.409 46.9257 139.453 47.166 140.208L50.8034 132.938C50.4211 132.424 49.8913 132.167 49.2141 132.167C48.4604 132.167 47.8706 132.572 47.4446 133.382C47.0186 134.18 46.8056 135.411 46.8056 137.074ZM49.2141 141.98C49.9787 141.98 50.574 141.581 51 140.783C51.426 139.973 51.639 138.737 51.639 137.074C51.639 135.663 51.5025 134.569 51.2294 133.792L47.592 141.127C47.9853 141.696 48.526 141.98 49.2141 141.98Z"
      fill="url(#binary17)" fill-opacity="0.7"></path>
    <path
      d="M50.1972 160.604H52.6057V161.473H46.3632V160.604H49.1486V151.381L46.4943 152.973L46.0355 152.234L49.3124 150.2H50.1972V160.604Z"
      fill="url(#binary18)" fill-opacity="0.7"></path>
    <path
      d="M49.2141 168.79C50.3829 168.79 51.2676 169.288 51.8684 170.283C52.4801 171.268 52.7859 172.701 52.7859 174.583C52.7859 176.464 52.4801 177.903 51.8684 178.899C51.2676 179.894 50.3829 180.392 49.2141 180.392C48.0563 180.392 47.1715 179.894 46.5598 178.899C45.9481 177.903 45.6423 176.464 45.6423 174.583C45.6423 172.712 45.9481 171.279 46.5598 170.283C47.1715 169.288 48.0563 168.79 49.2141 168.79ZM46.8056 174.583C46.8056 175.917 46.9257 176.962 47.166 177.717L50.8034 170.447C50.4211 169.933 49.8913 169.676 49.2141 169.676C48.4604 169.676 47.8706 170.081 47.4446 170.89C47.0186 171.689 46.8056 172.92 46.8056 174.583ZM49.2141 179.489C49.9787 179.489 50.574 179.09 51 178.291C51.426 177.482 51.639 176.246 51.639 174.583C51.639 173.171 51.5025 172.077 51.2294 171.301L47.592 178.636C47.9853 179.205 48.526 179.489 49.2141 179.489Z"
      fill="url(#binary19)" fill-opacity="0.7"></path>
    <path
      d="M49.2141 187.544C50.3829 187.544 51.2676 188.042 51.8684 189.038C52.4801 190.022 52.7859 191.455 52.7859 193.337C52.7859 195.219 52.4801 196.657 51.8684 197.653C51.2676 198.649 50.3829 199.146 49.2141 199.146C48.0563 199.146 47.1715 198.649 46.5598 197.653C45.9481 196.657 45.6423 195.219 45.6423 193.337C45.6423 191.466 45.9481 190.033 46.5598 189.038C47.1715 188.042 48.0563 187.544 49.2141 187.544ZM46.8056 193.337C46.8056 194.672 46.9257 195.717 47.166 196.471L50.8034 189.202C50.4211 188.688 49.8913 188.431 49.2141 188.431C48.4604 188.431 47.8706 188.835 47.4446 189.645C47.0186 190.444 46.8056 191.674 46.8056 193.337ZM49.2141 198.244C49.9787 198.244 50.574 197.844 51 197.046C51.426 196.236 51.639 195 51.639 193.337C51.639 191.926 51.5025 190.832 51.2294 190.055L47.592 197.39C47.9853 197.959 48.526 198.244 49.2141 198.244Z"
      fill="url(#binary20)" fill-opacity="0.7"></path>
    <path
      d="M50.1972 216.867H52.6057V217.737H46.3632V216.867H49.1486V207.644L46.4943 209.236L46.0355 208.498L49.3124 206.463H50.1972V216.867Z"
      fill="url(#binary21)" fill-opacity="0.7"></path>
    <path
      d="M49.2141 225.053C50.3829 225.053 51.2676 225.551 51.8684 226.547C52.4801 227.531 52.7859 228.964 52.7859 230.846C52.7859 232.728 52.4801 234.166 51.8684 235.162C51.2676 236.157 50.3829 236.655 49.2141 236.655C48.0563 236.655 47.1715 236.157 46.5598 235.162C45.9481 234.166 45.6423 232.728 45.6423 230.846C45.6423 228.975 45.9481 227.542 46.5598 226.547C47.1715 225.551 48.0563 225.053 49.2141 225.053ZM46.8056 230.846C46.8056 232.181 46.9257 233.226 47.166 233.98L50.8034 226.711C50.4211 226.197 49.8913 225.939 49.2141 225.939C48.4604 225.939 47.8706 226.344 47.4446 227.154C47.0186 227.952 46.8056 229.183 46.8056 230.846ZM49.2141 235.753C49.9787 235.753 50.574 235.353 51 234.555C51.426 233.745 51.639 232.509 51.639 230.846C51.639 229.435 51.5025 228.341 51.2294 227.564L47.592 234.899C47.9853 235.468 48.526 235.753 49.2141 235.753Z"
      fill="url(#binary22)" fill-opacity="0.7"></path>
    <path
      d="M50.1972 254.376H52.6057V255.246H46.3632V254.376H49.1486V245.153L46.4943 246.745L46.0355 246.007L49.3124 243.972H50.1972V254.376Z"
      fill="url(#binary23)" fill-opacity="0.7"></path>
    <path
      d="M50.1972 273.13H52.6057V274H46.3632V273.13H49.1486V263.908L46.4943 265.5L46.0355 264.761L49.3124 262.726H50.1972V273.13Z"
      fill="url(#binary24)" fill-opacity="0.7"></path>
    <path
      d="M3.5718 56.2633C4.74056 56.2633 5.62532 56.7611 6.22608 57.7566C6.83776 58.7412 7.1436 60.1744 7.1436 62.0561C7.1436 63.9378 6.83776 65.3764 6.22608 66.372C5.62532 67.3675 4.74056 67.8653 3.5718 67.8653C2.41397 67.8653 1.52921 67.3675 0.917527 66.372C0.305843 65.3764 0 63.9378 0 62.0561C0 60.1853 0.305843 58.7522 0.917527 57.7566C1.52921 56.7611 2.41397 56.2633 3.5718 56.2633ZM1.16329 62.0561C1.16329 63.3908 1.28345 64.4356 1.52375 65.1904L5.16109 57.9207C4.77879 57.4066 4.24902 57.1495 3.5718 57.1495C2.81812 57.1495 2.22828 57.5542 1.80229 58.3638C1.37629 59.1624 1.16329 60.3932 1.16329 62.0561ZM3.5718 66.9627C4.33641 66.9627 4.93171 66.5634 5.3577 65.7648C5.7837 64.9552 5.9967 63.719 5.9967 62.0561C5.9967 60.6448 5.86016 59.5508 5.58709 58.7741L1.94975 66.1094C2.34297 66.6783 2.88366 66.9627 3.5718 66.9627Z"
      fill="url(#binary25)" fill-opacity="0.7"></path>
    <path
      d="M3.5718 75.0178C4.74056 75.0178 5.62532 75.5155 6.22608 76.5111C6.83776 77.4957 7.1436 78.9288 7.1436 80.8105C7.1436 82.6922 6.83776 84.1309 6.22608 85.1264C5.62532 86.1219 4.74056 86.6197 3.5718 86.6197C2.41397 86.6197 1.52921 86.1219 0.917527 85.1264C0.305843 84.1309 0 82.6922 0 80.8105C0 78.9398 0.305843 77.5066 0.917527 76.5111C1.52921 75.5155 2.41397 75.0178 3.5718 75.0178ZM1.16329 80.8105C1.16329 82.1452 1.28345 83.19 1.52375 83.9449L5.16109 76.6752C4.77879 76.161 4.24902 75.9039 3.5718 75.9039C2.81812 75.9039 2.22828 76.3087 1.80229 77.1182C1.37629 77.9169 1.16329 79.1476 1.16329 80.8105ZM3.5718 85.7172C4.33641 85.7172 4.93171 85.3179 5.3577 84.5192C5.7837 83.7097 5.9967 82.4734 5.9967 80.8105C5.9967 79.3993 5.86016 78.3053 5.58709 77.5285L1.94975 84.8638C2.34297 85.4327 2.88366 85.7172 3.5718 85.7172Z"
      fill="url(#binary26)" fill-opacity="0.7"></path>
    <path
      d="M4.55487 104.34H6.96338V105.21H0.720914V104.34H3.50626V95.1178L0.85199 96.7096L0.393226 95.9711L3.67011 93.9363H4.55487V104.34Z"
      fill="url(#binary27)" fill-opacity="0.7"></path>
    <path
      d="M3.5718 112.527C4.74056 112.527 5.62532 113.024 6.22608 114.02C6.83776 115.005 7.1436 116.438 7.1436 118.319C7.1436 120.201 6.83776 121.64 6.22608 122.635C5.62532 123.631 4.74056 124.129 3.5718 124.129C2.41397 124.129 1.52921 123.631 0.917527 122.635C0.305843 121.64 0 120.201 0 118.319C0 116.449 0.305843 115.016 0.917527 114.02C1.52921 113.024 2.41397 112.527 3.5718 112.527ZM1.16329 118.319C1.16329 119.654 1.28345 120.699 1.52375 121.454L5.16109 114.184C4.77879 113.67 4.24902 113.413 3.5718 113.413C2.81812 113.413 2.22828 113.818 1.80229 114.627C1.37629 115.426 1.16329 116.657 1.16329 118.319ZM3.5718 123.226C4.33641 123.226 4.93171 122.827 5.3577 122.028C5.7837 121.219 5.9967 119.982 5.9967 118.319C5.9967 116.908 5.86016 115.814 5.58709 115.037L1.94975 122.373C2.34297 122.942 2.88366 123.226 3.5718 123.226Z"
      fill="url(#binary28)" fill-opacity="0.7"></path>
    <path
      d="M4.55487 141.849H6.96338V142.719H0.720914V141.849H3.50626V132.627L0.85199 134.218L0.393226 133.48L3.67011 131.445H4.55487V141.849Z"
      fill="url(#binary29)" fill-opacity="0.7"></path>
    <path
      d="M4.55487 160.604H6.96338V161.473H0.720914V160.604H3.50626V151.381L0.85199 152.973L0.393226 152.234L3.67011 150.2H4.55487V160.604Z"
      fill="url(#binary30)" fill-opacity="0.7"></path>
    <path
      d="M34.9831 29.3226H37.3916V30.1923H31.1491V29.3226H33.9345V20.1001L31.2802 21.6919L30.8214 20.9534L34.0983 18.9185H34.9831V29.3226Z"
      fill="url(#binary31)" fill-opacity="0.7"></path>
    <path
      d="M34 37.5089C35.1688 37.5089 36.0535 38.0067 36.6543 39.0022C37.266 39.9868 37.5718 41.42 37.5718 43.3017C37.5718 45.1833 37.266 46.622 36.6543 47.6175C36.0535 48.6131 35.1688 49.1108 34 49.1108C32.8422 49.1108 31.9574 48.6131 31.3457 47.6175C30.734 46.622 30.4282 45.1833 30.4282 43.3017C30.4282 41.4309 30.734 39.9977 31.3457 39.0022C31.9574 38.0067 32.8422 37.5089 34 37.5089ZM31.5915 43.3017C31.5915 44.6363 31.7116 45.6811 31.9519 46.436L35.5893 39.1663C35.207 38.6521 34.6772 38.395 34 38.395C33.2463 38.395 32.6565 38.7998 32.2305 39.6094C31.8045 40.408 31.5915 41.6388 31.5915 43.3017ZM34 48.2083C34.7646 48.2083 35.3599 47.809 35.7859 47.0103C36.2119 46.2008 36.4249 44.9646 36.4249 43.3017C36.4249 41.8904 36.2884 40.7964 36.0153 40.0196L32.3779 47.355C32.7712 47.9238 33.3119 48.2083 34 48.2083Z"
      fill="url(#binary32)" fill-opacity="0.7"></path>
    <path
      d="M34.9831 66.8314H37.3916V67.7012H31.1491V66.8314H33.9345V57.6089L31.2802 59.2007L30.8214 58.4623L34.0983 56.4274H34.9831V66.8314Z"
      fill="url(#binary33)" fill-opacity="0.7"></path>
    <path
      d="M34.9831 85.5859H37.3916V86.4556H31.1491V85.5859H33.9345V76.3634L31.2802 77.9552L30.8214 77.2167L34.0983 75.1819H34.9831V85.5859Z"
      fill="url(#binary34)" fill-opacity="0.7"></path>
    <path
      d="M34 93.7722C35.1688 93.7722 36.0535 94.27 36.6543 95.2655C37.266 96.2501 37.5718 97.6833 37.5718 99.565C37.5718 101.447 37.266 102.885 36.6543 103.881C36.0535 104.876 35.1688 105.374 34 105.374C32.8422 105.374 31.9574 104.876 31.3457 103.881C30.734 102.885 30.4282 101.447 30.4282 99.565C30.4282 97.6942 30.734 96.2611 31.3457 95.2655C31.9574 94.27 32.8422 93.7722 34 93.7722ZM31.5915 99.565C31.5915 100.9 31.7116 101.944 31.9519 102.699L35.5893 95.4296C35.207 94.9154 34.6772 94.6583 34 94.6583C33.2463 94.6583 32.6565 95.0631 32.2305 95.8727C31.8045 96.6713 31.5915 97.9021 31.5915 99.565ZM34 104.472C34.7646 104.472 35.3599 104.072 35.7859 103.274C36.2119 102.464 36.4249 101.228 36.4249 99.565C36.4249 98.1537 36.2884 97.0597 36.0153 96.2829L32.3779 103.618C32.7712 104.187 33.3119 104.472 34 104.472Z"
      fill="url(#binary35)" fill-opacity="0.7"></path>
    <path
      d="M34.9831 123.095H37.3916V123.965H31.1491V123.095H33.9345V113.872L31.2802 115.464L30.8214 114.726L34.0983 112.691H34.9831V123.095Z"
      fill="url(#binary36)" fill-opacity="0.7"></path>
    <path
      d="M34.9831 141.849H37.3916V142.719H31.1491V141.849H33.9345V132.627L31.2802 134.218L30.8214 133.48L34.0983 131.445H34.9831V141.849Z"
      fill="url(#binary37)" fill-opacity="0.7"></path>
    <path
      d="M34 150.036C35.1688 150.036 36.0535 150.533 36.6543 151.529C37.266 152.513 37.5718 153.947 37.5718 155.828C37.5718 157.71 37.266 159.149 36.6543 160.144C36.0535 161.14 35.1688 161.637 34 161.637C32.8422 161.637 31.9574 161.14 31.3457 160.144C30.734 159.149 30.4282 157.71 30.4282 155.828C30.4282 153.958 30.734 152.524 31.3457 151.529C31.9574 150.533 32.8422 150.036 34 150.036ZM31.5915 155.828C31.5915 157.163 31.7116 158.208 31.9519 158.963L35.5893 151.693C35.207 151.179 34.6772 150.922 34 150.922C33.2463 150.922 32.6565 151.326 32.2305 152.136C31.8045 152.935 31.5915 154.165 31.5915 155.828ZM34 160.735C34.7646 160.735 35.3599 160.336 35.7859 159.537C36.2119 158.727 36.4249 157.491 36.4249 155.828C36.4249 154.417 36.2884 153.323 36.0153 152.546L32.3779 159.882C32.7712 160.45 33.3119 160.735 34 160.735Z"
      fill="url(#binary38)" fill-opacity="0.7"></path>
    <path
      d="M34.9831 179.358H37.3916V180.228H31.1491V179.358H33.9345V170.136L31.2802 171.727L30.8214 170.989L34.0983 168.954H34.9831V179.358Z"
      fill="url(#binary39)" fill-opacity="0.7"></path>
    <path
      d="M34 187.544C35.1688 187.544 36.0535 188.042 36.6543 189.038C37.266 190.022 37.5718 191.455 37.5718 193.337C37.5718 195.219 37.266 196.657 36.6543 197.653C36.0535 198.649 35.1688 199.146 34 199.146C32.8422 199.146 31.9574 198.649 31.3457 197.653C30.734 196.657 30.4282 195.219 30.4282 193.337C30.4282 191.466 30.734 190.033 31.3457 189.038C31.9574 188.042 32.8422 187.544 34 187.544ZM31.5915 193.337C31.5915 194.672 31.7116 195.717 31.9519 196.471L35.5893 189.202C35.207 188.688 34.6772 188.431 34 188.431C33.2463 188.431 32.6565 188.835 32.2305 189.645C31.8045 190.444 31.5915 191.674 31.5915 193.337ZM34 198.244C34.7646 198.244 35.3599 197.844 35.7859 197.046C36.2119 196.236 36.4249 195 36.4249 193.337C36.4249 191.926 36.2884 190.832 36.0153 190.055L32.3779 197.39C32.7712 197.959 33.3119 198.244 34 198.244Z"
      fill="url(#binary40)" fill-opacity="0.7"></path>
    <path
      d="M64.4282 18.7544C65.597 18.7544 66.4817 19.2522 67.0825 20.2478C67.6942 21.2324 68 22.6655 68 24.5472C68 26.4289 67.6942 27.8675 67.0825 28.8631C66.4817 29.8586 65.597 30.3564 64.4282 30.3564C63.2704 30.3564 62.3856 29.8586 61.7739 28.8631C61.1622 27.8675 60.8564 26.4289 60.8564 24.5472C60.8564 22.6765 61.1622 21.2433 61.7739 20.2478C62.3856 19.2522 63.2704 18.7544 64.4282 18.7544ZM62.0197 24.5472C62.0197 25.8819 62.1398 26.9267 62.3801 27.6816L66.0175 20.4119C65.6352 19.8977 65.1054 19.6406 64.4282 19.6406C63.6745 19.6406 63.0847 20.0454 62.6587 20.8549C62.2327 21.6536 62.0197 22.8843 62.0197 24.5472ZM64.4282 29.4538C65.1928 29.4538 65.7881 29.0545 66.2141 28.2559C66.6401 27.4463 66.8531 26.2101 66.8531 24.5472C66.8531 23.1359 66.7165 22.0419 66.4435 21.2652L62.8061 28.6005C63.1994 29.1694 63.7401 29.4538 64.4282 29.4538Z"
      fill="url(#binary41)" fill-opacity="0.7"></path>
    <path
      d="M65.4113 48.077H67.8198V48.9467H61.5773V48.077H64.3627V38.8545L61.7084 40.4463L61.2496 39.7078L64.5265 37.673H65.4113V48.077Z"
      fill="url(#binary42)" fill-opacity="0.7"></path>
    <path
      d="M65.4113 66.8314H67.8198V67.7012H61.5773V66.8314H64.3627V57.6089L61.7084 59.2007L61.2496 58.4623L64.5265 56.4274H65.4113V66.8314Z"
      fill="url(#binary43)" fill-opacity="0.7"></path>
    <path
      d="M64.4282 75.0178C65.597 75.0178 66.4817 75.5155 67.0825 76.5111C67.6942 77.4957 68 78.9288 68 80.8105C68 82.6922 67.6942 84.1309 67.0825 85.1264C66.4817 86.1219 65.597 86.6197 64.4282 86.6197C63.2704 86.6197 62.3856 86.1219 61.7739 85.1264C61.1622 84.1309 60.8564 82.6922 60.8564 80.8105C60.8564 78.9398 61.1622 77.5066 61.7739 76.5111C62.3856 75.5155 63.2704 75.0178 64.4282 75.0178ZM62.0197 80.8105C62.0197 82.1452 62.1398 83.19 62.3801 83.9449L66.0175 76.6752C65.6352 76.161 65.1054 75.9039 64.4282 75.9039C63.6745 75.9039 63.0847 76.3087 62.6587 77.1182C62.2327 77.9169 62.0197 79.1476 62.0197 80.8105ZM64.4282 85.7172C65.1928 85.7172 65.7881 85.3179 66.2141 84.5192C66.6401 83.7097 66.8531 82.4734 66.8531 80.8105C66.8531 79.3993 66.7165 78.3053 66.4435 77.5285L62.8061 84.8638C63.1994 85.4327 63.7401 85.7172 64.4282 85.7172Z"
      fill="url(#binary44)" fill-opacity="0.7"></path>
    <path
      d="M64.4282 93.7722C65.597 93.7722 66.4817 94.27 67.0825 95.2655C67.6942 96.2501 68 97.6833 68 99.565C68 101.447 67.6942 102.885 67.0825 103.881C66.4817 104.876 65.597 105.374 64.4282 105.374C63.2704 105.374 62.3856 104.876 61.7739 103.881C61.1622 102.885 60.8564 101.447 60.8564 99.565C60.8564 97.6942 61.1622 96.2611 61.7739 95.2655C62.3856 94.27 63.2704 93.7722 64.4282 93.7722ZM62.0197 99.565C62.0197 100.9 62.1398 101.944 62.3801 102.699L66.0175 95.4296C65.6352 94.9154 65.1054 94.6583 64.4282 94.6583C63.6745 94.6583 63.0847 95.0631 62.6587 95.8727C62.2327 96.6713 62.0197 97.9021 62.0197 99.565ZM64.4282 104.472C65.1928 104.472 65.7881 104.072 66.2141 103.274C66.6401 102.464 66.8531 101.228 66.8531 99.565C66.8531 98.1537 66.7165 97.0597 66.4435 96.2829L62.8061 103.618C63.1994 104.187 63.7401 104.472 64.4282 104.472Z"
      fill="url(#binary45)" fill-opacity="0.7"></path>
  </g>
  <defs>
    <filter id="filter0_b" x="-20" y="-20" width="108" height="314" filterUnits="userSpaceOnUse"
      color-interpolation-filters="sRGB">
      <feFlood flood-opacity="0" result="BackgroundImageFix"></feFlood>
      <feGaussianBlur in="BackgroundImage" stdDeviation="10"></feGaussianBlur>
      <feComposite in2="SourceAlpha" operator="in" result="effect1_backgroundBlur"></feComposite>
      <feBlend mode="normal" in="SourceGraphic" in2="effect1_backgroundBlur" result="shape"></feBlend>
    </filter>
    <linearGradient id="binary" x1="34" y1="1.3087e-05" x2="33.9999" y2="274" gradientUnits="userSpaceOnUse">
      <stop stop-color="#7A4CE5"></stop>
      <stop offset="1" stop-color="#04D361"></stop>
    </linearGradient>
    <linearGradient id="binary1" x1="34" y1="1.3087e-05" x2="33.9999" y2="274" gradientUnits="userSpaceOnUse">
      <stop stop-color="#7A4CE5"></stop>
      <stop offset="1" stop-color="#04D361"></stop>
    </linearGradient>
    <linearGradient id="binary2" x1="34" y1="1.3087e-05" x2="33.9999" y2="274" gradientUnits="userSpaceOnUse">
      <stop stop-color="#7A4CE5"></stop>
      <stop offset="1" stop-color="#04D361"></stop>
    </linearGradient>
    <linearGradient id="binary3" x1="34" y1="1.3087e-05" x2="33.9999" y2="274" gradientUnits="userSpaceOnUse">
      <stop stop-color="#7A4CE5"></stop>
      <stop offset="1" stop-color="#04D361"></stop>
    </linearGradient>
    <linearGradient id="binary4" x1="34" y1="1.3087e-05" x2="33.9999" y2="274" gradientUnits="userSpaceOnUse">
      <stop stop-color="#7A4CE5"></stop>
      <stop offset="1" stop-color="#04D361"></stop>
    </linearGradient>
    <linearGradient id="binary4" x1="34" y1="1.3087e-05" x2="33.9999" y2="274" gradientUnits="userSpaceOnUse">
      <stop stop-color="#7A4CE5"></stop>
      <stop offset="1" stop-color="#04D361"></stop>
    </linearGradient>
    <linearGradient id="binary5" x1="34" y1="1.3087e-05" x2="33.9999" y2="274" gradientUnits="userSpaceOnUse">
      <stop stop-color="#7A4CE5"></stop>
      <stop offset="1" stop-color="#04D361"></stop>
    </linearGradient>
    <linearGradient id="binary6" x1="34" y1="1.3087e-05" x2="33.9999" y2="274" gradientUnits="userSpaceOnUse">
      <stop stop-color="#7A4CE5"></stop>
      <stop offset="1" stop-color="#04D361"></stop>
    </linearGradient>
    <linearGradient id="binary7" x1="34" y1="1.3087e-05" x2="33.9999" y2="274" gradientUnits="userSpaceOnUse">
      <stop stop-color="#7A4CE5"></stop>
      <stop offset="1" stop-color="#04D361"></stop>
    </linearGradient>
    <linearGradient id="binary8" x1="34" y1="1.3087e-05" x2="33.9999" y2="274" gradientUnits="userSpaceOnUse">
      <stop stop-color="#7A4CE5"></stop>
      <stop offset="1" stop-color="#04D361"></stop>
    </linearGradient>
    <linearGradient id="binary9" x1="34" y1="1.3087e-05" x2="33.9999" y2="274" gradientUnits="userSpaceOnUse">
      <stop stop-color="#7A4CE5"></stop>
      <stop offset="1" stop-color="#04D361"></stop>
    </linearGradient>
    <linearGradient id="binary10" x1="34" y1="1.3087e-05" x2="33.9999" y2="274" gradientUnits="userSpaceOnUse">
      <stop stop-color="#7A4CE5"></stop>
      <stop offset="1" stop-color="#04D361"></stop>
    </linearGradient>
    <linearGradient id="binary11" x1="34" y1="1.3087e-05" x2="33.9999" y2="274" gradientUnits="userSpaceOnUse">
      <stop stop-color="#7A4CE5"></stop>
      <stop offset="1" stop-color="#04D361"></stop>
    </linearGradient>
    <linearGradient id="binary12" x1="34" y1="1.3087e-05" x2="33.9999" y2="274" gradientUnits="userSpaceOnUse">
      <stop stop-color="#7A4CE5"></stop>
      <stop offset="1" stop-color="#04D361"></stop>
    </linearGradient>
    <linearGradient id="binary13" x1="34" y1="1.3087e-05" x2="33.9999" y2="274" gradientUnits="userSpaceOnUse">
      <stop stop-color="#7A4CE5"></stop>
      <stop offset="1" stop-color="#04D361"></stop>
    </linearGradient>
    <linearGradient id="binary14" x1="34" y1="1.3087e-05" x2="33.9999" y2="274" gradientUnits="userSpaceOnUse">
      <stop stop-color="#7A4CE5"></stop>
      <stop offset="1" stop-color="#04D361"></stop>
    </linearGradient>
    <linearGradient id="binary15" x1="34" y1="1.3087e-05" x2="33.9999" y2="274" gradientUnits="userSpaceOnUse">
      <stop stop-color="#7A4CE5"></stop>
      <stop offset="1" stop-color="#04D361"></stop>
    </linearGradient>
    <linearGradient id="binary16" x1="34" y1="1.3087e-05" x2="33.9999" y2="274" gradientUnits="userSpaceOnUse">
      <stop stop-color="#7A4CE5"></stop>
      <stop offset="1" stop-color="#04D361"></stop>
    </linearGradient>
    <linearGradient id="binary17" x1="34" y1="1.3087e-05" x2="33.9999" y2="274" gradientUnits="userSpaceOnUse">
      <stop stop-color="#7A4CE5"></stop>
      <stop offset="1" stop-color="#04D361"></stop>
    </linearGradient>
    <linearGradient id="binary18" x1="34" y1="1.3087e-05" x2="33.9999" y2="274" gradientUnits="userSpaceOnUse">
      <stop stop-color="#7A4CE5"></stop>
      <stop offset="1" stop-color="#04D361"></stop>
    </linearGradient>
    <linearGradient id="binary19" x1="34" y1="1.3087e-05" x2="33.9999" y2="274" gradientUnits="userSpaceOnUse">
      <stop stop-color="#7A4CE5"></stop>
      <stop offset="1" stop-color="#04D361"></stop>
    </linearGradient>
    <linearGradient id="binary20" x1="34" y1="1.3087e-05" x2="33.9999" y2="274" gradientUnits="userSpaceOnUse">
      <stop stop-color="#7A4CE5"></stop>
      <stop offset="1" stop-color="#04D361"></stop>
    </linearGradient>
    <linearGradient id="binary21" x1="34" y1="1.3087e-05" x2="33.9999" y2="274" gradientUnits="userSpaceOnUse">
      <stop stop-color="#7A4CE5"></stop>
      <stop offset="1" stop-color="#04D361"></stop>
    </linearGradient>
    <linearGradient id="binary22" x1="34" y1="1.3087e-05" x2="33.9999" y2="274" gradientUnits="userSpaceOnUse">
      <stop stop-color="#7A4CE5"></stop>
      <stop offset="1" stop-color="#04D361"></stop>
    </linearGradient>
    <linearGradient id="binary23" x1="34" y1="1.3087e-05" x2="33.9999" y2="274" gradientUnits="userSpaceOnUse">
      <stop stop-color="#7A4CE5"></stop>
      <stop offset="1" stop-color="#04D361"></stop>
    </linearGradient>
    <linearGradient id="binary24" x1="34" y1="1.3087e-05" x2="33.9999" y2="274" gradientUnits="userSpaceOnUse">
      <stop stop-color="#7A4CE5"></stop>
      <stop offset="1" stop-color="#04D361"></stop>
    </linearGradient>
    <linearGradient id="binary25" x1="34" y1="1.3087e-05" x2="33.9999" y2="274" gradientUnits="userSpaceOnUse">
      <stop stop-color="#7A4CE5"></stop>
      <stop offset="1" stop-color="#04D361"></stop>
    </linearGradient>
    <linearGradient id="binary26" x1="34" y1="1.3087e-05" x2="33.9999" y2="274" gradientUnits="userSpaceOnUse">
      <stop stop-color="#7A4CE5"></stop>
      <stop offset="1" stop-color="#04D361"></stop>
    </linearGradient>
    <linearGradient id="binary27" x1="34" y1="1.3087e-05" x2="33.9999" y2="274" gradientUnits="userSpaceOnUse">
      <stop stop-color="#7A4CE5"></stop>
      <stop offset="1" stop-color="#04D361"></stop>
    </linearGradient>
    <linearGradient id="binary28" x1="34" y1="1.3087e-05" x2="33.9999" y2="274" gradientUnits="userSpaceOnUse">
      <stop stop-color="#7A4CE5"></stop>
      <stop offset="1" stop-color="#04D361"></stop>
    </linearGradient>
    <linearGradient id="binary29" x1="34" y1="1.3087e-05" x2="33.9999" y2="274" gradientUnits="userSpaceOnUse">
      <stop stop-color="#7A4CE5"></stop>
      <stop offset="1" stop-color="#04D361"></stop>
    </linearGradient>
    <linearGradient id="binary30" x1="34" y1="1.3087e-05" x2="33.9999" y2="274" gradientUnits="userSpaceOnUse">
      <stop stop-color="#7A4CE5"></stop>
      <stop offset="1" stop-color="#04D361"></stop>
    </linearGradient>
    <linearGradient id="binary31" x1="34" y1="1.3087e-05" x2="33.9999" y2="274" gradientUnits="userSpaceOnUse">
      <stop stop-color="#7A4CE5"></stop>
      <stop offset="1" stop-color="#04D361"></stop>
    </linearGradient>
    <linearGradient id="binary32" x1="34" y1="1.3087e-05" x2="33.9999" y2="274" gradientUnits="userSpaceOnUse">
      <stop stop-color="#7A4CE5"></stop>
      <stop offset="1" stop-color="#04D361"></stop>
    </linearGradient>
    <linearGradient id="binary33" x1="34" y1="1.3087e-05" x2="33.9999" y2="274" gradientUnits="userSpaceOnUse">
      <stop stop-color="#7A4CE5"></stop>
      <stop offset="1" stop-color="#04D361"></stop>
    </linearGradient>
    <linearGradient id="binary34" x1="34" y1="1.3087e-05" x2="33.9999" y2="274" gradientUnits="userSpaceOnUse">
      <stop stop-color="#7A4CE5"></stop>
      <stop offset="1" stop-color="#04D361"></stop>
    </linearGradient>
    <linearGradient id="binary35" x1="34" y1="1.3087e-05" x2="33.9999" y2="274" gradientUnits="userSpaceOnUse">
      <stop stop-color="#7A4CE5"></stop>
      <stop offset="1" stop-color="#04D361"></stop>
    </linearGradient>
    <linearGradient id="binary36" x1="34" y1="1.3087e-05" x2="33.9999" y2="274" gradientUnits="userSpaceOnUse">
      <stop stop-color="#7A4CE5"></stop>
      <stop offset="1" stop-color="#04D361"></stop>
    </linearGradient>
    <linearGradient id="binary37" x1="34" y1="1.3087e-05" x2="33.9999" y2="274" gradientUnits="userSpaceOnUse">
      <stop stop-color="#7A4CE5"></stop>
      <stop offset="1" stop-color="#04D361"></stop>
    </linearGradient>
    <linearGradient id="binary38" x1="34" y1="1.3087e-05" x2="33.9999" y2="274" gradientUnits="userSpaceOnUse">
      <stop stop-color="#7A4CE5"></stop>
      <stop offset="1" stop-color="#04D361"></stop>
    </linearGradient>
    <linearGradient id="binary39" x1="34" y1="1.3087e-05" x2="33.9999" y2="274" gradientUnits="userSpaceOnUse">
      <stop stop-color="#7A4CE5"></stop>
      <stop offset="1" stop-color="#04D361"></stop>
    </linearGradient>
    <linearGradient id="binary40" x1="34" y1="1.3087e-05" x2="33.9999" y2="274" gradientUnits="userSpaceOnUse">
      <stop stop-color="#7A4CE5"></stop>
      <stop offset="1" stop-color="#04D361"></stop>
    </linearGradient>
    <linearGradient id="binary41" x1="34" y1="1.3087e-05" x2="33.9999" y2="274" gradientUnits="userSpaceOnUse">
      <stop stop-color="#7A4CE5"></stop>
      <stop offset="1" stop-color="#04D361"></stop>
    </linearGradient>
    <linearGradient id="binary42" x1="34" y1="1.3087e-05" x2="33.9999" y2="274" gradientUnits="userSpaceOnUse">
      <stop stop-color="#7A4CE5"></stop>
      <stop offset="1" stop-color="#04D361"></stop>
    </linearGradient>
    <linearGradient id="binary43" x1="34" y1="1.3087e-05" x2="33.9999" y2="274" gradientUnits="userSpaceOnUse">
      <stop stop-color="#7A4CE5"></stop>
      <stop offset="1" stop-color="#04D361"></stop>
    </linearGradient>
    <linearGradient id="binary44" x1="34" y1="1.3087e-05" x2="33.9999" y2="274" gradientUnits="userSpaceOnUse">
      <stop stop-color="#7A4CE5"></stop>
      <stop offset="1" stop-color="#04D361"></stop>
    </linearGradient>
    <linearGradient id="binary45" x1="34" y1="1.3087e-05" x2="33.9999" y2="274" gradientUnits="userSpaceOnUse">
      <stop stop-color="#7A4CE5"></stop>
      <stop offset="1" stop-color="#04D361"></stop>
    </linearGradient>
  </defs>
</svg>
