<svg width="64" height="64" viewBox="0 0 64 64" fill="none" xmlns="http://www.w3.org/2000/svg"
  class="styles_icon__3668M">
  <path fill-rule="evenodd" clip-rule="evenodd"
    d="M22.8333 5.33337C22.8333 4.50495 22.1618 3.83337 21.3333 3.83337C20.5049 3.83337 19.8333 4.50495 19.8333 5.33337V9.16663H13.3333C9.55824 9.16663 6.5 12.2249 6.5 16V24V50.6666C6.5 54.4417 9.55824 57.5 13.3333 57.5H50.6667C54.4418 57.5 57.5 54.4417 57.5 50.6666V24V16C57.5 12.2249 54.4418 9.16663 50.6667 9.16663H44.1673V5.33337C44.1673 4.50495 43.4957 3.83337 42.6673 3.83337C41.8389 3.83337 41.1673 4.50495 41.1673 5.33337V9.16663H22.8333V5.33337ZM19.8333 12.1666V16C19.8333 16.8285 20.5049 17.5 21.3333 17.5C22.1618 17.5 22.8333 16.8285 22.8333 16V12.1666H41.1673V16C41.1673 16.8285 41.8389 17.5 42.6673 17.5C43.4957 17.5 44.1673 16.8285 44.1673 16V12.1666H50.6667C52.7849 12.1666 54.5 13.8817 54.5 16V22.5H9.5V16C9.5 13.8817 11.2151 12.1666 13.3333 12.1666H19.8333ZM9.5 25.5V50.6666C9.5 52.7849 11.2151 54.5 13.3333 54.5H50.6667C52.7849 54.5 54.5 52.7849 54.5 50.6666V25.5H9.5Z"
    fill="url(#calendar)"></path>
  <path d="M18.6667 34.6666H45.3334" stroke="white" stroke-width="3" stroke-linecap="round" stroke-linejoin="round">
  </path>
  <path d="M18.6667 45.3333H45.3334" stroke="white" stroke-width="3" stroke-linecap="round" stroke-linejoin="round">
  </path>
  <defs>
    <linearGradient id="calendar" x1="6" y1="4" x2="57" y2="59.5" gradientUnits="userSpaceOnUse">
      <stop offset="0.0870096" stop-color="#04D361"></stop>
      <stop offset="0.817424" stop-color="#8257E6"></stop>
    </linearGradient>
  </defs>
</svg>
