<svg width="58" height="52" viewBox="0 0 58 52" fill="none" xmlns="http://www.w3.org/2000/svg"
  class="styles_icon__3668M">
  <path fill-rule="evenodd" clip-rule="evenodd"
    d="M10.5649 0.5C7.00752 0.5 3.79553 3.08466 3.79553 6.656V36.826C2.08162 37.3427 0.832642 38.934 0.832642 40.816V44.6666C0.832642 48.4417 3.89088 51.5 7.66598 51.5H50.3326C54.1077 51.5 57.166 48.4417 57.166 44.6666V40.816C57.166 38.9313 55.9167 37.3421 54.2035 36.8259V6.656C54.2035 3.08466 50.9915 0.5 47.4342 0.5H10.5649ZM52.6922 39.6493C52.696 39.6493 52.6997 39.6493 52.7035 39.6493C52.7073 39.6493 52.7111 39.6493 52.7149 39.6493H52.9993C53.6439 39.6493 54.166 40.1707 54.166 40.816V44.6666C54.166 46.7849 52.4509 48.5 50.3326 48.5H7.66598C5.54774 48.5 3.83264 46.7849 3.83264 44.6666V40.816C3.83264 40.1724 4.35574 39.6493 4.99931 39.6493H5.28419C5.28797 39.6493 5.29175 39.6493 5.29553 39.6493C5.29931 39.6493 5.30309 39.6493 5.30687 39.6493H15.7193C16.1102 39.6493 16.4752 39.8453 16.6892 40.167L16.6901 40.1684L18.0679 42.2336L18.0688 42.235C18.8416 43.3952 20.1454 44.0893 21.5353 44.0893H36.4606C37.8508 44.0893 39.1548 43.395 39.9275 42.2345L39.9281 42.2336L41.3058 40.1684L41.3067 40.167C41.5208 39.8453 41.8858 39.6493 42.2766 39.6493H52.6922ZM51.2035 36.6493V6.656C51.2035 5.08067 49.6955 3.5 47.4342 3.5H10.5649C8.30354 3.5 6.79553 5.08067 6.79553 6.656V36.6493H15.7193C17.1096 36.6493 18.4137 37.3437 19.1863 38.5043L19.1867 38.5049L20.5645 40.5702L20.5654 40.5716C20.7795 40.8933 21.1445 41.0893 21.5353 41.0893H36.4606C36.8515 41.0893 37.2165 40.8933 37.4305 40.5716L37.4315 40.5702L38.8092 38.5049L38.8098 38.5041C39.5825 37.3436 40.8865 36.6493 42.2766 36.6493H51.2035Z"
    fill="url(#videoContent)"></path>
  <path fill-rule="evenodd" clip-rule="evenodd"
    d="M26.8831 16.7814L34.6458 21.3734C35.6271 21.9521 35.6271 23.3761 34.6458 23.9548L26.8831 28.5468C25.8831 29.1388 24.6191 28.4161 24.6191 27.2561V18.0748C24.6191 16.9121 25.8831 16.1894 26.8831 16.7814Z"
    stroke="#E1E1E6" stroke-width="3" stroke-linecap="round" stroke-linejoin="round"></path>
  <defs>
    <linearGradient id="videoContent" x1="0.280354" y1="0.658346" x2="47.6069" y2="60.5212"
      gradientUnits="userSpaceOnUse">
      <stop offset="0.0870096" stop-color="#04D361"></stop>
      <stop offset="0.817424" stop-color="#8257E6"></stop>
    </linearGradient>
  </defs>
</svg>
