<svg width="85" height="96" viewBox="0 0 85 96" fill="none" xmlns="http://www.w3.org/2000/svg"
  class="styles_icon__LV0fE">
  <path
    d="M79.289 21.4234L79.7932 20.5598L79.289 21.4234C81.6491 22.8012 83.0948 25.3644 83.0615 28.1306L82.597 66.7427C82.5645 69.4091 81.162 71.8608 78.9036 73.2168L46.0697 92.9301C43.7276 94.3361 40.8191 94.3543 38.4607 92.9774L5.22864 73.5741L4.72442 74.4376L5.22859 73.574C2.92225 72.2276 1.48463 69.7459 1.45581 67.0426L1.03804 27.9149C1.00823 25.123 2.48499 22.5422 4.88154 21.1776L38.598 1.97967L38.1033 1.1109L38.598 1.97965C40.9172 0.659076 43.7519 0.674545 46.057 2.02035C46.057 2.02035 46.0571 2.02036 46.0571 2.02036L79.289 21.4234Z"
    fill="#121214" stroke="url(#elixir0123123)" stroke-width="1.99999"></path>
  <path
    d="M70.3565 27.943L45.4325 13.8758C43.4726 12.7696 41.061 12.7569 39.089 13.8423L13.8016 27.7608C11.765 28.8819 10.5149 30.9985 10.5402 33.2832L10.8535 61.6507C10.8779 63.8629 12.095 65.8983 14.0549 67.0044L38.979 81.0718C40.9844 82.2036 43.4587 82.1886 45.4499 81.033L70.0754 66.7408C71.9945 65.6269 73.1817 63.6163 73.2093 61.4344L73.5576 33.4405C73.5858 31.177 72.3621 29.0749 70.3565 27.943Z"
    fill="url(#elixir1123123)"></path>
  <path
    d="M43.0446 70.332C33.984 70.332 26.6389 62.6075 26.6389 53.0792C26.6389 45.2732 33.1493 35.7353 38.1767 29.9263C40.5571 27.1759 45.0553 24.999 45.0553 24.999C45.0553 24.999 42.7501 36.1152 49.0035 40.5301C54.5543 44.4492 58.6388 49.5477 58.6388 54.0329C58.6388 63.0143 52.1054 70.3322 43.0449 70.3322L43.0446 70.332Z"
    fill="#B13AF0"></path>
  <defs>
    <linearGradient id="elixir0123123" x1="21.0437" y1="10.0935" x2="65.3084" y2="79.4615"
      gradientUnits="userSpaceOnUse">
      <stop stop-color="#B13AF0"></stop>
      <stop offset="1" stop-color="#B13AF0" stop-opacity="0.24"></stop>
    </linearGradient>
    <linearGradient id="elixir1123123" x1="10.575" y1="13.0447" x2="78.8489" y2="75.5356"
      gradientUnits="userSpaceOnUse">
      <stop stop-color="#2E2340"></stop>
      <stop offset="1" stop-color="#121214"></stop>
    </linearGradient>
  </defs>
</svg>
