<svg width="85" height="96" viewBox="0 0 85 96" fill="none" xmlns="http://www.w3.org/2000/svg"
  class="styles_icon__LV0fE">
  <path
    d="M79.289 21.4234L79.7932 20.5598L79.289 21.4234C81.6491 22.8012 83.0948 25.3644 83.0615 28.1306L82.597 66.7427C82.5645 69.4091 81.162 71.8608 78.9036 73.2168L46.0697 92.9301C43.7276 94.3361 40.8191 94.3543 38.4607 92.9774L5.22864 73.5741L4.72442 74.4376L5.22859 73.574C2.92225 72.2276 1.48463 69.7459 1.45581 67.0426L1.03804 27.9149C1.00823 25.123 2.48499 22.5422 4.88154 21.1776L38.598 1.97967L38.1033 1.1109L38.598 1.97965C40.9172 0.659076 43.7519 0.674545 46.057 2.02035C46.057 2.02035 46.0571 2.02036 46.0571 2.02036L79.289 21.4234Z"
    fill="#121214" stroke="url(#nodejs123)" stroke-width="1.99999"></path>
  <path
    d="M70.3565 27.943L45.4325 13.8758C43.4726 12.7696 41.061 12.7569 39.089 13.8423L13.8016 27.7608C11.765 28.8819 10.5149 30.9985 10.5402 33.2832L10.8535 61.6507C10.8779 63.8629 12.095 65.8983 14.0549 67.0044L38.979 81.0718C40.9844 82.2036 43.4587 82.1886 45.4499 81.033L70.0754 66.7408C71.9945 65.6269 73.1817 63.6163 73.2093 61.4344L73.5576 33.4405C73.5858 31.177 72.3621 29.0749 70.3565 27.943Z"
    fill="url(#nodejs1123)"></path>
  <path
    d="M40.8778 24.1789C41.4658 23.8432 42.1283 23.667 42.8019 23.667C43.4756 23.667 44.138 23.8432 44.726 24.1789C50.5852 27.5588 56.4449 30.9382 62.3051 34.3171C62.8562 34.6375 63.3151 35.1001 63.6359 35.6587C63.9567 36.2172 64.1281 36.852 64.133 37.4995V57.8424C64.1215 58.5138 63.9331 59.1695 63.5874 59.7407C63.2418 60.3119 62.7518 60.7775 62.1689 61.0884C56.3285 64.4501 50.4895 67.8134 44.652 71.1782C44.053 71.5165 43.376 71.6847 42.6917 71.6653C42.0074 71.6459 41.3406 71.4396 40.7609 71.0679C39.0104 70.0313 37.2585 68.9972 35.5051 67.9656C35.1203 67.7875 34.7752 67.5309 34.4912 67.2115C34.7147 66.9093 35.1143 66.8654 35.4385 66.731C36.1578 66.4681 36.8515 66.1373 37.5106 65.7427C37.5936 65.6926 37.6894 65.6691 37.7857 65.675C37.8819 65.6809 37.9743 65.7161 38.0508 65.7759C39.5487 66.6524 41.0317 67.5545 42.534 68.4219C42.8552 68.6108 43.1793 68.36 43.4532 68.2043C49.1841 64.8969 54.9169 61.5936 60.6518 58.2943C60.7541 58.2422 60.8386 58.1598 60.8943 58.0579C60.95 57.956 60.9743 57.8393 60.9641 57.7231C60.9641 51.0146 60.9641 44.3052 60.9641 37.5947C60.9745 37.4642 60.9448 37.3336 60.879 37.2211C60.8131 37.1087 60.7146 37.0201 60.597 36.9676C54.7753 33.6209 48.9566 30.2728 43.1409 26.9231C43.0399 26.8526 42.9205 26.8149 42.7982 26.8149C42.6759 26.8149 42.5565 26.8526 42.4556 26.9231C36.6339 30.2718 30.8157 33.6214 25.0009 36.9721C24.8829 37.0233 24.7837 37.1111 24.7175 37.2232C24.6514 37.3353 24.6215 37.4658 24.6323 37.5962C24.6323 44.3047 24.6323 51.0141 24.6323 57.7246C24.6223 57.8405 24.6472 57.9569 24.7038 58.0579C24.7605 58.159 24.8461 58.2399 24.9491 58.2897C26.5022 59.1884 28.0558 60.0845 29.6099 60.9781C30.0409 61.25 30.5232 61.4262 31.0254 61.4949C31.5275 61.5637 32.0382 61.5235 32.5242 61.377C32.9452 61.2149 33.3079 60.9256 33.5636 60.5475C33.8193 60.1695 33.956 59.7208 33.9554 59.2614C33.9628 52.5912 33.9554 45.9211 33.9554 39.2524C33.9537 39.1817 33.9666 39.1113 33.9934 39.0461C34.0202 38.9808 34.0602 38.922 34.1108 38.8736C34.1614 38.8252 34.2214 38.7883 34.287 38.7653C34.3526 38.7423 34.4222 38.7337 34.4912 38.7402C35.2313 38.7402 35.9846 38.7296 36.7306 38.7402C36.8028 38.7436 36.8734 38.7624 36.938 38.7955C37.0026 38.8285 37.0597 38.875 37.1056 38.932C37.1515 38.9889 37.1851 39.0551 37.2044 39.1262C37.2237 39.1973 37.2282 39.2717 37.2175 39.3446C37.2175 46.0571 37.2249 52.7696 37.2175 59.4805C37.2672 60.3923 37.0764 61.301 36.6651 62.1119C36.2538 62.9228 35.637 63.6062 34.879 64.091C33.866 64.573 32.757 64.8077 31.6398 64.7765C30.5226 64.7453 29.4278 64.449 28.4421 63.9112C26.7341 63.0408 25.1045 62.0147 23.4275 61.0823C22.8455 60.7723 22.3561 60.3077 22.011 59.7375C21.6658 59.1673 21.4777 58.5126 21.4664 57.8424V37.4995C21.4715 36.8385 21.6498 36.1909 21.983 35.624C22.3162 35.0572 22.792 34.5918 23.3609 34.2763C29.2024 30.9125 35.0413 27.5467 40.8778 24.1789Z"
    fill="#8CC84B"></path>
  <path
    d="M45.9713 38.2671C48.5516 37.9261 51.1737 38.3358 53.5361 39.4489C54.3922 39.9702 55.0999 40.7109 55.5893 41.5976C56.0787 42.4842 56.3327 43.486 56.326 44.5038C56.2928 44.6311 56.2156 44.7418 56.1087 44.8156C56.0019 44.8895 55.8725 44.9215 55.7444 44.9057C55.0043 44.9057 54.2643 44.9163 53.5242 44.9057C53.3822 44.8964 53.2488 44.8333 53.1499 44.7287C53.0511 44.6242 52.9941 44.4858 52.9899 44.3406C52.9062 43.8477 52.7184 43.3794 52.4396 42.9681C52.1607 42.5568 51.7975 42.2124 51.3751 41.9589C49.9698 41.3892 48.4522 41.1675 46.9467 41.3122C45.8374 41.2767 44.7401 41.5555 43.7764 42.1176C43.4445 42.3803 43.2016 42.7426 43.0819 43.1535C42.9622 43.5645 42.9716 44.0034 43.1089 44.4086C43.3457 44.9843 43.9969 45.1642 44.5297 45.341C47.5994 46.16 50.8512 46.0784 53.8617 47.1544C54.5082 47.3376 55.105 47.6696 55.6063 48.1248C56.1077 48.5801 56.5002 49.1466 56.7538 49.7808C57.0557 50.6807 57.1287 51.6441 56.9658 52.5807C56.803 53.5172 56.4097 54.3961 55.8228 55.1349C54.7613 56.2599 53.3824 57.0185 51.8784 57.305C49.9193 57.7112 47.9097 57.7984 45.924 57.5634C44.0182 57.4525 42.1909 56.7508 40.6859 55.552C40.0888 54.9934 39.62 54.3069 39.3129 53.5417C39.0059 52.7766 38.8683 51.9516 38.9098 51.1257C38.9233 50.9922 38.988 50.8696 39.0898 50.7846C39.1916 50.6996 39.3222 50.6593 39.453 50.6724C40.1931 50.6724 40.9405 50.6648 41.685 50.6724C41.7539 50.6708 41.8225 50.6832 41.8867 50.7088C41.9508 50.7344 42.0094 50.7728 42.059 50.8217C42.1085 50.8707 42.1481 50.9291 42.1754 50.9938C42.2026 51.0584 42.2171 51.1279 42.2178 51.1983C42.255 51.6676 42.3858 52.1242 42.6021 52.54C42.8185 52.9558 43.1158 53.322 43.4759 53.6162C45.0695 54.4167 46.8502 54.7475 48.6177 54.5712C50.0972 54.6848 51.5737 54.3143 52.833 53.5134C53.1226 53.2244 53.3333 52.8634 53.4444 52.4658C53.5555 52.0683 53.5631 51.6481 53.4665 51.2466C53.2859 50.5757 52.5977 50.2629 52.0071 50.0589C48.9774 49.0796 45.6886 49.4347 42.6826 48.3286C42.0532 48.1406 41.4712 47.8154 40.9767 47.3756C40.4823 46.9357 40.0872 46.3916 39.8186 45.7807C39.4738 44.8688 39.3867 43.8764 39.5673 42.9165C39.7478 41.9565 40.1888 41.0677 40.8399 40.351C42.2584 39.0726 44.0646 38.3314 45.9551 38.252L45.9713 38.2671Z"
    fill="#8CC84B"></path>
  <defs>
    <linearGradient id="nodejs123" x1="22.2107" y1="9.49975" x2="64.1467" y2="83.095" gradientUnits="userSpaceOnUse">
      <stop stop-color="#8CC84B"></stop>
      <stop offset="1" stop-color="#8CC84B" stop-opacity="0.25"></stop>
    </linearGradient>
    <linearGradient id="nodejs1123" x1="10.5515" y1="13.227" x2="79.2502" y2="76.1068" gradientUnits="userSpaceOnUse">
      <stop stop-color="#21381B"></stop>
      <stop offset="1" stop-color="#121214"></stop>
    </linearGradient>
  </defs>
</svg>
