<svg width="85" height="96" viewBox="0 0 85 96" fill="none" xmlns="http://www.w3.org/2000/svg"
  class="styles_icon__LV0fE">
  <path
    d="M79.289 21.4234L79.7932 20.5598L79.289 21.4234C81.6491 22.8012 83.0948 25.3644 83.0615 28.1306L82.597 66.7427C82.5645 69.4091 81.162 71.8608 78.9036 73.2168L46.0697 92.9301C43.7276 94.3361 40.8191 94.3543 38.4607 92.9774L5.22864 73.5741L4.72442 74.4376L5.22859 73.574C2.92225 72.2276 1.48463 69.7459 1.45581 67.0426L1.03804 27.9149C1.00823 25.123 2.48499 22.5422 4.88154 21.1776L38.598 1.97967L38.1033 1.1109L38.598 1.97965C40.9172 0.659076 43.7519 0.674545 46.057 2.02035C46.057 2.02035 46.0571 2.02036 46.0571 2.02036L79.289 21.4234Z"
    fill="#121214" stroke="url(#origin123)" stroke-width="1.99999"></path>
  <path
    d="M70.3565 27.943L45.4325 13.8758C43.4726 12.7696 41.061 12.7569 39.089 13.8423L13.8016 27.7608C11.765 28.8819 10.5149 30.9985 10.5402 33.2832L10.8535 61.6507C10.8779 63.8629 12.095 65.8983 14.0549 67.0044L38.979 81.0718C40.9844 82.2036 43.4587 82.1886 45.4499 81.033L70.0754 66.7408C71.9945 65.6269 73.1817 63.6163 73.2093 61.4344L73.5576 33.4405C73.5858 31.177 72.3621 29.0749 70.3565 27.943Z"
    fill="url(#origin2123)"></path>
  <path
    d="M69.9438 67.25C64.457 77.5639 54.1922 83.9706 42.9719 83.9706C31.7516 83.9706 21.4869 77.5926 16 67.25H69.9438Z"
    fill="url(#origin1123)"></path>
  <path
    d="M50.6184 25.0805V31.7747C49.9523 32.1077 47.1214 33.4399 42.9584 33.4399C38.7953 33.4399 35.9644 32.141 35.2983 31.7747V25.0805C35.2983 20.218 40.727 8.89453 42.9584 8.89453C45.2231 8.89453 50.6184 20.218 50.6184 25.0805Z"
    fill="white"></path>
  <path
    d="M47.6877 20.5497C47.3879 20.3166 46.0557 19.2842 42.9584 19.2842C39.8611 19.2842 38.5289 20.2833 38.2292 20.5497C38.1959 20.5831 38.1626 20.6164 38.1626 20.683V21.5489C38.1626 21.6821 38.3291 21.782 38.429 21.6821C38.9619 21.3158 40.3274 20.6164 42.9251 20.6164C45.5229 20.6164 46.8884 21.3158 47.4212 21.6821C47.5544 21.7487 47.6877 21.6821 47.6877 21.5489V20.683C47.7543 20.6497 47.7543 20.5831 47.6877 20.5497Z"
    fill="#4763FF"></path>
  <path
    d="M50.6187 49.6924C50.6187 49.6924 59.844 57.0527 60.4101 67.5768C60.4435 68.1763 59.8773 68.6093 59.3111 68.4428C56.6134 67.6102 54.7484 64.0466 50.6187 64.0466V49.6924Z"
    fill="#4763FF"></path>
  <path
    d="M35.332 49.6924C35.332 49.6924 26.1066 57.0527 25.5405 67.5768C25.5072 68.1763 26.0733 68.6093 26.6395 68.4428C29.3372 67.6102 31.2022 64.0466 35.332 64.0466V49.6924Z"
    fill="#4763FF"></path>
  <path
    d="M50.6186 36.1045C50.6186 47.1949 50.6186 64.0469 50.6186 64.0469H35.2986C35.2986 64.0469 35.2986 47.1949 35.2986 36.1045C35.9647 36.4375 38.7955 37.7697 42.9586 37.7697C47.1216 37.7697 49.9525 36.4708 50.6186 36.1045Z"
    fill="white"></path>
  <path
    d="M42.9586 49.6924C42.1259 49.6924 41.0935 58.4847 41.0935 67.9432C41.0935 69.4419 42.026 70.9073 42.9586 70.9073C43.8911 70.9073 44.8236 69.4086 44.8236 67.9432C44.8569 58.4847 43.8245 49.6924 42.9586 49.6924Z"
    fill="#4763FF"></path>
  <path
    d="M42.9586 64.0469H35.2986L36.9638 67.6105C36.9638 67.6105 41.5265 68.0767 42.9586 68.0767C44.3907 68.0767 48.9534 67.6105 48.9534 67.6105L50.6186 64.0469H42.9586Z"
    fill="#4763FF"></path>
  <path
    d="M43.3581 6.36288V4.33131H44.224V2H22.01V62.7805H23.5087V57.7849L26.8725 54.4211L29.2038 56.7524L29.2704 56.819L30.1363 55.5202L27.9382 53.3221L30.1363 51.124V53.3221H31.635V4.298H42.5255V6.32957C41.7595 6.49609 41.2267 7.16218 41.2267 7.99479C41.2267 8.56097 41.5264 9.09384 41.9593 9.39358C42.0593 9.46019 42.1592 9.52679 42.2591 9.5601V10.7924H43.558V9.5601C43.6579 9.52679 43.7911 9.46019 43.891 9.39358C44.324 9.09384 44.6237 8.59427 44.6237 7.99479C44.657 7.19549 44.0908 6.5294 43.3581 6.36288ZM30.1363 4.298L26.9058 7.52853L23.6752 4.298H30.1363ZM30.1696 6.42949V10.7924L27.9715 8.59427L30.1696 6.42949ZM23.542 6.32957L25.84 8.62758L23.542 10.9256V6.32957ZM23.542 13.0571L26.9058 9.69332L30.1696 12.9571V13.2569L26.9058 16.5207L23.542 13.157V13.0571ZM30.1696 15.3551V19.7179L27.9715 17.5199L30.1696 15.3551ZM23.542 15.2552L25.84 17.5532L23.542 19.8512V15.2552ZM23.542 24.1807L25.84 26.4787L23.542 28.7767V24.1807ZM23.542 33.1396L25.84 35.4376L23.542 37.7356V33.1396ZM23.542 42.0652L25.84 44.3632L23.542 46.6612V42.0652ZM23.542 55.6201V51.0241L25.84 53.3221L23.542 55.6201ZM30.1696 48.9925L26.9058 52.2563L23.542 48.8926V48.826L26.9058 45.4622L30.1696 48.7261V48.9925ZM30.1696 46.5613L27.9715 44.3632L30.1696 42.1651V46.5613ZM30.1696 40.0336L26.9058 43.2975L23.542 39.9337V39.8671L26.9058 36.5034L30.1696 39.7672V40.0336ZM30.1696 37.6357L27.9715 35.4376L30.1696 33.2395V37.6357ZM30.1696 31.108L26.9058 34.3719L23.542 31.0081V30.9415L26.9058 27.5778L30.1696 30.8416V31.108ZM30.1696 28.6768L27.9715 26.4787L30.1696 24.2806V28.6768ZM30.1696 21.8827V22.1825L26.9058 25.4463L25.0074 23.5479L23.542 22.0826V22.0159L26.9058 18.6522L30.1696 21.8827Z"
    fill="url(#origin2123)"></path>
  <defs>
    <linearGradient id="origin123" x1="21.6272" y1="10.0935" x2="65.3319" y2="83.0522" gradientUnits="userSpaceOnUse">
      <stop stop-color="#222A5B"></stop>
      <stop offset="1" stop-color="#4763FF" stop-opacity="0.2"></stop>
    </linearGradient>
    <linearGradient id="origin2123" x1="10.5543" y1="13.2241" x2="79.0939" y2="75.9582" gradientUnits="userSpaceOnUse">
      <stop stop-color="#2D3B8A"></stop>
      <stop offset="1" stop-color="#121214"></stop>
    </linearGradient>
    <radialGradient id="origin1123" cx="0" cy="0" r="1" gradientUnits="userSpaceOnUse"
      gradientTransform="translate(43.0455 67.2073) scale(33.8994 18.6836)">
      <stop stop-color="#3243A1"></stop>
      <stop offset="0.5294" stop-color="#3243A1" stop-opacity="0"></stop>
    </radialGradient>
    <linearGradient id="origin2123" x1="33.3409" y1="25.2871" x2="33.3409" y2="62.5585" gradientUnits="userSpaceOnUse">
      <stop stop-color="#3F57DC"></stop>
      <stop offset="0.677" stop-color="#3F57DC" stop-opacity="0"></stop>
    </linearGradient>
  </defs>
</svg>
