<svg width="85" height="96" viewBox="0 0 85 96" fill="none" xmlns="http://www.w3.org/2000/svg"
  class="styles_icon__LV0fE">
  <path
    d="M79.289 21.4234L79.7932 20.5598L79.289 21.4234C81.6491 22.8012 83.0948 25.3644 83.0615 28.1306L82.597 66.7427C82.5645 69.4091 81.162 71.8608 78.9036 73.2168L46.0697 92.9301C43.7276 94.3361 40.8191 94.3543 38.4607 92.9774L5.22864 73.5741L4.72442 74.4376L5.22859 73.574C2.92225 72.2276 1.48463 69.7459 1.45581 67.0426L1.03804 27.9149C1.00823 25.123 2.48499 22.5422 4.88154 21.1776L38.598 1.97967L38.1033 1.1109L38.598 1.97965C40.9172 0.659076 43.7519 0.674545 46.057 2.02035C46.057 2.02035 46.0571 2.02036 46.0571 2.02036L79.289 21.4234Z"
    fill="#121214" stroke="url(#reactnative)" stroke-width="1.99999"></path>
  <path
    d="M70.3565 27.943L45.4325 13.8758C43.4726 12.7696 41.061 12.7569 39.089 13.8423L13.8016 27.7608C11.765 28.8819 10.5149 30.9985 10.5402 33.2832L10.8535 61.6507C10.8779 63.8629 12.095 65.8983 14.0549 67.0044L38.979 81.0718C40.9844 82.2036 43.4587 82.1886 45.4499 81.033L70.0754 66.7408C71.9945 65.6269 73.1817 63.6163 73.2093 61.4344L73.5576 33.4405C73.5858 31.177 72.3621 29.0749 70.3565 27.943Z"
    fill="url(#reactnative1)"></path>
  <path
    d="M43.6735 64.9586C43.2469 64.5769 42.8017 64.1939 42.3765 63.7697C42.0366 64.0875 41.718 64.3854 41.3809 64.682C37.1726 68.3524 32.8349 69.8804 30.2636 68.395C27.7761 66.9733 26.9925 62.7736 27.988 57.4901C28.0942 56.9174 28.2217 56.3446 28.3706 55.7719C27.924 55.6389 27.4988 55.5166 27.0735 55.3729C21.7787 53.5444 18.2928 50.5748 18.2928 47.6039C18.2928 44.7407 21.5454 41.9613 26.6256 40.1793C27.1944 39.9878 27.7946 39.7976 28.4118 39.6274C28.2696 39.0755 28.1573 38.5449 28.0506 38.0315C26.9868 32.6682 27.7306 28.3834 30.2394 26.9405C32.8534 25.4125 37.1911 27.0469 41.5473 30.8862C41.8019 31.1189 42.0579 31.3742 42.3338 31.6282C42.7377 31.2466 43.1203 30.8649 43.5242 30.5258C47.6486 26.9352 51.7502 25.4337 54.259 26.8766C56.873 28.3608 57.6396 32.9435 56.4705 38.6087C56.4065 38.9704 56.3283 39.3095 56.2373 39.6726C56.7692 39.8215 57.2997 39.9904 57.7889 40.1606C62.9757 41.9427 66.335 44.7221 66.2923 47.6491C66.2923 50.64 62.6998 53.5896 57.1902 55.4142C56.8929 55.4993 56.5957 55.6057 56.297 55.6894C56.425 56.1137 56.5089 56.5379 56.5943 56.9621C57.6993 62.4571 56.8489 66.9547 54.2775 68.4402C53.6022 68.8203 52.8256 69.014 52.0375 68.9987C49.6809 68.9947 46.6886 67.5438 43.6735 64.9586ZM47.8406 57.1722C46.6195 58.9484 45.2775 60.6493 43.8229 62.2643C44.2268 62.6632 44.6307 63.029 45.0346 63.3681C48.5417 66.3802 51.773 67.5053 53.2834 66.6355C53.7446 66.2641 54.1215 65.8099 54.3917 65.2998C54.6619 64.7897 54.8199 64.2342 54.8563 63.666C55.1632 61.5606 55.0766 59.4214 54.6003 57.3438C54.5363 56.9621 54.4581 56.5805 54.3458 56.1775C52.2039 56.6462 50.0306 56.9786 47.8406 57.1722ZM30.026 57.8518C29.1557 62.3733 29.7928 65.7432 31.306 66.6143C31.8421 66.8238 32.421 66.9205 33.0015 66.8975C33.582 66.8745 34.15 66.7324 34.6653 66.4813C36.6698 65.6936 38.4953 64.5557 40.0441 63.1287C40.3626 62.8734 40.6599 62.5768 40.9799 62.2802C39.4932 60.6647 38.1158 58.9641 36.8555 57.1882C34.6739 57.0178 32.5074 56.7068 30.3716 56.2573C30.2394 56.8118 30.1327 57.3411 30.026 57.8518ZM42.3992 60.8214C43.3351 59.7814 44.2694 58.6364 45.2053 57.3637C44.2694 57.4063 43.2924 57.4276 42.3139 57.4276C41.3354 57.4276 40.4224 57.4063 39.5079 57.3637C40.4636 58.6138 41.4208 59.7814 42.3978 60.8214H42.3992ZM37.9335 40.1154C37.1257 41.2817 36.3392 42.5092 35.5954 43.8071C34.8516 45.0798 34.1732 46.3738 33.5545 47.6637C34.1931 48.9364 34.8729 50.2304 35.6167 51.5469C36.3606 52.8196 37.147 54.0737 37.9548 55.2586C39.3571 55.3437 40.8249 55.3916 42.3125 55.3916C43.8001 55.3916 45.2877 55.349 46.7128 55.2439C47.4779 54.0777 48.2644 52.8249 49.0097 51.531C49.7549 50.237 50.4546 48.9218 51.0719 47.6491C50.4546 46.3977 49.7535 45.1037 49.0097 43.8085C48.2658 42.5132 47.4794 41.2817 46.6929 40.1168C45.2707 40.0104 43.8015 39.9465 42.3139 39.9465C40.8263 39.9465 39.3586 40.009 37.9335 40.1154ZM30.9192 54.3077C32.3777 54.6192 33.854 54.8532 35.3408 55.0086C34.8303 54.2027 34.3211 53.3954 33.8319 52.547C33.364 51.7198 32.8961 50.8926 32.4708 50.0655C31.855 51.507 31.3444 52.9313 30.9192 54.3077ZM50.7945 52.5257C50.3053 53.3742 49.816 54.1801 49.3282 54.966C50.8374 54.7892 52.3349 54.5344 53.8139 54.2027C53.3521 52.7706 52.8128 51.3613 52.1982 49.9803C51.7517 50.8288 51.2838 51.6772 50.7945 52.5257ZM27.284 42.1302C22.9477 43.6582 20.3337 45.883 20.3337 47.6252C20.4164 48.1856 20.6166 48.7253 20.9229 49.2132C21.2292 49.7011 21.6355 50.1277 22.1186 50.4684C23.7777 51.773 25.6803 52.7798 27.7306 53.438C28.1132 53.571 28.5171 53.672 28.921 53.7997C29.574 51.7129 30.3619 49.6652 31.2804 47.6677C30.3601 45.7045 29.5791 43.6867 28.9423 41.6275C28.3687 41.7711 27.8159 41.9387 27.284 42.1302ZM53.3673 47.6252C54.3106 49.5972 55.1181 51.6236 55.785 53.692C56.0624 53.6069 56.3383 53.5218 56.5929 53.4367C61.3331 51.8674 64.2728 49.4697 64.2884 47.6026C64.2884 45.8631 61.5677 43.613 57.1248 42.0863C56.6782 41.9387 56.1904 41.7897 55.7026 41.6408C55.0585 43.6792 54.2786 45.6779 53.3673 47.6252ZM50.7746 42.7459C51.2639 43.5943 51.7318 44.4228 52.1556 45.25C52.7462 43.8982 53.257 42.517 53.6859 41.1128C52.242 40.7848 50.7802 40.53 49.3069 40.3495C49.8175 41.1328 50.3053 41.9187 50.7732 42.7459H50.7746ZM30.9405 41.0955C31.3672 42.4533 31.8763 43.8324 32.4708 45.2527C32.8975 44.4255 33.364 43.5983 33.8319 42.7712C34.2998 41.944 34.7876 41.1381 35.2982 40.3521C33.7679 40.5397 32.3229 40.7937 30.9405 41.0955ZM44.8639 32.0791C44.5027 32.3969 44.1414 32.736 43.7788 33.0765C45.255 34.6716 46.6116 36.3601 47.8392 38.1299C50.0025 38.3252 52.1479 38.6656 54.259 39.1486C54.3443 38.8308 54.4012 38.5116 54.4723 38.1938C55.4679 33.3145 54.8549 29.5803 53.2393 28.648C52.8847 28.4619 52.4824 28.3699 52.0759 28.3821C50.3394 28.3741 47.6742 29.6388 44.8639 32.0751V32.0791ZM31.2591 28.7012C29.7501 29.5709 29.1542 33.0499 30.0474 37.6326C30.154 38.1206 30.2607 38.6074 30.3873 39.1167C32.5012 38.6515 34.6459 38.3183 36.8071 38.1193C38.0391 36.3473 39.403 34.6586 40.8889 33.0658C40.6556 32.8318 40.3996 32.6203 40.1664 32.4075C37.2082 29.7917 34.3638 28.4113 32.5064 28.4113C32.0698 28.3974 31.6378 28.4978 31.2591 28.7012ZM45.1612 37.9504C44.2845 36.7643 43.3387 35.6242 42.3281 34.5353C41.3724 35.5739 40.4153 36.7203 39.4837 37.9504C40.4195 37.9079 41.3539 37.8866 42.3111 37.8866C43.2682 37.8866 44.2268 37.9039 45.1626 37.9504H45.1612ZM38.0615 47.7103C38.0416 47.165 38.1369 46.6214 38.3421 46.1107C38.5472 45.6 38.8581 45.1321 39.257 44.7339C39.6559 44.3358 40.1348 44.0151 40.6665 43.7903C41.1981 43.5656 41.772 43.4411 42.3552 43.4241C43.5318 43.4616 44.6446 43.9339 45.4494 44.7373C46.2543 45.5408 46.6856 46.6099 46.6488 47.7103C46.6868 48.8115 46.2558 49.8819 45.4505 50.6863C44.6452 51.4906 43.5314 51.9633 42.3537 52.0004C41.7702 51.9834 41.1961 51.8588 40.6642 51.6338C40.1324 51.4088 39.6533 51.0877 39.2545 50.6891C38.8557 50.2905 38.545 49.8221 38.3403 49.3109C38.1355 48.7998 38.0408 48.2558 38.0615 47.7103Z"
    fill="#4763FF"></path>
  <defs>
    <linearGradient id="reactnative" x1="21.6272" y1="10.0935" x2="65.3319" y2="83.0522" gradientUnits="userSpaceOnUse">
      <stop stop-color="#4763FF"></stop>
      <stop offset="1" stop-color="#4763FF" stop-opacity="0.25"></stop>
    </linearGradient>
    <linearGradient id="reactnative1" x1="10.5543" y1="13.2241" x2="79.0939" y2="75.9582"
      gradientUnits="userSpaceOnUse">
      <stop stop-color="#153779"></stop>
      <stop offset="1" stop-color="#121214"></stop>
    </linearGradient>
  </defs>
</svg>
