<svg width="85" height="96" viewBox="0 0 85 96" fill="none" xmlns="http://www.w3.org/2000/svg"
  class="styles_icon__LV0fE">
  <path
    d="M79.289 21.4234L79.7932 20.5598L79.289 21.4234C81.6491 22.8012 83.0948 25.3644 83.0615 28.1306L82.597 66.7427C82.5645 69.4091 81.162 71.8608 78.9036 73.2168L46.0697 92.9301C43.7276 94.3361 40.8191 94.3543 38.4607 92.9774L5.22864 73.5741L4.72442 74.4376L5.22859 73.574C2.92225 72.2276 1.48463 69.7459 1.45581 67.0426L1.03804 27.9149C1.00823 25.123 2.48499 22.5422 4.88154 21.1776L38.598 1.97967L38.1033 1.1109L38.598 1.97965C40.9172 0.659076 43.7519 0.674545 46.057 2.02035C46.057 2.02035 46.0571 2.02036 46.0571 2.02036L79.289 21.4234Z"
    fill="#121214" stroke="url(#react0123123)" stroke-width="1.99999"></path>
  <path
    d="M70.3565 27.943L45.4325 13.8758C43.4726 12.7696 41.061 12.7569 39.089 13.8423L13.8016 27.7608C11.765 28.8819 10.5149 30.9985 10.5402 33.2832L10.8535 61.6507C10.8779 63.8629 12.095 65.8983 14.0549 67.0044L38.979 81.0718C40.9844 82.2036 43.4587 82.1886 45.4499 81.033L70.0754 66.7408C71.9945 65.6269 73.1817 63.6163 73.2093 61.4344L73.5576 33.4405C73.5858 31.177 72.3621 29.0749 70.3565 27.943Z"
    fill="url(#react1123123)"></path>
  <path
    d="M43.3807 64.6256C42.954 64.2439 42.5089 63.8609 42.0836 63.4367C41.7437 63.7545 41.4252 64.0524 41.0881 64.349C36.8798 68.0194 32.5421 69.5474 29.9707 68.0619C27.4833 66.6403 26.6996 62.4406 27.6952 57.1571C27.8014 56.5843 27.9289 56.0116 28.0778 55.4389C27.6312 55.3059 27.2059 55.1836 26.7807 55.0399C21.4858 53.2114 18 50.2418 18 47.2709C18 44.4077 21.2526 41.6283 26.3327 39.8463C26.9016 39.6548 27.5018 39.4646 28.119 39.2944C27.9768 38.7425 27.8644 38.2119 27.7578 37.6985C26.6939 32.3352 27.4378 28.0504 29.9465 26.6075C32.5605 25.0795 36.8983 26.7139 41.2545 30.5532C41.5091 30.7859 41.7651 31.0412 42.041 31.2952C42.4449 30.9136 42.8274 30.5319 43.2314 30.1928C47.3558 26.6022 51.4574 25.1007 53.9662 26.5436C56.5802 28.0278 57.3468 32.6105 56.1777 38.2757C56.1137 38.6374 56.0355 38.9765 55.9445 39.3396C56.4764 39.4885 57.0068 39.6574 57.4961 39.8276C62.6829 41.6096 66.0421 44.3891 65.9995 47.3161C65.9995 50.3069 62.407 53.2566 56.8973 55.0812C56.6001 55.1663 56.3029 55.2727 56.0042 55.3564C56.1322 55.7807 56.2161 56.2049 56.3014 56.6291C57.4065 62.1241 56.556 66.6217 53.9847 68.1072C53.3093 68.4873 52.5328 68.681 51.7447 68.6657C49.3881 68.6617 46.3958 67.2108 43.3807 64.6256ZM47.5478 56.8392C46.3267 58.6154 44.9847 60.3163 43.53 61.9313C43.9339 62.3302 44.3378 62.6959 44.7417 63.0351C48.2489 66.0472 51.4802 67.1723 52.9905 66.3025C53.4518 65.9311 53.8287 65.4769 54.0988 64.9668C54.369 64.4567 54.527 63.9011 54.5635 63.333C54.8704 61.2276 54.7838 59.0884 54.3075 57.0108C54.2435 56.6291 54.1653 56.2474 54.0529 55.8445C51.9111 56.3132 49.7377 56.6456 47.5478 56.8392ZM29.7332 57.5188C28.8628 62.0403 29.5 65.4102 31.0132 66.2813C31.5493 66.4908 32.1281 66.5874 32.7086 66.5645C33.2892 66.5415 33.8572 66.3994 34.3724 66.1483C36.3769 65.3605 38.2024 64.2227 39.7512 62.7957C40.0698 62.5404 40.367 62.2438 40.687 61.9472C39.2004 60.3317 37.8229 58.6311 36.5626 56.8552C34.381 56.6848 32.2146 56.3738 30.0788 55.9243C29.9465 56.4788 29.8399 57.0081 29.7332 57.5188ZM42.1064 60.4884C43.0422 59.4484 43.9766 58.3034 44.9124 57.0307C43.9766 57.0733 42.9995 57.0946 42.0211 57.0946C41.0426 57.0946 40.1295 57.0733 39.215 57.0307C40.1708 58.2808 41.1279 59.4484 42.105 60.4884H42.1064ZM37.6407 39.7824C36.8329 40.9487 36.0464 42.1762 35.3026 43.4741C34.5587 44.7468 33.8804 46.0408 33.2617 47.3307C33.9003 48.6034 34.5801 49.8974 35.3239 51.2139C36.0677 52.4866 36.8542 53.7407 37.662 54.9256C39.0643 55.0107 40.532 55.0585 42.0196 55.0585C43.5073 55.0585 44.9949 55.016 46.4199 54.9109C47.1851 53.7446 47.9716 52.4919 48.7168 51.198C49.462 49.904 50.1618 48.5888 50.779 47.3161C50.1618 46.0647 49.4606 44.7707 48.7168 43.4754C47.973 42.1802 47.1865 40.9487 46.4 39.7837C44.9778 39.6774 43.5087 39.6135 42.0211 39.6135C40.5334 39.6135 39.0657 39.676 37.6407 39.7824ZM30.6263 53.9747C32.0849 54.2862 33.5611 54.5202 35.048 54.6755C34.5374 53.8696 34.0283 53.0624 33.539 52.214C33.0711 51.3868 32.6032 50.5596 32.178 49.7324C31.5622 51.174 31.0516 52.5983 30.6263 53.9747ZM50.5017 52.1927C50.0124 53.0411 49.5232 53.847 49.0354 54.633C50.5445 54.4562 52.042 54.2014 53.521 53.8696C53.0592 52.4376 52.52 51.0283 51.9054 49.6473C51.4588 50.4958 50.9909 51.3442 50.5017 52.1927ZM26.9912 41.7972C22.6549 43.3252 20.0409 45.55 20.0409 47.2922C20.1235 47.8526 20.3238 48.3923 20.6301 48.8802C20.9364 49.3681 21.3427 49.7947 21.8257 50.1354C23.4848 51.44 25.3875 52.4468 27.4378 53.105C27.8203 53.238 28.2242 53.339 28.6281 53.4667C29.2811 51.3799 30.0691 49.3322 30.9876 47.3347C30.0673 45.3715 29.2862 43.3537 28.6495 41.2945C28.0759 41.4381 27.5231 41.6057 26.9912 41.7972ZM53.0744 47.2922C54.0177 49.2642 54.8253 51.2906 55.4922 53.359C55.7695 53.2739 56.0454 53.1888 56.3 53.1037C61.0402 51.5344 63.9799 49.1367 63.9956 47.2695C63.9956 45.5301 61.2749 43.28 56.8319 41.7533C56.3853 41.6057 55.8975 41.4567 55.4097 41.3078C54.7657 43.3462 53.9857 45.3449 53.0744 47.2922ZM50.4818 42.4129C50.971 43.2613 51.4389 44.0898 51.8627 44.917C52.4533 43.5651 52.9642 42.184 53.393 40.7798C51.9491 40.4518 50.4873 40.1969 49.014 40.0165C49.5246 40.7998 50.0124 41.5857 50.4803 42.4129H50.4818ZM30.6477 40.7625C31.0743 42.1203 31.5835 43.4994 32.178 44.9197C32.6046 44.0925 33.0711 43.2653 33.539 42.4382C34.0069 41.611 34.4947 40.8051 35.0053 40.0191C33.475 40.2066 32.0301 40.4606 30.6477 40.7625ZM44.5711 31.7461C44.2098 32.0639 43.8486 32.403 43.4859 32.7435C44.9621 34.3386 46.3188 36.0271 47.5463 37.7969C49.7096 37.9922 51.8551 38.3326 53.9662 38.8156C54.0515 38.4978 54.1084 38.1786 54.1795 37.8608C55.175 32.9815 54.5621 29.2472 52.9464 28.315C52.5918 28.1289 52.1895 28.0369 51.7831 28.049C50.0466 28.0411 47.3814 29.3058 44.5711 31.7421V31.7461ZM30.9663 28.3682C29.4573 29.2379 28.8614 32.7169 29.7545 37.2996C29.8612 37.7876 29.9679 38.2744 30.0944 38.7837C32.2084 38.3185 34.353 37.9853 36.5143 37.7863C37.7462 36.0142 39.1102 34.3256 40.596 32.7328C40.3628 32.4988 40.1068 32.2873 39.8735 32.0745C36.9153 29.4587 34.0709 28.0783 32.2135 28.0783C31.777 28.0644 31.345 28.1648 30.9663 28.3682ZM44.8683 37.6174C43.9917 36.4313 43.0459 35.2912 42.0353 34.2023C41.0796 35.2409 40.1224 36.3873 39.1909 37.6174C40.1267 37.5748 41.0611 37.5536 42.0182 37.5536C42.9754 37.5536 43.9339 37.5709 44.8697 37.6174H44.8683ZM37.7687 47.3773C37.7487 46.832 37.8441 46.2884 38.0492 45.7777C38.2544 45.267 38.5653 44.7991 38.9641 44.4009C39.363 44.0028 39.842 43.6821 40.3736 43.4573C40.9053 43.2326 41.4791 43.1081 42.0623 43.0911C43.239 43.1286 44.3517 43.6008 45.1566 44.4043C45.9615 45.2078 46.3928 46.2769 46.3559 47.3773C46.3939 48.4785 45.9629 49.5489 45.1576 50.3532C44.3523 51.1576 43.2386 51.6303 42.0609 51.6674C41.4774 51.6504 40.9033 51.5258 40.3714 51.3008C39.8395 51.0758 39.3605 50.7547 38.9617 50.3561C38.5628 49.9575 38.2522 49.4891 38.0474 48.9779C37.8427 48.4668 37.748 47.9228 37.7687 47.3773Z"
    fill="#2AC7E3"></path>
  <defs>
    <linearGradient id="react0123123" x1="21.6272" y1="10.0935" x2="65.3319" y2="83.0522"
      gradientUnits="userSpaceOnUse">
      <stop stop-color="#4DBCD6"></stop>
      <stop offset="1" stop-color="#4DBCD6" stop-opacity="0.24"></stop>
    </linearGradient>
    <linearGradient id="react1123123" x1="10.5543" y1="13.2241" x2="79.0939" y2="75.9582"
      gradientUnits="userSpaceOnUse">
      <stop stop-color="#1A434D"></stop>
      <stop offset="1" stop-color="#121214"></stop>
    </linearGradient>
  </defs>
</svg>
